<svg width="60" height="60" viewBox="0 0 60 60" fill="none" xmlns="http://www.w3.org/2000/svg">
<rect width="60" height="60" rx="30" fill="#EFF2F6"/>
<path d="M37 38V39H35V38H37ZM37 36H35C34.4696 36 33.9609 36.2107 33.5858 36.5858C33.2107 36.9609 33 37.4696 33 38V39C33 39.5304 33.2107 40.0391 33.5858 40.4142C33.9609 40.7893 34.4696 41 35 41H37C37.5304 41 38.0391 40.7893 38.4142 40.4142C38.7893 40.0391 39 39.5304 39 39V38C39 37.4696 38.7893 36.9609 38.4142 36.5858C38.0391 36.2107 37.5304 36 37 36Z" fill="#032D42"/>
<path d="M25 38V39H23V38H25ZM25 36H23C22.4696 36 21.9609 36.2107 21.5858 36.5858C21.2107 36.9609 21 37.4696 21 38V39C21 39.5304 21.2107 40.0391 21.5858 40.4142C21.9609 40.7893 22.4696 41 23 41H25C25.5304 41 26.0391 40.7893 26.4142 40.4142C26.7893 40.0391 27 39.5304 27 39V38C27 37.4696 26.7893 36.9609 26.4142 36.5858C26.0391 36.2107 25.5304 36 25 36Z" fill="#032D42"/>
<path d="M19 34H41V36C41 36.5523 40.5523 37 40 37H20C19.4477 37 19 36.5523 19 36V34Z" stroke="#032D42" stroke-width="1.7"/>
<path d="M19 29C19 28.4477 19.4477 28 20 28H40C40.5523 28 41 28.4477 41 29V34H19L19 29Z" stroke="#032D42" stroke-width="1.7"/>
<path d="M22.3289 22.528C22.5467 21.6313 23.3497 21 24.2724 21H35.7276C36.6503 21 37.4533 21.6313 37.6711 22.528L39 28H21L22.3289 22.528Z" stroke="#032D42" stroke-width="1.7"/>
<path d="M40.5 26L39 27.5" stroke="#032D42" stroke-width="2" stroke-linecap="round"/>
<path d="M20 26L21.5 27.5" stroke="#032D42" stroke-width="2" stroke-linecap="round"/>
<path d="M38 31C38 31.2652 37.8946 31.5196 37.7071 31.7071C37.5196 31.8946 37.2652 32 37 32H34C33.7348 32 33.4804 31.8946 33.2929 31.7071C33.1054 31.5196 33 31.2652 33 31C33 30.7348 33.1054 30.4804 33.2929 30.2929C33.4804 30.1054 33.7348 30 34 30H37C37.2652 30 37.5196 30.1054 37.7071 30.2929C37.8946 30.4804 38 30.7348 38 31Z" fill="#62D84E"/>
<path d="M27 31C27 31.2652 26.8946 31.5196 26.7071 31.7071C26.5196 31.8946 26.2652 32 26 32H23C22.7348 32 22.4804 31.8946 22.2929 31.7071C22.1054 31.5196 22 31.2652 22 31C22 30.7348 22.1054 30.4804 22.2929 30.2929C22.4804 30.1054 22.7348 30 23 30H26C26.2652 30 26.5196 30.1054 26.7071 30.2929C26.8946 30.4804 27 30.7348 27 31Z" fill="#62D84E"/>
<path d="M35 23H25C24.4477 23 24 23.3358 24 23.75V25.25C24 25.6642 24.4477 26 25 26H35C35.5523 26 36 25.6642 36 25.25V23.75C36 23.3358 35.5523 23 35 23Z" fill="#62D84E"/>
</svg>
