<svg width="60" height="60" viewBox="0 0 60 60" fill="none" xmlns="http://www.w3.org/2000/svg">
<rect width="60" height="60" rx="30" fill="#EFF2F6"/>
<g clip-path="url(#clip0_3385_3557)">
<path d="M40 26V29" stroke="#032D42" stroke-width="2" stroke-linecap="round" stroke-linejoin="round"/>
<path d="M44 26L31 16L18 26H44Z" stroke="#032D42" stroke-width="2" stroke-linecap="round" stroke-linejoin="round"/>
<path d="M22 26V42" stroke="#032D42" stroke-width="2" stroke-linecap="round" stroke-linejoin="round"/>
<path d="M19 42H43" stroke="#032D42" stroke-width="2" stroke-linecap="round" stroke-linejoin="round"/>
<path d="M45.8023 30.7099C45.77 30.5719 45.7087 30.4424 45.6225 30.3298C45.5363 30.2173 45.4272 30.1244 45.3024 30.0573C45.1776 29.9902 45.0399 29.9503 44.8986 29.9404C44.7572 29.9305 44.6153 29.9508 44.4823 29.9999C34.8523 32.7999 33.7023 28.8799 28.0023 32.2199C27.8285 32.3156 27.6893 32.4639 27.6049 32.6435C27.5205 32.8232 27.4951 33.0249 27.5323 33.2199L28.3723 38.7699C28.399 38.9317 28.465 39.0846 28.5646 39.2149C28.6642 39.3452 28.7943 39.4491 28.9435 39.5172C29.0927 39.5854 29.2564 39.6158 29.4201 39.6058C29.5838 39.5958 29.7426 39.5457 29.8823 39.4599C35.0723 36.8099 36.4923 40.3799 45.9823 37.4599C46.2093 37.3952 46.4061 37.2523 46.5379 37.0565C46.6697 36.8606 46.7279 36.6245 46.7023 36.3899L45.8023 30.7099ZM37.2223 36.9099C36.7 36.9347 36.1887 36.7538 35.798 36.4062C35.4073 36.0585 35.1684 35.5716 35.1323 35.0499C35.0107 34.541 35.0934 34.0047 35.3626 33.556C35.6318 33.1074 36.0661 32.7821 36.5723 32.6499C37.0947 32.6251 37.606 32.8059 37.9967 33.1536C38.3874 33.5013 38.6263 33.9882 38.6623 34.5099C38.784 35.0188 38.7013 35.5551 38.4321 36.0037C38.1629 36.4524 37.7286 36.7777 37.2223 36.9099Z" fill="#62D84E"/>
<path d="M31 23C31.8284 23 32.5 22.3284 32.5 21.5C32.5 20.6716 31.8284 20 31 20C30.1716 20 29.5 20.6716 29.5 21.5C29.5 22.3284 30.1716 23 31 23Z" fill="#032D42"/>
</g>
<defs>
<clipPath id="clip0_3385_3557">
<rect width="32" height="32" fill="white" transform="translate(15 14)"/>
</clipPath>
</defs>
</svg>
