<svg version="1.1" id="Capa_1" xmlns="http://www.w3.org/2000/svg" xmlns:xlink="http://www.w3.org/1999/xlink" x="0px" y="0px" viewBox="0 0 512 512" style="enable-background:new 0 0 512 512;" xml:space="preserve" width="300" height="300" xmlns:svgjs="http://svgjs.dev/svgjs"><g width="100%" height="100%" transform="matrix(1,0,0,1,0,0)"><g>
	<g>
		
			<line style="stroke-linejoin: round; stroke-miterlimit: 10;" x1="255.873" y1="221.735" x2="255.873" y2="185.735" fill="none" fill-opacity="1" stroke="#62d84e" stroke-opacity="1" data-original-stroke-color="#33ccccff" stroke-width="22" data-original-stroke-width="22"/>
		<polyline style="stroke-linejoin: round; stroke-miterlimit: 10;" points="&#10;&#9;&#9;&#9;213.366,264.242 92.438,264.242 92.438,336.059 &#9;&#9;" fill="none" fill-opacity="1" stroke="#62d84e" stroke-opacity="1" data-original-stroke-color="#33ccccff" stroke-width="22" data-original-stroke-width="22"/>
		<polyline style="stroke-linejoin: round; stroke-miterlimit: 10;" points="&#10;&#9;&#9;&#9;192.357,471.875 92.438,471.875 92.438,400.766 &#9;&#9;" fill="none" fill-opacity="1" stroke="#62d84e" stroke-opacity="1" data-original-stroke-color="#33ccccff" stroke-width="22" data-original-stroke-width="22"/>
		
			<line style="stroke-linejoin: round; stroke-miterlimit: 10;" x1="319.643" y1="471.875" x2="405.311" y2="471.875" fill="none" fill-opacity="1" stroke="#62d84e" stroke-opacity="1" data-original-stroke-color="#33ccccff" stroke-width="22" data-original-stroke-width="22"/>
		
			<line style="stroke-linejoin: round; stroke-miterlimit: 10;" x1="255.873" y1="306.75" x2="255.873" y2="337.884" fill="none" fill-opacity="1" stroke="#62d84e" stroke-opacity="1" data-original-stroke-color="#33ccccff" stroke-width="22" data-original-stroke-width="22"/>
		
			<line style="stroke-linejoin: round; stroke-miterlimit: 10;" x1="256" y1="398.749" x2="256" y2="442.749" fill="none" fill-opacity="1" stroke="#62d84e" stroke-opacity="1" data-original-stroke-color="#33ccccff" stroke-width="22" data-original-stroke-width="22"/>
		
			<polygon style="stroke-linecap: round; stroke-linejoin: round; stroke-miterlimit: 10;" points="&#10;&#9;&#9;&#9;372.873,31.232 238.644,31.232 222.032,11 138.873,11 138.873,185.735 372.873,185.735 &#9;&#9;" fill="none" fill-opacity="1" stroke="#032d42" stroke-opacity="1" data-original-stroke-color="#000000ff" stroke-width="22" data-original-stroke-width="22"/>
		<g>
			<g>
				<path style="stroke-linecap: round; stroke-linejoin: round; stroke-miterlimit: 10;" d="&#10;&#9;&#9;&#9;&#9;&#9;M305.058,84.32l22.815,24.163l-22.815,24.163" fill="none" fill-opacity="1" stroke="#62d84e" stroke-opacity="1" data-original-stroke-color="#33ccccff" stroke-width="22" data-original-stroke-width="22"/>
				<path style="stroke-linecap: round; stroke-linejoin: round; stroke-miterlimit: 10;" d="&#10;&#9;&#9;&#9;&#9;&#9;M206.689,132.646l-22.815-24.163l22.815-24.163" fill="none" fill-opacity="1" stroke="#62d84e" stroke-opacity="1" data-original-stroke-color="#33ccccff" stroke-width="22" data-original-stroke-width="22"/>
				
					<line id="XMLID_733_" style="stroke-linecap: round; stroke-linejoin: round; stroke-miterlimit: 10;" x1="261.058" y1="80.35" x2="250.689" y2="136.616" fill="none" fill-opacity="1" stroke="#62d84e" stroke-opacity="1" data-original-stroke-color="#33ccccff" stroke-width="22" data-original-stroke-width="22"/>
			</g>
		</g>
		
			<rect x="225.816" y="234.185" transform="matrix(0.7071 -0.7071 0.7071 0.7071 -111.9041 258.3244)" style="stroke-linecap: round; stroke-linejoin: round; stroke-miterlimit: 10;" width="60.115" height="60.115" fill="none" fill-opacity="1" stroke="#032d42" stroke-opacity="1" data-original-stroke-color="#000000ff" stroke-width="22" data-original-stroke-width="22"/>
		
			<rect x="48.438" y="336.059" style="stroke-linecap: round; stroke-linejoin: round; stroke-miterlimit: 10;" width="88" height="64" fill="none" fill-opacity="1" stroke="#032d42" stroke-opacity="1" data-original-stroke-color="#000000ff" stroke-width="22" data-original-stroke-width="22"/>
		
			<circle style="stroke-linecap: round; stroke-linejoin: round; stroke-miterlimit: 10;" cx="256" cy="370.749" r="28" fill="none" fill-opacity="1" stroke="#032d42" stroke-opacity="1" data-original-stroke-color="#000000ff" stroke-width="22" data-original-stroke-width="22"/>
		<path style="stroke-linecap: round; stroke-linejoin: round; stroke-miterlimit: 10;" d="&#10;&#9;&#9;&#9;M290.264,442.749h-68.782c-16.085,0-29.125,13.04-29.125,29.125v0c0,16.085,13.04,29.125,29.125,29.125h68.782&#10;&#9;&#9;&#9;c16.085,0,29.125-13.04,29.125-29.125v0C319.389,455.789,306.35,442.749,290.264,442.749z" fill="none" fill-opacity="1" stroke="#032d42" stroke-opacity="1" data-original-stroke-color="#000000ff" stroke-width="22" data-original-stroke-width="22"/>
		
			<circle style="stroke-linecap: round; stroke-linejoin: round; stroke-miterlimit: 10;" cx="434.436" cy="471.875" r="29.125" fill="none" fill-opacity="1" stroke="#032d42" stroke-opacity="1" data-original-stroke-color="#000000ff" stroke-width="22" data-original-stroke-width="22"/>
	</g>
</g><g>
</g><g>
</g><g>
</g><g>
</g><g>
</g><g>
</g><g>
</g><g>
</g><g>
</g><g>
</g><g>
</g><g>
</g><g>
</g><g>
</g><g>
</g></g></svg>