<svg id="Layer_1" viewBox="0 0 512 512" xmlns="http://www.w3.org/2000/svg" data-name="Layer 1" width="300" height="300" version="1.1" xmlns:xlink="http://www.w3.org/1999/xlink" xmlns:svgjs="http://svgjs.dev/svgjs"><g width="100%" height="100%" transform="matrix(1,0,0,1,0,0)"><path d="m474.582 133.232-4.702-17.478c-2.345-8.782-10.237-14.836-19.24-14.836-.125 0-.252.002-.377.004l-18.442.255c-4.421-7.303-9.625-14.09-15.531-20.254l5.037-17.732c2.526-8.976-1.2-18.143-9.279-22.815l-15.654-9.03c-7.926-4.61-17.954-3.222-24.386 3.384l-12.828 13.198c-8.263-2.015-16.746-3.125-25.316-3.312l-9.004-16.106c-4.478-8.008-13.792-11.951-22.67-9.58l-17.476 4.702c-8.863 2.365-14.963 10.434-14.833 19.617l.255 18.442c-7.303 4.421-14.09 9.625-20.254 15.53l-17.723-5.033c-8.847-2.502-18.219 1.302-22.795 9.244l-9.075 15.711c-4.574 7.941-3.179 17.957 3.403 24.366l13.22 12.826c-2.028 8.298-3.146 16.779-3.336 25.312l-16.107 9.005c-8.032 4.491-11.958 13.821-9.555 22.66l4.677 17.488c2.342 8.77 10.267 14.834 19.332 14.834.095 0 .191 0 .286-.002l18.442-.256c4.421 7.305 9.626 14.093 15.535 20.259l-5.001 17.689c-2.55 8.861 1.256 18.252 9.218 22.814 2.644 1.537 5.294 3.067 7.944 4.597 2.58 1.489 5.16 2.979 7.771 4.496 7.976 4.567 17.992 3.163 24.348-3.406l12.853-13.224c8.282 2.027 16.764 3.146 25.313 3.336l8.982 16.107c3.607 6.452 10.337 10.255 17.428 10.255 1.736 0 3.494-.229 5.232-.701l17.487-4.676c8.863-2.365 14.962-10.434 14.833-19.617l-.255-18.442c7.305-4.422 14.094-9.628 20.259-15.535l17.688 5.001c8.86 2.547 18.252-1.256 22.822-9.231l9.085-15.701c4.57-7.975 3.165-17.991-3.401-24.343l-13.203-12.854c2.016-8.249 3.125-16.732 3.312-25.317l16.105-8.98c8.009-4.479 11.95-13.796 9.581-22.671zm-16.408 10.444-19.672 10.97c-2.247 1.253-3.625 3.637-3.591 6.21.136 10.092-1.167 20.052-3.874 29.603-.701 2.474.01 5.132 1.852 6.926l16.146 15.72c2.035 1.968 2.429 4.847 1.019 7.307l-9.085 15.701c-1.412 2.463-4.086 3.547-6.846 2.753l-21.657-6.123c-2.475-.7-5.136.016-6.929 1.86-6.966 7.177-14.929 13.283-23.668 18.149-2.25 1.253-3.63 3.64-3.594 6.214l.312 22.537c.04 2.849-1.704 5.161-4.445 5.894l-17.519 4.685c-2.736.743-5.402-.383-6.788-2.861l-10.97-19.673c-1.238-2.219-3.579-3.592-6.115-3.592-.031 0-.063 0-.094 0-10.03.122-19.992-1.179-29.604-3.902-2.477-.701-5.137.011-6.93 1.856l-15.715 16.169c-1.968 2.034-4.846 2.429-7.294 1.026-2.585-1.503-5.178-3-7.77-4.496-2.637-1.522-5.275-3.045-7.944-4.597-2.463-1.411-3.547-4.086-2.753-6.846l6.123-21.657c.7-2.476-.014-5.136-1.86-6.928-7.177-6.968-13.283-14.931-18.148-23.668-1.237-2.222-3.579-3.596-6.117-3.596-.032 0-.065 0-.098 0l-22.537.312c-.032 0-.064 0-.096 0-2.804 0-5.074-1.735-5.798-4.446l-4.685-17.519c-.744-2.735.382-5.402 2.868-6.792l19.672-10.998c2.243-1.254 3.619-3.636 3.584-6.205-.134-10.006 1.179-19.968 3.904-29.608.7-2.477-.015-5.138-1.862-6.93l-16.148-15.667c-2.045-1.99-2.449-4.87-1.033-7.327l9.075-15.711c1.394-2.42 4.145-3.53 6.846-2.769l21.657 6.15c2.475.7 5.141-.01 6.936-1.858 6.967-7.176 14.931-13.282 23.668-18.148 2.25-1.253 3.63-3.64 3.594-6.214l-.312-22.537c-.041-2.849 1.703-5.161 4.456-5.896l17.476-4.702c2.753-.733 5.431.398 6.823 2.889l10.998 19.673c1.238 2.215 3.578 3.585 6.111 3.585h.095c10.074-.135 20.031 1.169 29.608 3.875 2.473.699 5.133-.015 6.925-1.857l15.671-16.124c2-2.054 4.87-2.461 7.331-1.031l15.668 9.038c2.479 1.434 3.58 4.141 2.808 6.88l-6.151 21.656c-.704 2.478.01 5.143 1.858 6.937 7.177 6.968 13.283 14.931 18.15 23.669 1.252 2.249 3.662 3.602 6.213 3.594l22.57-.312c2.845-.02 5.125 1.691 5.863 4.457l4.702 17.478c.735 2.752-.399 5.431-2.882 6.818zm-126.927-62.115c-44.515 0-80.73 36.203-80.73 80.702s36.215 80.731 80.73 80.731 80.702-36.216 80.702-80.731-36.203-80.702-80.702-80.702zm0 147.43c-36.793 0-66.728-29.934-66.728-66.728s29.934-66.698 66.728-66.698 66.699 29.921 66.699 66.698-29.921 66.728-66.699 66.728zm-7.001-116.872v-.34c0-3.867 3.135-7.002 7.001-7.002s7.001 3.135 7.001 7.002v.34c0 3.867-3.135 7.002-7.001 7.002s-7.001-3.135-7.001-7.002zm49.529 10.288c2.74 2.729 2.75 7.162.021 9.902l-.227.228c-1.368 1.374-3.165 2.062-4.961 2.062-1.787 0-3.574-.68-4.94-2.04-2.74-2.729-2.75-7.162-.021-9.902l.227-.228c2.729-2.739 7.162-2.749 9.902-.021zm3.309 42.55c0-3.867 3.135-7.002 7.001-7.002h.34c3.867 0 7.001 3.135 7.001 7.002s-3.135 7.002-7.001 7.002h-.34c-3.867 0-7.001-3.135-7.001-7.002zm-3.016 32.964c2.569 2.89 2.309 7.315-.582 9.885-1.333 1.186-2.995 1.769-4.649 1.769-1.93 0-3.852-.794-5.235-2.351l-.227-.255c-2.569-2.89-2.309-7.315.582-9.885 2.889-2.569 7.315-2.309 9.884.582zm-35.819 19.874v.368c0 3.867-3.135 7.002-7.001 7.002s-7.001-3.135-7.001-7.002v-.368c0-3.867 3.135-7.002 7.001-7.002s7.001 3.135 7.001 7.002zm-39.406-20.424c2.732 2.737 2.728 7.17-.009 9.902l-.255.255c-1.367 1.363-3.157 2.046-4.946 2.046s-3.588-.686-4.956-2.056c-2.732-2.737-2.728-7.17.009-9.902l.255-.255c2.737-2.731 7.17-2.728 9.902.01zm-13.432-32.414c0 3.867-3.135 7.002-7.001 7.002h-.368c-3.867 0-7.001-3.135-7.001-7.002s3.135-7.002 7.001-7.002h.368c3.867 0 7.001 3.135 7.001 7.002zm3.265-32.643c-2.731-2.737-2.727-7.17.011-9.901 2.736-2.732 7.17-2.728 9.901.011l.227.228c2.731 2.737 2.727 7.17-.011 9.901-1.366 1.364-3.156 2.046-4.945 2.046s-3.588-.686-4.956-2.057zm67.532 6.91c2.736 2.732 2.739 7.166.006 9.901l-22.932 22.961c-1.315 1.317-3.099 2.055-4.954 2.055-.079 0-.157-.002-.236-.004-1.939-.065-3.764-.933-5.04-2.395l-13.578-15.562c-2.542-2.914-2.241-7.337.673-9.879 2.915-2.544 7.337-2.24 9.879.672l8.648 9.912 17.632-17.654c2.732-2.736 7.166-2.739 9.902-.007z" fill="#62d84e" fill-opacity="1" data-original-color="#ff695aff" stroke="none" stroke-opacity="1"/><path d="m501.352 308.887c-4.677-8.104-12.257-13.905-21.343-16.338-9.083-2.433-18.543-1.193-26.631 3.484l-106.227 61.331c.503-1.235.935-2.519 1.29-3.846 2.185-8.141 1.054-16.669-3.185-24.016-4.238-7.346-11.055-12.595-19.198-14.779l-104.338-27.96c-9.341-2.999-20.762-1.814-29.157 3.033l-59.5 34.341-11.753-20.355c-.929-1.608-2.458-2.782-4.252-3.263-1.794-.479-3.705-.229-5.313.701l-58.252 33.647c-3.348 1.934-4.495 6.215-2.562 9.563l82.772 143.377c1.297 2.246 3.65 3.502 6.07 3.502 1.187 0 2.39-.303 3.492-.938l58.28-33.619c1.609-.928 2.783-2.457 3.264-4.251s.229-3.706-.699-5.314l-13.051-22.604c5.824-1.617 11.593-2.528 16.755-1.419l95.993 25.726c3.707.994 7.47 1.486 11.212 1.486 7.5 0 14.913-1.977 21.599-5.843l151.885-87.679c16.746-9.685 22.511-31.202 12.848-47.97zm-359.021 165.859-75.773-131.253 46.126-26.644 11.723 20.304c.009.016.016.033.025.05.01.017.021.031.031.047l50.083 86.742c.042.075.085.151.13.225l13.804 23.908-46.15 26.621zm339.167-130.014-151.885 87.678c-6.784 3.923-14.658 4.974-22.179 2.956l-96.151-25.768c-.097-.026-.195-.05-.293-.072-9.158-2.034-18.561-.073-27.128 2.592l-43.797-75.853 59.499-34.341c5.004-2.889 12.4-3.625 17.985-1.793.123.04.247.077.371.11l104.511 28.007c4.528 1.215 8.327 4.146 10.696 8.252s3.004 8.86 1.788 13.395c-2.442 9.139-11.591 14.391-20.915 12.088-.013-.004-.026-.009-.039-.012l-78.86-20.862c-3.739-.992-7.57 1.24-8.559 4.978s1.24 7.57 4.978 8.56l78.235 20.697c.112.036.221.077.336.108l12.53 3.325c9.186 2.395 14.383.623 26.357-6.297l111.406-64.321c4.852-2.806 10.537-3.545 16.004-2.082 5.471 1.465 10.03 4.949 12.833 9.808 5.811 10.083 2.344 23.026-7.724 28.85zm-322.937-163.929v-22.812l36.602-6.816c2.575-.479 4.667-2.355 5.422-4.864.755-2.508.047-5.228-1.835-7.05l-40.189-38.896v-23.225c0-3.867-3.135-7.002-7.001-7.002h-132.52c-3.867 0-7.001 3.135-7.001 7.002v103.663c0 3.867 3.135 7.002 7.001 7.002h132.52c3.867 0 7.001-3.135 7.001-7.002zm-14.003-28.63v21.628h-118.517v-89.659h118.517v19.19c0 1.896.77 3.712 2.132 5.031l32.576 31.528-28.989 5.398c-3.315.617-5.72 3.511-5.72 6.883zm-10.999-37.247c0 3.867-3.135 7.002-7.001 7.002h-82.517c-3.867 0-7.001-3.135-7.001-7.002s3.135-7.002 7.001-7.002h82.517c3.867 0 7.001 3.135 7.001 7.002zm0 28.062c0 3.867-3.135 7.002-7.001 7.002h-82.517c-3.867 0-7.001-3.135-7.001-7.002s3.135-7.002 7.001-7.002h82.517c3.867 0 7.001 3.135 7.001 7.002z" fill="#032d42" fill-opacity="1" data-original-color="#2e3760ff" stroke="none" stroke-opacity="1"/></g></svg>