<svg width="60" height="60" viewBox="0 0 60 60" fill="none" xmlns="http://www.w3.org/2000/svg">
<rect width="60" height="60" rx="30" fill="#EFF2F6"/>
<path d="M37.1671 15.7705C37.0635 15.7016 36.9443 15.6596 36.8204 15.6482C36.6964 15.6369 36.5716 15.6565 36.4571 15.7055C33.8771 16.8105 31.1921 15.1405 31.1571 15.1205C31.0745 15.0609 30.9806 15.0189 30.8812 14.9968C30.7818 14.9748 30.6789 14.9732 30.5789 14.9922C30.4788 15.0112 30.3837 15.0503 30.2993 15.1073C30.2149 15.1642 30.1429 15.2378 30.0879 15.3234C30.0328 15.4091 29.9958 15.5051 29.979 15.6055C29.9622 15.706 29.9661 15.8088 29.9903 15.9077C30.0146 16.0066 30.0587 16.0995 30.1201 16.1808C30.1814 16.2621 30.2587 16.33 30.3471 16.3805C30.3471 16.3805 30.5171 16.4855 30.7521 16.6105V16.9355C30.6272 16.9356 30.5042 16.9667 30.3943 17.026C30.2843 17.0854 30.1908 17.1711 30.1221 17.2755C30.0684 17.358 30.0316 17.4504 30.0139 17.5473C29.9961 17.6442 29.9977 17.7437 30.0187 17.8399C30.0396 17.9362 30.0794 18.0273 30.1358 18.1081C30.1922 18.1889 30.264 18.2576 30.3471 18.3105C31.5365 19.0874 32.9265 19.5009 34.3471 19.5005C35.2641 19.5053 36.1736 19.3356 37.0271 19.0005C37.1633 18.9462 37.2807 18.8535 37.365 18.7336C37.4494 18.6138 37.497 18.4719 37.5021 18.3255V16.3955C37.5031 16.2716 37.4729 16.1494 37.4144 16.0402C37.3558 15.931 37.2708 15.8383 37.1671 15.7705Z" fill="#62D84E"/>
<path d="M43.4221 43.415L42.0021 40.5C41.6883 39.8818 41.1525 39.405 40.5021 39.165V29.5C41.0177 29.51 41.5256 29.3746 41.9677 29.1093C42.4099 28.844 42.7684 28.4596 43.0021 28L43.4471 27.105C43.491 27.0105 43.5146 26.9078 43.5163 26.8036C43.518 26.6993 43.4979 26.5959 43.4571 26.5C43.4203 26.4041 43.3647 26.3167 43.2934 26.2428C43.2221 26.1689 43.1366 26.1102 43.0421 26.07L31.5021 21.25V15.75C31.5021 15.5511 31.4231 15.3603 31.2825 15.2197C31.1418 15.079 30.951 15 30.7521 15C30.5532 15 30.3624 15.079 30.2218 15.2197C30.0811 15.3603 30.0021 15.5511 30.0021 15.75V21.25L18.4621 26.06C18.3676 26.1002 18.2822 26.1589 18.2109 26.2328C18.1396 26.3067 18.0839 26.3941 18.0471 26.49C18.0117 26.5862 17.9965 26.6888 18.0025 26.7912C18.0086 26.8935 18.0357 26.9936 18.0821 27.085L18.5271 28C18.759 28.4557 19.1136 28.8376 19.5509 29.1027C19.9882 29.3677 20.4908 29.5053 21.0021 29.5V39.185C20.3645 39.4254 19.8389 39.8941 19.5271 40.5L18.0821 43.415C18.0236 43.5291 17.9955 43.6564 18.0006 43.7845C18.0057 43.9127 18.0437 44.0373 18.1111 44.1465C18.1785 44.2556 18.2729 44.3455 18.3852 44.4074C18.4975 44.4693 18.6239 44.5012 18.7521 44.5H42.7521C42.8804 44.5012 43.0068 44.4693 43.119 44.4074C43.2313 44.3455 43.3258 44.2556 43.3931 44.1465C43.4605 44.0373 43.4986 43.9127 43.5037 43.7845C43.5087 43.6564 43.4807 43.5291 43.4221 43.415ZM39.0021 39H34.5021V29.5H39.0021V39ZM28.5021 39V29.5H33.0021V39H28.5021ZM19.8721 27.31L19.7821 27.135L30.7521 22.56L41.7221 27.135L41.6321 27.31C41.5282 27.52 41.3669 27.6963 41.1669 27.8184C40.9669 27.9406 40.7364 28.0035 40.5021 28H21.0021C20.7678 28.0035 20.5373 27.9406 20.3373 27.8184C20.1373 27.6963 19.976 27.52 19.8721 27.31ZM27.0021 29.5V39H22.5021V29.5H27.0021ZM19.9671 43L20.8721 41.19C20.976 40.98 21.1373 40.8037 21.3373 40.6816C21.5373 40.5594 21.7678 40.4965 22.0021 40.5H39.5021C39.7339 40.4993 39.9612 40.5636 40.1583 40.6856C40.3554 40.8075 40.5143 40.9823 40.6171 41.19L41.5371 43H19.9671Z" fill="#032D42" stroke="#032D42" stroke-width="0.2"/>
</svg>
