<svg width="60" height="60" viewBox="0 0 60 60" fill="none" xmlns="http://www.w3.org/2000/svg">
<rect width="60" height="60" rx="30" fill="#EFF2F6"/>
<g clip-path="url(#clip0_3385_3592)">
<path d="M30 22.29L32 20.29C33.2939 19.0409 35.0266 18.3499 36.825 18.3657C38.6234 18.3815 40.3436 19.103 41.6153 20.3747C42.887 21.6464 43.6085 23.3666 43.6243 25.165C43.6401 26.9634 42.9491 28.6961 41.7 29.99L30 42L26 37.86" stroke="#032D42" stroke-width="2" stroke-linecap="round" stroke-linejoin="round"/>
<path d="M16.9085 28.0002C16.2358 26.537 16.0992 24.8838 16.5228 23.3301C16.9464 21.7763 17.9031 20.4212 19.2254 19.5019C20.5477 18.5826 22.1512 18.1578 23.7552 18.302C25.3592 18.4461 26.8613 19.1499 27.9985 20.2902L31.3585 23.6502" stroke="#032D42" stroke-width="2" stroke-linecap="round" stroke-linejoin="round"/>
<path d="M32.5 28.5C32.0141 28.5015 31.539 28.6441 31.1325 28.9103C30.726 29.1766 30.4055 29.5551 30.21 30H28.53C28.396 29.9992 28.2632 30.0254 28.1395 30.0769C28.0159 30.1284 27.9038 30.2043 27.81 30.3L25.4 32.74L24.94 26.92C24.9228 26.726 24.8493 26.5412 24.7285 26.3883C24.6077 26.2355 24.4449 26.1212 24.2601 26.0596C24.0753 25.998 23.8765 25.9917 23.6882 26.0415C23.4999 26.0913 23.3302 26.1951 23.2 26.34L20 30H15C14.7348 30 14.4804 30.1054 14.2929 30.2929C14.1054 30.4804 14 30.7348 14 31C14 31.2652 14.1054 31.5196 14.2929 31.7071C14.4804 31.8946 14.7348 32 15 32H20.44C20.582 31.9998 20.7223 31.9694 20.8516 31.9108C20.9809 31.8522 21.0963 31.7667 21.19 31.66L23.19 29.44L23.63 35.08C23.6449 35.2705 23.714 35.4527 23.8292 35.6051C23.9444 35.7575 24.1008 35.8737 24.28 35.94C24.389 35.9796 24.504 35.9999 24.62 36C24.754 36.0008 24.8868 35.9746 25.0105 35.9231C25.1341 35.8716 25.2462 35.7957 25.34 35.7L28.94 32H30.21C30.3903 32.4131 30.679 32.7699 31.0454 33.0324C31.4119 33.2949 31.8425 33.4534 32.2917 33.4912C32.7409 33.529 33.1919 33.4446 33.5971 33.247C34.0023 33.0494 34.3465 32.746 34.5933 32.3688C34.8401 31.9916 34.9803 31.5546 34.9991 31.1042C35.0179 30.6539 34.9146 30.2068 34.7001 29.8103C34.4855 29.4138 34.1678 29.0827 33.7805 28.8521C33.3932 28.6214 32.9508 28.4998 32.5 28.5Z" fill="#62D84E"/>
</g>
<defs>
<clipPath id="clip0_3385_3592">
<rect width="32" height="32" fill="white" transform="translate(14 14)"/>
</clipPath>
</defs>
</svg>
