<svg id="Layer_1" viewBox="0 0 512 512" xmlns="http://www.w3.org/2000/svg" data-name="Layer 1" width="300" height="300" version="1.1" xmlns:xlink="http://www.w3.org/1999/xlink" xmlns:svgjs="http://svgjs.dev/svgjs"><g width="100%" height="100%" transform="matrix(1,0,0,1,0,0)"><path d="m183.394 182.491h-21.912c-6.564 0-11.905-5.342-11.905-11.906v-3.674c-4.538-1.4-8.913-3.207-13.083-5.403l-2.606 2.594c-2.212 2.239-5.21 3.493-8.406 3.493-3.195 0-6.193-1.254-8.441-3.529l-15.451-15.451c-2.246-2.246-3.483-5.235-3.483-8.416s1.237-6.171 3.483-8.417l2.59-2.603c-2.204-4.194-4.013-8.567-5.408-13.075h-3.676c-6.564 0-11.905-5.341-11.905-11.905v-21.912c0-6.565 5.341-11.906 11.905-11.906h3.676c1.395-4.505 3.201-8.874 5.402-13.064l-2.584-2.585c-4.633-4.688-4.621-12.24 0-16.861l15.477-15.477c4.641-4.641 12.191-4.64 16.833 0l2.603 2.591c4.194-2.203 8.567-4.012 13.076-5.407v-3.677c0-6.564 5.341-11.905 11.905-11.905h21.912c6.564 0 11.905 5.341 11.905 11.905v3.677c4.518 1.399 8.89 3.213 13.074 5.422l2.604-2.604c4.641-4.642 12.192-4.64 16.833 0l15.477 15.478c4.621 4.62 4.632 12.172.025 16.835l-2.61 2.61c2.201 4.19 4.008 8.56 5.402 13.064h3.676c6.565 0 11.905 5.341 11.905 11.906v21.912c0 6.564-5.34 11.905-11.905 11.905h-3.676c-1.396 4.508-3.205 8.881-5.408 13.075l2.601 2.613c2.235 2.235 3.472 5.224 3.472 8.406s-1.237 6.17-3.482 8.416l-7.739 7.738-7.739 7.738c-2.222 2.25-5.22 3.503-8.415 3.504-3.196 0-6.194-1.254-8.443-3.529l-2.577-2.564c-4.195 2.204-8.568 4.013-13.076 5.408v3.676c0 6.564-5.341 11.906-11.905 11.906zm-21.798-12.02h21.685v-8.136c0-2.772 1.897-5.186 4.591-5.84 6.469-1.57 12.661-4.13 18.404-7.605 2.362-1.431 5.394-1.066 7.351.881l5.768 5.739 15.312-15.312-5.739-5.768c-1.947-1.958-2.311-4.99-.881-7.352 3.476-5.741 6.035-11.933 7.606-18.403.655-2.694 3.067-4.592 5.84-4.592h8.136v-21.685h-8.136c-2.772 0-5.185-1.897-5.84-4.591-1.572-6.472-4.131-12.664-7.606-18.404-1.433-2.366-1.065-5.405.892-7.361l5.743-5.743-15.327-15.326-5.757 5.757c-1.961 1.962-5.01 2.326-7.379.882-5.709-3.482-11.896-6.048-18.387-7.625-2.694-.655-4.59-3.067-4.59-5.84v-8.135h-21.685v8.135c0 2.772-1.896 5.185-4.59 5.84-6.473 1.572-12.665 4.132-18.404 7.606-2.361 1.431-5.395 1.067-7.352-.881l-5.767-5.74-15.327 15.328 5.743 5.742c1.957 1.956 2.325 4.995.892 7.361-3.475 5.74-6.035 11.933-7.606 18.404-.655 2.693-3.067 4.591-5.84 4.591h-8.136v21.685h8.136c2.772 0 5.185 1.897 5.84 4.592 1.571 6.471 4.131 12.662 7.606 18.403 1.43 2.361 1.067 5.394-.881 7.352l-5.739 5.768 15.313 15.312 5.767-5.739c1.962-1.953 5.005-2.312 7.367-.871 5.662 3.452 11.849 6.008 18.387 7.596 2.694.654 4.591 3.067 4.591 5.84v8.136zm69.704-18.368h.01z" fill="#62d84e" fill-opacity="1" data-original-color="#ff695aff" stroke="none" stroke-opacity="1"/><path d="m172.452 136.569c-23.898 0-43.341-19.431-43.341-43.313s19.443-43.342 43.341-43.342 43.313 19.443 43.313 43.342-19.43 43.313-43.313 43.313zm0-74.636c-17.271 0-31.323 14.051-31.323 31.322s14.051 31.294 31.323 31.294 31.295-14.038 31.295-31.294-14.039-31.322-31.295-31.322z" fill="#62d84e" fill-opacity="1" data-original-color="#ff695aff" stroke="none" stroke-opacity="1"/><g fill="#2e3760"><path d="m476.582 252.648h-54.652c-3.319 0-6.009-2.69-6.009-6.01s2.69-6.01 6.009-6.01h48.643v-46.49c-1.503-39.809-42.685-59.928-80.749-65.484-3.284-.479-5.558-3.53-5.078-6.814.479-3.282 3.529-5.558 6.814-5.078 54.724 7.988 89.603 37.513 91.027 77.05.003.071.004.144.004.216v52.611c0 3.319-2.69 6.01-6.009 6.01zm-170.362 0h-54.652c-3.319 0-6.009-2.69-6.009-6.01v-52.611c0-.073 0-.147.004-.221 1.451-39.541 36.342-69.062 91.056-77.045 3.28-.477 6.335 1.795 6.814 5.079s-1.794 6.335-5.079 6.813c-38.057 5.553-79.241 25.673-80.776 65.486v46.488h48.643c3.319 0 6.009 2.69 6.009 6.01s-2.69 6.01-6.009 6.01z" fill="#032d42" fill-opacity="1" data-original-color="#2e3760ff" stroke="none" stroke-opacity="1"/><path d="m364.075 134.982c-36.106 0-65.48-29.388-65.48-65.509s29.374-65.48 65.48-65.48 65.509 29.375 65.509 65.48-29.387 65.509-65.509 65.509zm0-118.97c-29.479 0-53.461 23.982-53.461 53.461s23.983 53.489 53.461 53.489 53.49-23.995 53.49-53.489-23.996-53.461-53.49-53.461z" fill="#032d42" fill-opacity="1" data-original-color="#2e3760ff" stroke="none" stroke-opacity="1"/><path d="m156.833 460.456c-1.484 0-2.97-.547-4.132-1.647-2.409-2.283-2.512-6.087-.229-8.496 12.028-12.691 27.93-24.076 62.567-21.388 8.838.689 17.243 1.568 25.372 2.418 34.276 3.583 63.877 6.68 98.304-8.101 22.068-9.478 59.916-28.078 93.946-49.305 50.402-31.438 61.087-48.945 62.971-56.583.804-3.262.335-5.737-1.521-8.025-1.673-2.057-7.232-4.308-25.626 3.784-11.39 5.015-21.23 9.74-30.745 14.311-34.079 16.368-58.701 28.194-106.748 30.214-3.331.127-6.117-2.436-6.257-5.752-.139-3.315 2.436-6.117 5.752-6.256 45.577-1.916 69.265-13.293 102.049-29.04 9.604-4.612 19.534-9.382 31.108-14.478 12.677-5.575 30.592-11.681 39.796-.36 4.225 5.208 5.559 11.597 3.862 18.48-4.122 16.713-27.094 38.213-68.279 63.902-34.604 21.585-73.107 40.507-95.565 50.151-37.305 16.016-68.348 12.769-104.296 9.011-8.051-.842-16.377-1.713-25.053-2.39-31.1-2.405-43.188 7.411-52.913 17.673-1.181 1.247-2.771 1.876-4.363 1.876z" fill="#032d42" fill-opacity="1" data-original-color="#2e3760ff" stroke="none" stroke-opacity="1"/><path d="m283.154 376.48c-20.74 0-45.281-4.485-63.434-9.409-3.203-.869-5.096-4.17-4.227-7.373s4.169-5.091 7.373-4.227c25.59 6.941 59.941 11.838 78.993 7.138 19.514-4.794 28.269-19.574 27.089-28.401-1.157-8.659-11.18-9.71-17.052-9.562-23.727.603-45.807-5.294-67.166-10.997-21.796-5.821-44.328-11.841-69.146-11.198-31.641.847-55.675 7.202-75.629 19.999-8.41 5.391-13.946 11.856-20.357 19.343-5.122 5.98-10.417 12.166-17.709 18.383-2.526 2.151-6.319 1.85-8.472-.675s-1.851-6.318.674-8.472c6.574-5.604 11.558-11.425 16.378-17.054 6.737-7.867 13.1-15.298 22.999-21.644 21.877-14.029 47.87-20.987 81.801-21.896 26.544-.679 49.943 5.56 72.563 11.601 21.481 5.736 41.771 11.162 63.762 10.594 19.548-.506 27.934 10.006 29.268 19.984 2.041 15.269-11.192 35.538-36.128 41.664-6.252 1.543-13.639 2.201-21.58 2.201z" fill="#032d42" fill-opacity="1" data-original-color="#2e3760ff" stroke="none" stroke-opacity="1"/><path d="m125.706 508.007c-5.606 0-11.209-2.132-15.472-6.395l-99.864-99.864c-8.517-8.517-8.517-22.376 0-30.893l20.24-20.239c8.517-8.518 22.374-8.517 30.892 0l99.865 99.866c8.524 8.524 8.524 22.396 0 30.92l-20.208 20.236c-4.266 4.247-9.861 6.369-15.452 6.369zm-106.837-114.757 99.865 99.864c3.837 3.837 10.088 3.846 13.933.019l20.199-20.227c3.841-3.842 3.841-10.088.003-13.927l-99.865-99.865c-3.832-3.832-10.065-3.83-13.895 0l-20.239 20.239c-3.831 3.831-3.83 10.065 0 13.896z" fill="#032d42" fill-opacity="1" data-original-color="#2e3760ff" stroke="none" stroke-opacity="1"/></g><path d="m413.766 304.948h-99.382c-7.815 0-14.173-6.346-14.173-14.146v-99.411c0-7.8 6.358-14.146 14.173-14.146h99.382c7.815 0 14.173 6.346 14.173 14.146v99.411c0 7.8-6.358 14.146-14.173 14.146zm-99.382-115.683c-1.168 0-2.155.974-2.155 2.126v99.411c0 1.152.987 2.126 2.155 2.126h99.382c1.188 0 2.155-.953 2.155-2.126v-99.411c0-1.173-.967-2.126-2.155-2.126z" fill="#62d84e" fill-opacity="1" data-original-color="#ff695aff" stroke="none" stroke-opacity="1"/><path d="m380.006 234.62h-31.833c-3.319 0-6.009-2.69-6.009-6.01v-45.354h12.019v39.345h19.815v-39.345h12.019v45.354c0 3.319-2.69 6.01-6.009 6.01z" fill="#62d84e" fill-opacity="1" data-original-color="#ff695aff" stroke="none" stroke-opacity="1"/></g></svg>