<svg width="60" height="60" viewBox="0 0 60 60" fill="none" xmlns="http://www.w3.org/2000/svg">
<rect width="60" height="60" rx="30" fill="#EFF2F6"/>
<g clip-path="url(#clip0_3385_3600)">
<path d="M29.5 29C33.366 29 36.5 25.866 36.5 22C36.5 18.134 33.366 15 29.5 15C25.634 15 22.5 18.134 22.5 22C22.5 25.866 25.634 29 29.5 29Z" fill="#62D84E"/>
<path d="M16 37V44H22L20.8 37H16Z" stroke="#032D42" stroke-width="2" stroke-linecap="round" stroke-linejoin="round"/>
<path d="M21 37C21 37 23 33 27 33H34C34 34.0609 33.5786 35.0783 32.8284 35.8284C32.0783 36.5786 31.0609 37 30 37H27" stroke="#032D42" stroke-width="2" stroke-linecap="round" stroke-linejoin="round"/>
<path d="M30 37C31.9434 36.9908 33.8182 36.2807 35.28 35L38.76 32C39.5191 31.3453 40.4962 30.9995 41.4981 31.031C42.5 31.0625 43.4535 31.469 44.17 32.17L45 33L36.47 42.37C36.0007 42.8843 35.4292 43.295 34.7921 43.5757C34.155 43.8564 33.4662 44.0009 32.77 44H22" stroke="#032D42" stroke-width="2" stroke-linecap="round" stroke-linejoin="round"/>
<path d="M26.0312 20.8701L29.2413 23.9801L35.0013 15.1201" stroke="#032D42" stroke-width="2" stroke-linecap="round" stroke-linejoin="round"/>
</g>
<defs>
<clipPath id="clip0_3385_3600">
<rect width="32" height="32" fill="white" transform="translate(14 14)"/>
</clipPath>
</defs>
</svg>
