<svg id="Layer_1" enable-background="new 0 0 69 69" height="300" viewBox="0 0 69 69" width="300" xmlns="http://www.w3.org/2000/svg" version="1.1" xmlns:xlink="http://www.w3.org/1999/xlink" xmlns:svgjs="http://svgjs.dev/svgjs"><g width="100%" height="100%" transform="matrix(1,0,0,1,0,0)"><g><g fill="#626975"><path d="m63.74219 21.98242c0-1.53125-1.2373-2.77637-2.75781-2.77637h-8.77148v-2.15234c0-.48828-.35352-.90625-.83496-.98633l-3.60059-.60156c-.1582-.43945-.33789-.86914-.53711-1.28516l2.12598-2.97168c.28418-.39844.23926-.94434-.10645-1.29004l-4.47363-4.4668c-.34766-.3457-.88965-.3877-1.28906-.10547l-2.97168 2.125c-.41504-.19824-.84277-.37598-1.2793-.53125l-.60059-3.60449c-.08008-.48241-.49707-.83593-.98633-.83593h-6.32226c-.48926 0-.90625.35352-.98633.83594l-.60059 3.60449c-.43652.15527-.86426.33301-1.2793.53125l-2.97168-2.125c-.39746-.28223-.94043-.24023-1.28906.10547l-4.47363 4.4668c-.3457.3457-.39063.8916-.10645 1.29004l2.12793 2.97461c-.19629.41504-.375.84375-.53516 1.28223l-3.59765.60155c-.48145.08105-.83496.49805-.83496.98633v2.15234h-8.77051c-1.52539 0-2.7666 1.24512-2.7666 2.77637.001 3.55358-.00362-12.8712.00977 34.74902 0 1.52441 1.24023 2.76465 2.76465 2.76465h22.05481l-1.03187 5.00391h-3.09717c-.55273 0-1 .44727-1 1s.44727 1 1 1h17.10351c.55273 0 1-.44727 1-1s-.44727-1-1-1h-3.09813l-1.03186-5.00391h22.05481c1.52539 0 2.76563-1.24023 2.76563-2.76465-.00012-.77022-.00478-33.97877-.00489-34.74902zm-44.95215-4.08203 3.35156-.56055c.37012-.06152.67383-.3252.78809-.68262.2334-.73438.52832-1.44043.87598-2.09766.17773-.33496.15039-.74121-.07031-1.0498l-1.98536-2.77441 3.27441-3.26953 2.77637 1.98633c.31152.22168.71973.24707 1.05762.06641.65234-.35254 1.34863-.64258 2.06934-.86133.36328-.11035.63281-.41797.69531-.79297l.56054-3.36426h4.62891l.56055 3.36426c.0625.375.33203.68262.69531.79297.7207.21875 1.41699.50879 2.06934.86133.33691.18164.74609.15625 1.05762-.06641l2.77637-1.98633 3.27441 3.26953-1.98535 2.77441c-.22168.31055-.24805.71973-.06738 1.05566.35254.6543.64551 1.35547.87109 2.08398.11133.36133.41797.62793.79004.69043l3.3584.56055v4.62109l-3.3584.56055c-.37207.0625-.67871.3291-.79004.69043-.22559.72852-.51855 1.42969-.87109 2.08398-.18066.33594-.1543.74512.06738 1.05566l1.98535 2.77441-3.27441 3.26953-2.77637-1.98633c-.3125-.22363-.7207-.24805-1.05762-.06641-.65234.35254-1.34863.64258-2.06934.86133-.36328.11035-.63281.41797-.69531.79297l-.56055 3.36426h-4.62891l-.56054-3.36426c-.0625-.375-.33203-.68262-.69531-.79297-.7207-.21875-1.41699-.50879-2.06934-.86133-.33789-.18066-.74609-.15625-1.05762.06641l-2.77637 1.98633-3.27441-3.26951 1.98535-2.77441c.2207-.30859.24805-.71484.07031-1.0498-.34766-.65723-.64258-1.36328-.87598-2.09766-.11426-.35742-.41797-.62109-.78809-.68262l-3.35156-.56055v-4.62109zm-11.53711 4.08203c0-.42773.34375-.77637.7666-.77637h8.77051v2.16211c0 .48828.35352.90527.83496.98633l3.59766.60156c.16016.43848.33887.86719.53516 1.28223l-2.12793 2.97461c-.28418.39844-.23926.94434.10645 1.29004l4.47363 4.4668c.34863.34668.8916.38867 1.28906.10547l2.97168-2.125c.41504.19824.84277.37598 1.2793.53125l.60059 3.60449c.08008.48242.49707.83594.98633.83594h6.32226c.48926 0 .90625-.35352.98633-.83594l.60059-3.60449c.43652-.15527.86426-.33301 1.2793-.53125l2.97168 2.125c.39941.2832.94141.24121 1.28906-.10547l4.47363-4.4668c.3457-.3457.39063-.8916.10645-1.29004l-2.12598-2.97168c.19922-.41602.37891-.8457.53711-1.28516l3.60059-.60156c.48145-.08008.83496-.49805.83496-.98633v-2.16211h8.77148c.41797 0 .75781.34863.75781.77637v28.10547h-54.48927zm30.66309 42.51758h-6.82324l1.03125-5.00391h4.76074zm23.83105-7.76855c0 .42188-.34375.76465-.76563.76465-36.86322 0-11.18015 0-52.9541 0-.42187 0-.76465-.34277-.76465-.76465v-4.63965h54.48438z" fill="#032d42" fill-opacity="1" data-original-color="#626975ff" stroke="none" stroke-opacity="1"/><path d="m57.25488 55.50391c.38441.38233.99783.39108 1.41016 0 .43559-.48767.34266-1.07727 0-1.41992-.38651-.38652-1.03871-.37144-1.41016 0-.23372.2108-.3998.65555-.21973 1.08984.04981.12012.12012.22949.21973.33008z" fill="#032d42" fill-opacity="1" data-original-color="#626975ff" stroke="none" stroke-opacity="1"/><path d="m55.01563 55.50391c.41206-.43542.38697-1.03295 0-1.41992-.39315-.38892-1.04018-.36998-1.41016 0-.37294.36932-.42492.995 0 1.41992.37313.37313.98701.39927 1.41016 0z" fill="#032d42" fill-opacity="1" data-original-color="#626975ff" stroke="none" stroke-opacity="1"/><path d="m49.95508 55.49414c.36887.38891 1.02248.40874 1.41016 0 .38809-.35385.40244-1.00772 0-1.41016-.38651-.38652-1.03871-.37144-1.41016 0-.42223.42224-.36672 1.0758 0 1.41016z" fill="#032d42" fill-opacity="1" data-original-color="#626975ff" stroke="none" stroke-opacity="1"/></g><g><g><path d="m34.50164 30.27642c-5.55282 0-10.07102-4.5182-10.07102-10.0716 0-5.54701 4.5182-10.0594 10.07102-10.0594s10.07101 4.51239 10.07101 10.0594c.00001 5.5534-4.51819 10.0716-10.07101 10.0716z" fill="#62d84e" fill-opacity="1" data-original-color="#f69a8bff" stroke="none" stroke-opacity="1"/></g><g><path d="m34.49707 25.56348c-1.74902 0-3.17187-1.42676-3.17187-3.18066 0-.55273.44727-1 1-1s1 .44727 1 1c0 .65137.52539 1.18066 1.17188 1.18066.65137 0 1.18066-.5293 1.18066-1.18066 0-.64648-.5293-1.17188-1.18066-1.17188-1.74902 0-3.17187-1.42676-3.17187-3.18066 0-1.74902 1.42285-3.17188 3.17187-3.17188 1.75391 0 3.18066 1.42285 3.18066 3.17188 0 .55273-.44727 1-1 1s-1-.44727-1-1c0-.64648-.5293-1.17188-1.18066-1.17188-.64648 0-1.17188.52539-1.17188 1.17188 0 .65137.52539 1.18066 1.17188 1.18066 1.75391 0 3.18066 1.42285 3.18066 3.17188-.00001 1.7539-1.42676 3.18066-3.18067 3.18066z" fill="#ffffff" fill-opacity="1" data-original-color="#ffffffff" stroke="none" stroke-opacity="1"/></g><g><path d="m34.49707 16.8584c-.55273 0-1-.44727-1-1v-1.24121c0-.55273.44727-1 1-1s1 .44727 1 1v1.24121c0 .55273-.44727 1-1 1z" fill="#ffffff" fill-opacity="1" data-original-color="#ffffffff" stroke="none" stroke-opacity="1"/></g><g><path d="m34.49707 26.80469c-.55273 0-1-.44727-1-1v-1.24121c0-.55273.44727-1 1-1s1 .44727 1 1v1.24121c0 .55273-.44727 1-1 1z" fill="#ffffff" fill-opacity="1" data-original-color="#ffffffff" stroke="none" stroke-opacity="1"/></g></g></g></g></svg>