<svg id="Layer_1" viewBox="0 0 512 512" xmlns="http://www.w3.org/2000/svg" data-name="Layer 1" width="300" height="300" version="1.1" xmlns:xlink="http://www.w3.org/1999/xlink" xmlns:svgjs="http://svgjs.dev/svgjs"><g width="100%" height="100%" transform="matrix(1,0,0,1,0,0)"><path d="m478.194 400.148h-12.019v-211.919c0-9.925-8.075-17.999-18-17.999h-36.595v-12.02h36.595c16.553 0 30.019 13.467 30.019 30.019zm-361.531-119.423h-12.019v-92.495c0-16.552 13.466-30.019 30.019-30.019h36.595v12.02h-36.595c-9.925 0-18 8.074-18 17.999z" fill="#032d42" fill-opacity="1" data-original-color="#2e3760ff" stroke="none" stroke-opacity="1"/><path d="m466.884 464.382h-261.582v-12.02h261.582c12.739 0 23.103-10.363 23.103-23.103v-23.102h-152.136v11.99c0 3.319-2.69 6.01-6.009 6.01h-95.5c-3.319 0-6.009-2.69-6.009-6.01v-11.99h-25.568v-12.02h31.578c3.319 0 6.009 2.69 6.009 6.01v11.99h83.481v-11.99c0-3.319 2.69-6.01 6.009-6.01h164.154c3.319 0 6.009 2.69 6.009 6.01v29.111c0 19.366-15.755 35.122-35.121 35.122z" fill="#032d42" fill-opacity="1" data-original-color="#2e3760ff" stroke="none" stroke-opacity="1"/><path d="m437.516 435.27h-29.48c-3.319 0-6.009-2.69-6.009-6.01s2.69-6.01 6.009-6.01h29.48c3.319 0 6.009 2.69 6.009 6.01s-2.69 6.01-6.009 6.01z" fill="#032d42" fill-opacity="1" data-original-color="#2e3760ff" stroke="none" stroke-opacity="1"/><g fill="#ff695a"><path d="m310.042 291.391h-37.247c-3.057 0-5.627-2.296-5.971-5.333l-2.623-23.147c-7.879-2.186-15.451-5.323-22.599-9.365l-18.244 14.514c-2.392 1.901-5.829 1.708-7.99-.454l-26.334-26.333c-2.161-2.16-2.356-5.599-.454-7.99l14.51-18.24c-4.039-7.127-7.176-14.691-9.363-22.579l-23.152-2.647c-3.035-.348-5.327-2.916-5.327-5.971v-37.219c0-3.055 2.292-5.623 5.327-5.971l23.152-2.647c2.187-7.887 5.324-15.453 9.363-22.579l-14.51-18.239c-1.903-2.392-1.708-5.83.453-7.99l26.334-26.334c2.161-2.161 5.599-2.355 7.991-.454l18.244 14.514c7.147-4.042 14.719-7.18 22.599-9.365l2.623-23.147c.344-3.037 2.914-5.333 5.971-5.333h37.247c3.057 0 5.627 2.296 5.971 5.333l2.623 23.146c7.871 2.181 15.443 5.319 22.6 9.367l18.244-14.514c2.391-1.901 5.829-1.707 7.991.454l26.334 26.334c2.161 2.16 2.356 5.599.453 7.99l-14.51 18.239c4.039 7.125 7.176 14.691 9.363 22.579l23.152 2.647c3.035.348 5.327 2.916 5.327 5.971v37.219c0 3.055-2.292 5.623-5.327 5.971l-23.152 2.647c-2.188 7.888-5.325 15.453-9.363 22.579l14.511 18.24c1.902 2.392 1.707 5.83-.454 7.99l-26.334 26.333c-2.161 2.162-5.599 2.355-7.99.454l-18.244-14.514c-7.156 4.048-14.729 7.187-22.6 9.367l-2.623 23.146c-.344 3.037-2.914 5.333-5.971 5.333zm-31.88-12.02h26.513l2.486-21.937c.287-2.529 2.136-4.604 4.617-5.178 9.451-2.187 18.461-5.92 26.782-11.097 2.158-1.343 4.927-1.181 6.916.399l17.289 13.754 18.749-18.748-13.754-17.289c-1.584-1.991-1.742-4.765-.395-6.924 5.16-8.266 8.892-17.266 11.093-26.749.575-2.477 2.646-4.323 5.171-4.612l21.942-2.509v-26.496l-21.942-2.509c-2.526-.289-4.597-2.136-5.171-4.612-2.201-9.484-5.933-18.484-11.093-26.749-1.348-2.159-1.189-4.933.395-6.924l13.754-17.289-18.749-18.748-17.289 13.754c-1.989 1.581-4.758 1.742-6.916.399-8.32-5.177-17.331-8.91-26.782-11.097-2.48-.573-4.33-2.648-4.617-5.178l-2.486-21.937h-26.513l-2.486 21.937c-.287 2.528-2.134 4.603-4.613 5.177-9.469 2.197-18.48 5.931-26.786 11.098-2.157 1.345-4.927 1.183-6.916-.399l-17.289-13.754-18.749 18.748 13.753 17.289c1.584 1.991 1.743 4.765.395 6.923-5.16 8.268-8.892 17.268-11.092 26.75-.575 2.477-2.646 4.323-5.171 4.612l-21.943 2.509v26.496l21.943 2.509c2.526.289 4.597 2.136 5.171 4.612 2.2 9.482 5.932 18.482 11.092 26.75 1.348 2.158 1.189 4.932-.395 6.923l-13.754 17.289 18.749 18.748 17.289-13.754c1.988-1.581 4.757-1.743 6.916-.399 8.305 5.167 17.317 8.9 26.786 11.098 2.479.574 4.326 2.648 4.613 5.177l2.486 21.937z" fill="#62d84e" fill-opacity="1" data-original-color="#ff695aff" stroke="none" stroke-opacity="1"/><path d="m291.419 231.58c-36.59 0-66.359-29.769-66.359-66.359s29.769-66.331 66.359-66.331 66.359 29.756 66.359 66.331-29.769 66.359-66.359 66.359zm0-120.671c-29.963 0-54.34 24.364-54.34 54.312s24.377 54.34 54.34 54.34 54.34-24.377 54.34-54.34-24.377-54.312-54.34-54.312z" fill="#62d84e" fill-opacity="1" data-original-color="#ff695aff" stroke="none" stroke-opacity="1"/><path d="m201.872 472.922h-182.437c-5.205 0-9.439-4.235-9.439-9.44v-55.19c0-28.234 22.073-51.415 50.252-52.774l.579 12.006c-21.764 1.049-38.812 18.957-38.812 40.769v52.611h177.278v-52.611c0-21.812-17.049-39.72-38.813-40.769l.579-12.006c28.179 1.359 50.252 24.54 50.252 52.774v55.19c0 5.205-4.234 9.44-9.439 9.44z" fill="#62d84e" fill-opacity="1" data-original-color="#ff695aff" stroke="none" stroke-opacity="1"/><path d="m110.654 398.994c-33.98 0-61.625-27.658-61.625-61.654s27.645-61.625 61.625-61.625 61.625 27.646 61.625 61.625-27.645 61.654-61.625 61.654zm0-111.26c-27.353 0-49.606 22.253-49.606 49.605s22.253 49.635 49.606 49.635 49.606-22.266 49.606-49.635-22.253-49.605-49.606-49.605z" fill="#62d84e" fill-opacity="1" data-original-color="#ff695aff" stroke="none" stroke-opacity="1"/></g></g></svg>