<svg id="Layer_1" enable-background="new 0 0 512 512" viewBox="0 0 512 512" xmlns="http://www.w3.org/2000/svg" width="300" height="300" version="1.1" xmlns:xlink="http://www.w3.org/1999/xlink" xmlns:svgjs="http://svgjs.dev/svgjs"><g width="100%" height="100%" transform="matrix(1,0,0,1,0,0)"><g><path d="m502.68 303.69c-10.06-18.47-33.27-25.32-51.74-15.28l-24.84 13.52c-.4-.91-.84-1.81-1.32-2.69-10.06-18.46-33.27-25.32-51.76-15.28l-42.6 23.19c-29.36-9.47-58.73-18.93-88.12-28.4-29.9-9.62-59.03-6.88-86.58 8.13l-74 40.26-8.26-14.34c-4.36-7.56-14.07-10.18-21.68-5.83l-39.14 22.56c-7.56 4.35-10.18 14.07-5.85 21.66 0 .01.01.02.01.02l88.05 152.86c2.14 3.69 5.58 6.32 9.7 7.42 1.36.36 2.73.54 4.09.54 2.75 0 5.46-.72 7.88-2.13l39.12-22.52c3.67-2.1 6.31-5.51 7.42-9.61 1.11-4.11.56-8.4-1.56-12.08l-7.94-13.78 4.25-2.32c16.54-8.99 34-10.63 51.89-4.85l37.89 12.19c8.68 2.8 17.27 4.2 25.75 4.2 13.24 0 26.19-3.41 38.7-10.23l175.34-95.44c8.93-4.85 15.44-12.91 18.34-22.71 2.9-9.82 1.82-20.13-3.04-29.06zm-122.01-5.65c10.73-5.82 24.21-1.85 30.04 8.85.49.9.88 1.82 1.24 2.75l-42.83 23.31c-3.65-8.13-10.06-14.82-18.12-18.76zm-272.03 197.9-87.9-152.6 38.9-22.42 87.9 152.63zm381.73-167.75c-1.68 5.69-5.45 10.37-10.63 13.18l-175.35 95.44c-16.52 9-33.98 10.63-51.89 4.85l-37.89-12.19c-22.23-7.17-43.91-5.14-64.46 6.03l-4.59 2.5-55.86-96.97 73.67-40.07c23.55-12.84 48.46-15.17 74.02-6.95 34.58 11.14 69.14 22.28 103.7 33.42 8.12 2.61 14.07 9.81 15.17 18.34.04.28.09.55.16.82-.02.31-.03.63-.02.95.13 2.59-.22 5.21-1.01 7.72-3.75 11.61-16.26 18.02-27.88 14.29-14.73-4.74-29.45-9.49-44.17-14.23-14.6-4.71-29.2-9.41-43.81-14.11-4.21-1.36-8.72.96-10.08 5.17-1.35 4.21.96 8.72 5.17 10.08 14.61 4.7 29.21 9.41 43.8 14.11 14.73 4.75 29.45 9.49 44.19 14.24 3.87 1.24 7.79 1.83 11.65 1.83 16.13 0 31.17-10.31 36.4-26.5 1.11-3.53 1.7-7.13 1.77-10.74l86.17-46.9c10.71-5.83 24.18-1.85 30.02 8.87 2.81 5.15 3.43 11.13 1.75 16.82z" fill="#21324d" fill-opacity="1" data-original-color="#21324dff" stroke="none" stroke-opacity="1"/><path d="m498.59 112.68-9.79-3.17c-1.72-6-4.11-11.74-7.1-17.12l4.65-9.15c2.52-4.89 1.61-10.78-2.28-14.66l-11-11c-3.88-3.88-9.77-4.8-14.63-2.3l-9.17 4.67c-5.4-2.99-11.14-5.37-17.15-7.1l-3.17-9.79c-1.69-5.21-6.5-8.72-11.98-8.72h-15.53c-3.57 0-6.84 1.49-9.17 3.96-24.72-24.48-58.02-38.32-93.16-38.32-45.17 0-85.12 22.73-109.04 57.35-.24.28-.47.58-.67.9-.1.16-.18.32-.27.48-14.18 21.09-22.46 46.45-22.46 73.72s8.28 52.63 22.46 73.72c.09.16.17.32.27.48.21.33.44.64.69.93 23.92 34.6 63.86 57.33 109.02 57.33 35.17 0 68.47-13.83 93.17-38.31 2.32 2.47 5.6 3.96 9.16 3.96h15.53c5.48 0 10.3-3.5 11.98-8.71l3.18-9.79c5.95-1.71 11.7-4.08 17.15-7.09l9.21 4.71c4.88 2.44 10.73 1.49 14.57-2.35l11-11c3.89-3.89 4.8-9.76 2.28-14.62l-4.66-9.17c3.02-5.44 5.41-11.21 7.11-17.14l9.79-3.17c5.21-1.69 8.72-6.5 8.72-11.98v-15.53c.01-5.52-3.49-10.33-8.71-12.02zm-114.01-59.32c-5.38 1.67-10.56 3.88-15.43 6.59l-9.17-4.66c-3.31-1.71-7.08-1.83-10.38-.52-4.45-13.54-9.98-24.88-16.31-33.67 19.47 5.97 37.18 17.01 51.29 32.26zm-47.85 39.03c-3.01 5.4-5.39 11.15-7.1 17.11l-9.79 3.17c-5.14 1.66-8.61 6.36-8.71 11.74h-4.01v-30.41c9.94-.27 19.74-1.02 29.26-2.28zm-153.76 48.05h54.49c.33 12.58 1.45 24.82 3.31 36.44-15.95 3.53-30.27 8.49-41.92 14.66-8.98-15.18-14.62-32.55-15.88-51.1zm15.87-67.12c11.66 6.18 25.98 11.15 41.92 14.68-1.85 11.61-2.97 23.85-3.31 36.42h-54.49c1.27-18.55 6.91-35.92 15.88-51.1zm135.52-4.75c-2.12 2.12-3.36 4.86-3.63 7.72-7.71.9-15.61 1.47-23.61 1.69v-59.93c11.39 5.78 22.22 23.44 29.31 48.44zm-43.25-50.47v59.89c-10.89-.31-21.49-1.24-31.55-2.74 7.04-30.07 19.17-50.75 31.55-57.15zm0 75.91v30.41h-37.64c.33-11.9 1.39-23.11 3.03-33.48 11.07 1.7 22.71 2.75 34.61 3.07zm-37.64 46.43h37.64v30.44c-11.91.32-23.54 1.37-34.61 3.06-1.64-10.37-2.7-21.59-3.03-33.5zm37.64 46.46v59.86c-12.38-6.4-24.5-27.07-31.55-57.12 10.06-1.5 20.67-2.43 31.55-2.74zm16.02 59.91v-59.9c8 .23 15.89.79 23.6 1.69.27 2.83 1.51 5.56 3.63 7.69l2.07 2.08c-7.08 25-17.91 42.66-29.3 48.44zm29.26-73.65c-9.52-1.25-19.32-2.01-29.26-2.28v-30.45h4.01c.1 5.38 3.57 10.08 8.7 11.74l9.79 3.18c1.72 5.99 4.11 11.75 7.1 17.14zm-71.5-152.02c-4.06 5.66-7.8 12.38-11.14 20.13-4.03 9.32-7.36 19.78-9.95 31.06-13.6-3.03-25.78-7.19-35.8-12.29 14.45-18.16 34.2-31.91 56.89-38.9zm-56.89 183.68c10.01-5.1 22.2-9.24 35.8-12.27 2.59 11.27 5.92 21.74 9.95 31.05 3.35 7.74 7.08 14.47 11.14 20.12-22.7-6.99-42.44-20.75-56.89-38.9zm125.28 38.94c6.34-8.79 11.87-20.13 16.32-33.68 3.29 1.31 7.05 1.21 10.36-.47l9.17-4.68c4.94 2.73 10.13 4.93 15.45 6.58-14.1 15.25-31.81 26.28-51.3 32.25zm158.01-106.05-9.24 3c-4.09 1.36-7.09 4.53-8.25 8.77-1.52 5.82-3.83 11.39-6.92 16.65-2.16 3.77-2.26 8.15-.3 11.99l4.38 8.62-7.47 7.47-8.58-4.39c-3.85-1.97-8.38-1.82-12.05.35-5.2 3.02-10.79 5.33-16.61 6.86-.02.01-.05.01-.07.02-4.16 1.13-7.33 4.13-8.71 8.29l-2.98 9.17h-10.56l-3-9.23c-1.36-4.09-4.53-7.09-8.77-8.25-5.8-1.52-11.38-3.82-16.54-6.83-3.78-2.24-8.2-2.38-12.11-.38l-8.59 4.38-7.47-7.47.57-1.12c.05-.1.1-.19.15-.29l3.67-7.18c1.97-3.86 1.86-8.24-.34-12.08-3.04-5.18-5.35-10.76-6.89-16.66-1.14-4.16-4.13-7.33-8.29-8.71l-9.17-2.98v-10.56l9.11-2.95c4.09-1.29 7.21-4.55 8.38-8.81 1.54-5.85 3.85-11.42 6.86-16.54.02-.03.04-.06.05-.09 2.14-3.75 2.24-8.26.29-12.01l-3.66-7.16c-.06-.12-.12-.23-.18-.34l-.56-1.1 7.47-7.47 8.61 4.37c3.86 1.97 8.23 1.86 12.08-.34 5.18-3.04 10.76-5.35 16.52-6.86 4.13-1.05 7.43-4.11 8.81-8.19.01-.04.02-.07.04-.11l2.98-9.2h10.56l2.97 9.2c.01.04.02.08.04.11 1.39 4.08 4.68 7.14 8.75 8.17 5.84 1.54 11.42 3.85 16.66 6.92 3.77 2.16 8.14 2.26 12 .3l8.6-4.38 7.46 7.46-4.35 8.57c-1.98 3.8-1.88 8.31.27 12.06.02.03.04.06.05.09 3.02 5.12 5.33 10.69 6.88 16.61 1.13 4.16 4.23 7.42 8.27 8.72l9.2 2.98v10.55zm-82.07-54.31c-27.05 0-49.05 21.99-49.05 49.02 0 27.05 22 49.05 49.05 49.05s49.05-22.01 49.05-49.05c0-27.02-22-49.02-49.05-49.02zm0 82.07c-18.22 0-33.04-14.82-33.04-33.04 0-18.2 14.82-33.01 33.04-33.01s33.04 14.81 33.04 33.01c-.01 18.22-14.83 33.04-33.04 33.04z" fill="#62d84e" fill-opacity="1" data-original-color="#ff5633ff" stroke="none" stroke-opacity="1"/></g></g></svg>