<svg width="60" height="60" viewBox="0 0 60 60" fill="none" xmlns="http://www.w3.org/2000/svg">
<rect width="60" height="60" rx="30" fill="#EFF2F6"/>
<g clip-path="url(#clip0_3385_3610)">
<path d="M41.8728 28.4598L31.5328 18.1298L33.3628 16.2998L43.6928 26.6398L41.8728 28.4598ZM38.8728 30.8898C39.3728 30.3898 39.6728 29.8898 39.1728 29.3698L30.6228 20.8598C30.1228 20.3598 29.6228 20.6598 29.1028 21.1698C28.9822 21.2897 28.8864 21.4323 28.8211 21.5893C28.7558 21.7463 28.7221 21.9147 28.7221 22.0848C28.7221 22.2549 28.7558 22.4233 28.8211 22.5803C28.8864 22.7374 28.9822 22.8799 29.1028 22.9998L37.0028 30.8998C37.2476 31.1397 37.5772 31.2732 37.9199 31.2714C38.2626 31.2695 38.5907 31.1324 38.8328 30.8898H38.8728ZM28.5828 41.8898L18.2028 31.5398L16.3828 33.3598L26.7128 43.6998L28.5828 41.8898ZM21.2428 29.1098C20.7428 29.6098 20.4328 30.1098 20.9428 30.6298L29.4528 39.1398C29.9528 39.6398 30.4528 39.3398 30.9728 38.8298C31.0954 38.7119 31.1935 38.5709 31.2615 38.415C31.3294 38.259 31.3658 38.0911 31.3686 37.921C31.3713 37.751 31.3405 37.582 31.2777 37.4239C31.2149 37.2658 31.1215 37.1217 31.0028 36.9998L23.1028 29.0998C22.9811 28.9765 22.8359 28.8787 22.6758 28.8123C22.5157 28.7459 22.344 28.7122 22.1707 28.7131C21.9974 28.7141 21.8261 28.7496 21.6667 28.8178C21.5074 28.8859 21.3632 28.9852 21.2428 29.1098Z" fill="#62D84E"/>
<path d="M44.0003 23.55C43.7351 23.55 43.4807 23.6554 43.2932 23.8429C43.1057 24.0304 43.0003 24.2848 43.0003 24.55C42.9253 25.8768 42.3833 27.1343 41.4703 28.1C40.9313 28.6126 40.2871 29.0016 39.5825 29.2399C38.8779 29.4782 38.1298 29.5601 37.3903 29.48L31.0003 29.05L30.5703 22.61C30.4942 21.8707 30.578 21.1238 30.8162 20.4198C31.0543 19.7158 31.4411 19.0713 31.9503 18.53C32.9047 17.6241 34.1471 17.0826 35.4603 17C35.7255 17 35.9799 16.8946 36.1674 16.7071C36.355 16.5196 36.4603 16.2652 36.4603 16C36.4603 15.7348 36.355 15.4804 36.1674 15.2929C35.9799 15.1054 35.7255 15 35.4603 15C33.5882 15.0611 31.8058 15.8168 30.4603 17.12C29.7485 17.8623 29.2056 18.7498 28.869 19.7215C28.5325 20.6933 28.4101 21.7265 28.5103 22.75L29.0003 28.94L22.8303 28.53C21.8016 28.4375 20.7651 28.5683 19.7917 28.9135C18.8183 29.2587 17.9309 29.8101 17.1903 30.53C15.8919 31.8787 15.137 33.6591 15.0703 35.53C15.0703 35.7952 15.1757 36.0496 15.3632 36.2371C15.5507 36.4246 15.8051 36.53 16.0703 36.53C16.3355 36.53 16.5899 36.4246 16.7774 36.2371C16.965 36.0496 17.0703 35.7952 17.0703 35.53C17.1156 34.1805 17.6444 32.8922 18.5603 31.9C19.0997 31.388 19.744 30.9994 20.4485 30.7611C21.153 30.5228 21.9009 30.4405 22.6403 30.52L29.0703 30.95L29.5003 37.39C29.5745 38.1291 29.4897 38.8756 29.2517 39.5793C29.0136 40.283 28.6279 40.9276 28.1203 41.47C27.1546 42.383 25.8971 42.925 24.5703 43C24.3051 43 24.0507 43.1054 23.8632 43.2929C23.6757 43.4804 23.5703 43.7348 23.5703 44C23.5703 44.2652 23.6757 44.5196 23.8632 44.7071C24.0507 44.8946 24.3051 45 24.5703 45C26.4425 44.9389 28.2248 44.1832 29.5703 42.88C30.2889 42.1406 30.8395 41.2548 31.1847 40.2832C31.5298 39.3117 31.6614 38.277 31.5703 37.25L31.1503 31.06L37.3303 31.47C37.5303 31.47 37.7403 31.47 37.9403 31.47C39.8056 31.489 41.6027 30.7702 42.9403 29.47C44.2382 28.1219 44.99 26.3404 45.0503 24.47C45.0298 24.21 44.9086 23.9683 44.7124 23.7965C44.5163 23.6246 44.2607 23.5362 44.0003 23.55Z" fill="#032D42"/>
</g>
<defs>
<clipPath id="clip0_3385_3610">
<rect width="32" height="32" fill="white" transform="translate(14 14)"/>
</clipPath>
</defs>
</svg>
