<svg id="Layer_1" viewBox="0 0 512 512" xmlns="http://www.w3.org/2000/svg" data-name="Layer 1" width="300" height="300" version="1.1" xmlns:xlink="http://www.w3.org/1999/xlink" xmlns:svgjs="http://svgjs.dev/svgjs"><g width="100%" height="100%" transform="matrix(1,0,0,1,0,0)"><path d="m300.333 472.214c-4.932 0-9.836-.85-14.599-2.495l-106.583-36.765c-7.37-2.183-9.468-2.381-14.74.17l-17.745 8.617c-3.487 1.701-7.682.255-9.354-3.231-1.701-3.487-.227-7.682 3.231-9.354l17.745-8.617c9.921-4.847 16.356-3.515 25.001-.964.085.028.17.057.284.085l106.724 36.851c7.767 2.693 16.157 2.154 23.584-1.502l165.033-80.362c5.357-2.608 9.383-7.143 11.339-12.841s1.616-11.764-.992-17.121c-5.414-11.112-18.879-15.76-29.99-10.346l-121.011 58.932c-13.181 6.435-18.425 7.823-27.751 4.62l-12.756-4.337c-.028 0-.057-.028-.085-.028-3.657-1.247-5.613-5.244-4.337-8.873 1.219-3.657 5.188-5.641 8.873-4.394l.057.029c9.836 3.316 20.126-1.587 23.442-11.197 1.616-4.734 1.304-9.836-.907-14.372s-6.038-7.937-10.772-9.581l-107.036-36.879c-.113-.057-.255-.113-.368-.17-5.754-2.353-13.635-2.126-19.134.567l-85.379 41.556c-3.458 1.701-7.654.255-9.354-3.231-1.701-3.458-.255-7.654 3.232-9.354l85.351-41.556c9.042-4.422 20.948-4.819 30.416-.992l106.866 36.822c8.249 2.891 14.938 8.816 18.765 16.696 3.855 7.909 4.394 16.809 1.531 25.058-.567 1.672-1.247 3.231-2.041 4.705l116.277-56.608c18.057-8.787 39.912-1.247 48.699 16.81 4.252 8.702 4.847 18.595 1.644 27.808-3.203 9.241-9.751 16.639-18.454 20.863l-165.005 80.362c-6.265 3.062-12.983 4.621-19.701 4.621z" fill="#032d42" fill-opacity="1" data-original-color="#115181ff" stroke="none" stroke-opacity="1"/><path d="m403.117 22.809c-21.43 0-38.891 17.461-38.891 38.891s17.461 38.863 38.891 38.863 38.891-17.433 38.891-38.863-17.433-38.891-38.891-38.891zm0 91.758c-29.168 0-52.895-23.726-52.895-52.866s23.726-52.895 52.895-52.895 52.895 23.726 52.895 52.895-23.726 52.866-52.895 52.866z" fill="#032d42" fill-opacity="1" data-original-color="#115181ff" stroke="none" stroke-opacity="1"/><path d="m374.601 269.537h57.062v-89.858c0-3.884 3.118-7.002 7.001-7.002 3.855 0 7.002 3.118 7.002 7.002v53.802c0 10.035 8.731 12.699 13.89 12.699 1.361 0 13.266-.312 13.266-11.906v-60.548c0-15.562-5.528-36.255-53.461-36.255h-32.457c-47.934 0-53.49 20.693-53.49 36.255v60.548c0 11.594 11.934 11.906 13.294 11.906 5.131 0 13.89-2.665 13.89-12.699v-53.802c0-3.884 3.146-7.002 7.002-7.002s7.001 3.118 7.001 7.002zm57.09 14.003h-57.146c-7.682 0-13.947-5.896-13.947-13.153v-13.464c-4.252 2.154-9.099 3.288-13.89 3.288-13.578 0-27.298-8.929-27.298-25.937v-60.548c0-19.219 7.852-33.194 23.357-41.528 10.942-5.868 25.342-8.731 44.135-8.731h32.457c18.765 0 33.194 2.863 44.107 8.731 15.505 8.334 23.357 22.309 23.357 41.528v60.548c0 17.008-13.72 25.937-27.269 25.937-4.791 0-9.638-1.134-13.89-3.288v13.464c0 7.257-6.265 13.153-13.975 13.153z" fill="#032d42" fill-opacity="1" data-original-color="#115181ff" stroke="none" stroke-opacity="1"/><g fill="#ea4b23"><path d="m234.938 106.545q0 .029.028.029zm-55.105 106.952h9.666c.028-.085.057-.227.085-.34l2.948-12.983c.595-2.523 2.495-4.507 4.989-5.187 3.799-1.049 7.512-2.58 10.97-4.564 2.268-1.304 5.017-1.247 7.2.142l11.282 7.087c.113.085.227.113.34.17l6.832-6.803c-.057-.085-.114-.198-.198-.312l-7.087-11.282c-1.389-2.154-1.446-4.932-.17-7.172 1.984-3.458 3.515-7.172 4.564-11.027.68-2.494 2.665-4.422 5.216-4.989l12.954-2.948c.142-.028.255-.057.369-.085v-9.666c-.114-.028-.227-.057-.369-.085l-12.954-2.948c-2.494-.567-4.479-2.466-5.187-4.932-1.105-3.94-2.636-7.654-4.592-11.083-1.275-2.239-1.219-5.017.17-7.2l7.087-11.225c.057-.114.113-.227.17-.312l-6.831-6.831c-.085.028-.17.113-.283.17l-11.31 7.087c-2.183 1.389-4.932 1.446-7.2.142-3.373-1.928-7.087-3.458-11.027-4.564-2.466-.708-4.365-2.693-4.932-5.187l-2.948-12.983c-.028-.142-.057-.255-.085-.34h-9.666c-.028.114-.057.227-.085.34l-2.948 12.983c-.567 2.494-2.466 4.479-4.961 5.187-3.883 1.077-7.597 2.636-11.055 4.592-2.239 1.276-4.989 1.219-7.2-.17l-11.225-7.087c-.142-.057-.255-.142-.34-.17l-6.832 6.831c.028.085.085.17.17.284l7.115 11.282c1.389 2.211 1.446 4.961.142 7.228-1.956 3.458-3.515 7.143-4.564 10.97-.68 2.494-2.665 4.422-5.188 4.989l-12.983 2.948c-.113.028-.227.057-.34.085v9.666c.113.028.227.057.34.085l12.983 2.948c2.523.567 4.535 2.495 5.188 4.989 1.049 3.77 2.579 7.483 4.592 11.027 1.276 2.239 1.19 5.017-.17 7.2l-7.115 11.253c-.085.114-.142.227-.17.312l6.832 6.831c.113-.085.198-.113.34-.198l11.225-7.087c2.211-1.361 4.961-1.446 7.2-.17 3.458 1.956 7.172 3.515 11.055 4.592 2.495.708 4.394 2.693 4.961 5.187l2.948 12.983c.028.142.057.255.085.34zm10.772 14.003h-11.906c-6.094 0-11.055-4.394-12.614-11.225l-2.041-9.071c-2.183-.765-4.309-1.644-6.378-2.636l-7.852 4.932c-5.981 3.742-12.586 3.345-16.895-.964l-8.419-8.391c-4.337-4.394-4.705-11.027-.992-16.923l4.96-7.852c-1.02-2.069-1.899-4.223-2.636-6.378l-9.071-2.041c-6.832-1.559-11.225-6.52-11.225-12.643v-11.877c0-6.123 4.394-11.083 11.225-12.643l9.071-2.041c.737-2.183 1.644-4.309 2.636-6.378l-4.96-7.852c-3.742-5.925-3.345-12.558.964-16.895l8.447-8.419c4.309-4.309 10.913-4.677 16.866-.964l7.88 4.932c2.069-.992 4.195-1.871 6.378-2.636l2.041-9.042c1.559-6.832 6.52-11.253 12.614-11.253h11.906c6.123 0 11.083 4.422 12.643 11.225l2.069 9.071c2.183.794 4.309 1.673 6.35 2.636l7.88-4.932c5.925-3.77 12.558-3.373 16.895 1.02l8.391 8.362c4.337 4.309 4.734 10.942.964 16.895l-4.932 7.852c.992 2.041 1.871 4.167 2.636 6.378l9.042 2.041c6.832 1.559 11.254 6.52 11.254 12.643v11.877c0 6.123-4.422 11.083-11.254 12.643l-9.042 2.041c-.765 2.183-1.644 4.309-2.636 6.378l4.932 7.852c3.742 5.925 3.373 12.586-.964 16.923l-8.447 8.391c-4.28 4.337-10.913 4.734-16.866.964l-7.852-4.932c-2.069.992-4.195 1.899-6.35 2.636l-2.069 9.071c-1.559 6.832-6.52 11.225-12.643 11.225z" fill="#62d84e" fill-opacity="1" data-original-color="#ea4b23ff" stroke="none" stroke-opacity="1"/><path d="m184.651 133.587c-8.135 0-14.769 6.633-14.769 14.797s6.633 14.768 14.769 14.768 14.797-6.633 14.797-14.768-6.633-14.797-14.797-14.797zm0 43.568c-15.874 0-28.772-12.898-28.772-28.771s12.898-28.8 28.772-28.8 28.8 12.926 28.8 28.8-12.926 28.771-28.8 28.771z" fill="#62d84e" fill-opacity="1" data-original-color="#ea4b23ff" stroke="none" stroke-opacity="1"/><path d="m78.324 174.605c-3.345 0-6.321-2.41-6.917-5.811-1.105-6.491-1.672-13.153-1.672-19.871 0-39.855 20.211-76.309 54.028-97.484 3.288-2.069 7.597-1.077 9.638 2.211 2.069 3.288 1.077 7.597-2.211 9.638-29.707 18.595-47.452 50.627-47.452 85.635 0 5.896.51 11.792 1.502 17.49.652 3.798-1.899 7.427-5.726 8.079-.397.085-.794.114-1.19.114z" fill="#62d84e" fill-opacity="1" data-original-color="#ea4b23ff" stroke="none" stroke-opacity="1"/><path d="m184.651 263.868c-32.4 0-63.468-13.776-85.209-37.814-2.608-2.863-2.381-7.313.482-9.893 2.891-2.58 7.285-2.381 9.893.482 19.105 21.118 46.403 33.222 74.835 33.222s55.729-12.104 74.863-33.222c2.608-2.863 7.03-3.061 9.893-.482 2.863 2.608 3.09 7.03.482 9.893-21.799 24.038-52.866 37.814-85.238 37.814z" fill="#62d84e" fill-opacity="1" data-original-color="#ea4b23ff" stroke="none" stroke-opacity="1"/><path d="m292.679 158.39h-.114c-3.883-.057-6.945-3.26-6.888-7.143.114-5.783-.283-11.707-1.134-17.575-5.301-34.583-27.666-63.553-59.839-77.443-3.543-1.531-5.188-5.669-3.657-9.212s5.669-5.188 9.213-3.657c36.624 15.817 62.079 48.784 68.116 88.242.992 6.633 1.417 13.323 1.304 19.927-.057 3.827-3.175 6.86-7.001 6.86z" fill="#62d84e" fill-opacity="1" data-original-color="#ea4b23ff" stroke="none" stroke-opacity="1"/></g><path d="m312.295 344.145c-1.956 0-3.912-.822-5.301-2.409-2.523-2.92-2.211-7.342.708-9.865l30.359-26.362c7.313-6.35 16.724-9.468 26.447-8.787 9.723.68 18.567 5.102 24.945 12.416 2.523 2.976 4.535 6.179 5.981 9.581 1.474 3.572-.17 7.654-3.742 9.156-3.543 1.502-7.654-.142-9.184-3.713-.85-2.069-2.098-4.054-3.657-5.868-3.883-4.45-9.326-7.172-15.335-7.597s-11.764 1.502-16.271 5.414l-30.359 26.306c-1.332 1.162-2.948 1.729-4.592 1.729z" fill="#032d42" fill-opacity="1" data-original-color="#115181ff" stroke="none" stroke-opacity="1"/><path d="m333.413 376.687c-1.956 0-3.912-.822-5.301-2.409-2.523-2.92-2.211-7.342.708-9.893l62.419-54.17c15.165-13.181 38.211-11.565 51.392 3.6 4.649 5.329 7.625 11.962 8.589 19.106.51 3.827-2.183 7.37-6.01 7.88-3.855.51-7.37-2.183-7.88-6.009-.595-4.422-2.409-8.504-5.272-11.764-8.107-9.354-22.28-10.346-31.635-2.239l-62.419 54.198c-1.332 1.134-2.948 1.701-4.592 1.701z" fill="#032d42" fill-opacity="1" data-original-color="#115181ff" stroke="none" stroke-opacity="1"/><path d="m77.133 324.869c-1.105 0-2.211.227-3.231.737-7.37 3.6-14.74 7.172-22.11 10.772s-14.74 7.2-22.11 10.771c-1.757.879-3.118 2.381-3.742 4.281-.68 1.871-.567 3.883.312 5.669l62.107 127.531c1.814 3.685 6.265 5.244 9.949 3.43 14.74-7.172 29.48-14.343 44.249-21.543 1.757-.85 3.09-2.353 3.742-4.252.652-1.871.539-3.883-.34-5.641l-62.107-127.587c-.879-1.758-2.381-3.09-4.28-3.77-.794-.255-1.616-.397-2.438-.397zm17.943 177.931c-7.937.029-15.591-4.422-19.304-12.047l-62.107-127.531c-2.495-5.131-2.835-10.942-.992-16.384 1.871-5.386 5.726-9.751 10.885-12.274 7.37-3.572 14.74-7.172 22.11-10.772s14.74-7.172 22.11-10.772c5.131-2.523 10.942-2.863 16.384-.992 5.414 1.871 9.78 5.754 12.274 10.885l62.107 127.559c2.494 5.102 2.863 10.913.992 16.356-1.871 5.414-5.726 9.779-10.857 12.274-14.769 7.2-29.509 14.372-44.249 21.543-3.005 1.474-6.208 2.154-9.354 2.154z" fill="#032d42" fill-opacity="1" data-original-color="#115181ff" stroke="none" stroke-opacity="1"/><path d="m300.22 393.978c-.737 0-1.502-.113-2.268-.368l-80.759-27.609c-3.657-1.247-5.613-5.244-4.365-8.901s5.244-5.613 8.901-4.365l80.759 27.609c3.657 1.247 5.613 5.244 4.365 8.901-.992 2.92-3.713 4.734-6.633 4.734z" fill="#032d42" fill-opacity="1" data-original-color="#115181ff" stroke="none" stroke-opacity="1"/></g></svg>