<svg width="60" height="60" viewBox="0 0 60 60" fill="none" xmlns="http://www.w3.org/2000/svg">
<rect width="60" height="60" rx="30" fill="#EFF2F6"/>
<path d="M22.7344 29.7656V16.7031L42.4219 20.3906V38.2031H30.1719V33H34.9219V38.2031" stroke="#032D42" stroke-width="2" stroke-linecap="round" stroke-linejoin="round"/>
<path d="M29.5312 25V22H26.5312V25H29.5312Z" fill="#62D84E"/>
<path d="M29.5312 30V27H26.5312V30H29.5312Z" fill="#62D84E"/>
<path d="M34.2188 25V22H31.2188V25H34.2188Z" fill="#62D84E"/>
<path d="M34.2188 30V27H31.2188V30H34.2188Z" fill="#62D84E"/>
<path d="M38.9062 25V22H35.9062V25H38.9062Z" fill="#62D84E"/>
<path d="M38.9062 30V27H35.9062V30H38.9062Z" fill="#62D84E"/>
<path d="M27.4219 38.2031H35.8594" stroke="#032D42" stroke-width="2" stroke-linecap="round" stroke-linejoin="round"/>
<path d="M26.0537 43C25.8947 43 25.7422 42.9368 25.6297 42.8244C25.5172 42.7119 25.4541 42.5594 25.4541 42.4003V42.0325C25.4541 39.9217 23.5711 38.2027 21.2564 38.2027C18.9417 38.2027 17.0587 39.9217 17.0587 42.0325V42.4003C17.0587 42.5594 16.9955 42.7119 16.8831 42.8244C16.7706 42.9368 16.6181 43 16.459 43C16.3 43 16.1475 42.9368 16.035 42.8244C15.9226 42.7119 15.8594 42.5594 15.8594 42.4003V42.0325C15.8736 41.0801 16.1606 40.1517 16.6863 39.3574C17.2121 38.5631 17.9545 37.9362 18.8257 37.551L19.0816 37.4271L18.8777 37.2272C18.3957 36.7547 18.0653 36.1494 17.9286 35.4884C17.792 34.8274 17.8553 34.1407 18.1105 33.5158C18.3657 32.8909 18.8011 32.3562 19.3614 31.9798C19.9217 31.6034 20.5814 31.4023 21.2564 31.4023C21.9314 31.4023 22.591 31.6034 23.1513 31.9798C23.7116 32.3562 24.1471 32.8909 24.4023 33.5158C24.6575 34.1407 24.7208 34.8274 24.5841 35.4884C24.4475 36.1494 24.1171 36.7547 23.6351 37.2272L23.4312 37.4271L23.687 37.551C24.5582 37.9362 25.3007 38.5631 25.8264 39.3574C26.3522 40.1517 26.6392 41.0801 26.6534 42.0325V42.4003C26.6534 42.5594 26.5902 42.7119 26.4778 42.8244C26.3653 42.9368 26.2128 43 26.0537 43ZM21.2564 32.6058C20.8215 32.6058 20.3964 32.7347 20.0348 32.9763C19.6732 33.2179 19.3914 33.5613 19.225 33.9631C19.0586 34.3649 19.015 34.807 19.0999 35.2335C19.1847 35.66 19.3941 36.0518 19.7016 36.3593C20.0091 36.6668 20.4009 36.8762 20.8274 36.9611C21.2539 37.0459 21.696 37.0024 22.0978 36.836C22.4996 36.6695 22.843 36.3877 23.0846 36.0261C23.3262 35.6645 23.4552 35.2394 23.4552 34.8045C23.4541 34.2217 23.2221 33.6631 22.81 33.2509C22.3979 32.8388 21.8392 32.6068 21.2564 32.6058Z" fill="#032D42" stroke="#032D42" stroke-width="0.5"/>
</svg>
