<svg width="60" height="60" viewBox="0 0 60 60" fill="none" xmlns="http://www.w3.org/2000/svg">
<rect width="60" height="60" rx="30" fill="#EFF2F6"/>
<g clip-path="url(#clip0_3385_3631)">
<path d="M21.5 24L28.56 16.33C28.6536 16.2285 28.7673 16.1475 28.8938 16.0921C29.0203 16.0367 29.1569 16.0081 29.295 16.0081C29.4331 16.0081 29.5697 16.0367 29.6962 16.0921C29.8227 16.1475 29.9364 16.2285 30.03 16.33L32.72 19.25C32.8136 19.3515 32.9273 19.4325 33.0538 19.4879C33.1803 19.5433 33.3169 19.5719 33.455 19.5719C33.5931 19.5719 33.7297 19.5433 33.8562 19.4879C33.9827 19.4325 34.0964 19.3515 34.19 19.25L35.83 17.46C35.9236 17.3585 36.0373 17.2775 36.1638 17.2221C36.2903 17.1667 36.4269 17.1381 36.565 17.1381C36.7031 17.1381 36.8397 17.1667 36.9662 17.2221C37.0927 17.2775 37.2064 17.3585 37.3 17.46L42.5 23.11L23.06 23.44L21.5 24Z" fill="#62D84E"/>
<path d="M45.32 22.42C45.227 22.2894 45.104 22.183 44.9612 22.1099C44.8185 22.0368 44.6603 21.9991 44.5 22H20.92L20.17 20C19.9631 19.4148 19.5798 18.9083 19.073 18.5501C18.5661 18.1919 17.9607 17.9997 17.34 18H15.5C15.2348 18 14.9804 18.1054 14.7929 18.2929C14.6054 18.4804 14.5 18.7348 14.5 19C14.5 19.2652 14.6054 19.5196 14.7929 19.7071C14.9804 19.8946 15.2348 20 15.5 20H17.34C17.5581 19.9886 17.7739 20.0489 17.9544 20.1717C18.135 20.2945 18.2704 20.473 18.34 20.68L24.09 36C24.2963 36.5835 24.6781 37.089 25.1829 37.4471C25.6878 37.8051 26.2911 37.9983 26.91 38H38.06C38.6824 38.0024 39.2901 37.8112 39.7989 37.4528C40.3077 37.0945 40.6926 36.5868 40.9 36L45.44 23.34C45.4958 23.1884 45.5141 23.0255 45.4932 22.8652C45.4723 22.705 45.4128 22.5522 45.32 22.42ZM39 35.32C38.9304 35.527 38.795 35.7055 38.6144 35.8283C38.4339 35.9511 38.2181 36.0114 38 36H26.91C26.7004 36.0005 26.4958 35.9352 26.3254 35.8132C26.1549 35.6911 26.0271 35.5186 25.96 35.32L21.68 24H43.08L39 35.32Z" fill="#032D42"/>
<path d="M26.5 44C27.6046 44 28.5 43.1046 28.5 42C28.5 40.8954 27.6046 40 26.5 40C25.3954 40 24.5 40.8954 24.5 42C24.5 43.1046 25.3954 44 26.5 44Z" fill="#032D42"/>
<path d="M38.5 44C39.6046 44 40.5 43.1046 40.5 42C40.5 40.8954 39.6046 40 38.5 40C37.3954 40 36.5 40.8954 36.5 42C36.5 43.1046 37.3954 44 38.5 44Z" fill="#032D42"/>
</g>
<defs>
<clipPath id="clip0_3385_3631">
<rect width="32" height="32" fill="white" transform="translate(14 14)"/>
</clipPath>
</defs>
</svg>
