<svg xmlns="http://www.w3.org/2000/svg" data-name="Layer 1" id="Layer_1" viewBox="0 0 64 64" width="300" height="300" version="1.1" xmlns:xlink="http://www.w3.org/1999/xlink" xmlns:svgjs="http://svgjs.dev/svgjs"><g width="100%" height="100%" transform="matrix(1,0,0,1,0,0)"><defs><style>.cls-1{fill:#f7c23c;}</style></defs><title/><circle class="" cx="32" cy="25" r="5" fill="#62d84e" fill-opacity="1" data-original-color="#f7c23cff" stroke="none" stroke-opacity="1"/><path d="M18,51H11V49a1,1,0,0,0-2,0v3a1,1,0,0,0,1,1h8a1,1,0,0,0,0-2Z" fill="#032d42" fill-opacity="1" data-original-color="#000000ff" stroke="none" stroke-opacity="1"/><path d="M54,48a1,1,0,0,0-1,1v2H46a1,1,0,0,0,0,2h8a1,1,0,0,0,1-1V49A1,1,0,0,0,54,48Z" fill="#032d42" fill-opacity="1" data-original-color="#000000ff" stroke="none" stroke-opacity="1"/><path d="M15,32h8.48l2.2,2.19a1,1,0,0,0,1.41,0l1.08-1.07q.42.2.87.36V35a1,1,0,0,0,1,1h4a1,1,0,0,0,1-1V33.48q.45-.16.87-.36L37,34.19a1,1,0,0,0,1.41,0L40.56,32H49a3,3,0,0,0,3-3V9a3,3,0,0,0-3-3H32V4.52A2.52,2.52,0,0,0,29.48,2h-15A2.52,2.52,0,0,0,12,4.52V29A3,3,0,0,0,15,32Zm23.22-2.24.89.9-1.41,1.41-.9-.89A1,1,0,0,0,35.55,31a6.9,6.9,0,0,1-1.8.74,1,1,0,0,0-.75,1V34H31V32.74a1,1,0,0,0-.75-1,6.9,6.9,0,0,1-1.8-.74,1,1,0,0,0-1.21.15l-.9.89-1.41-1.41.89-.9A1,1,0,0,0,26,28.55a6.6,6.6,0,0,1-.75-1.8,1,1,0,0,0-1-.75H23V24h1.26a1,1,0,0,0,1-.75,6.6,6.6,0,0,1,.75-1.8,1,1,0,0,0-.16-1.21l-.89-.9,1.41-1.41.9.89a1,1,0,0,0,1.21.15,6.9,6.9,0,0,1,1.8-.74,1,1,0,0,0,.75-1V16h2v1.26a1,1,0,0,0,.75,1,6.9,6.9,0,0,1,1.8.74,1,1,0,0,0,1.21-.15l.9-.89,1.41,1.41-.89.9A1,1,0,0,0,38,21.45a6.6,6.6,0,0,1,.75,1.8,1,1,0,0,0,1,.75H41v2H39.74a1,1,0,0,0-1,.75,6.6,6.6,0,0,1-.75,1.8A1,1,0,0,0,38.18,29.76ZM14,4.52A.52.52,0,0,1,14.52,4h15a.52.52,0,0,1,.52.52V7a1,1,0,0,0,1,1H49a1,1,0,0,1,1,1V29a1,1,0,0,1-1,1H41.23s0,0,0-.05l-1.07-1.08q.2-.42.36-.87H42a1,1,0,0,0,1-1V23a1,1,0,0,0-1-1H40.48q-.16-.45-.36-.87l1.07-1.08a1,1,0,0,0,.3-.71,1,1,0,0,0-.3-.7l-2.83-2.83a1,1,0,0,0-1.41,0l-1.08,1.07q-.42-.19-.87-.36V15a1,1,0,0,0-1-1H30a1,1,0,0,0-1,1v1.52q-.45.16-.87.36l-1.08-1.07a1,1,0,0,0-1.41,0l-2.83,2.83a1,1,0,0,0-.3.7,1,1,0,0,0,.3.71l1.07,1.08q-.19.42-.36.87H22a1,1,0,0,0-1,1v4a1,1,0,0,0,1,1h1.52q.16.45.36.87L22.81,30s0,0,0,.05H15a1,1,0,0,1-1-1Z" fill="#032d42" fill-opacity="1" data-original-color="#000000ff" stroke="none" stroke-opacity="1"/><path d="M40.05,46H39V39a1,1,0,0,0-1-1H26a1,1,0,0,0-1,1v7H24A3,3,0,0,0,21,49v6.1A3,3,0,0,0,24,58H25v3a1,1,0,0,0,1,1H38a1,1,0,0,0,1-1V58h1a3,3,0,0,0,3-3V49A3,3,0,0,0,40.05,46ZM27,40H37v6H27ZM37,60H27V58H37Zm4-5a.94.94,0,0,1-1,1H24a.94.94,0,0,1-.95-1V49A.94.94,0,0,1,24,48h16.1a.94.94,0,0,1,1,1Z" fill="#032d42" fill-opacity="1" data-original-color="#000000ff" stroke="none" stroke-opacity="1"/><path d="M28,51H26a1,1,0,0,0,0,2h2a1,1,0,0,0,0-2Z" fill="#032d42" fill-opacity="1" data-original-color="#000000ff" stroke="none" stroke-opacity="1"/><path d="M38,51H32a1,1,0,0,0,0,2h6a1,1,0,0,0,0-2Z" fill="#032d42" fill-opacity="1" data-original-color="#000000ff" stroke="none" stroke-opacity="1"/><circle class="" cx="54" cy="42" r="7" fill="#62d84e" fill-opacity="1" data-original-color="#f7c23cff" stroke="none" stroke-opacity="1"/><circle class="" cx="10" cy="42" r="7" fill="#62d84e" fill-opacity="1" data-original-color="#f7c23cff" stroke="none" stroke-opacity="1"/><path d="M13,41H7a1,1,0,0,0,0,2h6a1,1,0,0,0,0-2Z" fill="#032d42" fill-opacity="1" data-original-color="#000000ff" stroke="none" stroke-opacity="1"/><path d="M57,41H55V39a1,1,0,0,0-2,0v2H51a1,1,0,0,0,0,2h2v2a1,1,0,0,0,2,0V43h2a1,1,0,0,0,0-2Z" fill="#032d42" fill-opacity="1" data-original-color="#000000ff" stroke="none" stroke-opacity="1"/></g></svg>