<?xml version="1.0" encoding="UTF-8"?>
<svg id="Layer_1" xmlns="http://www.w3.org/2000/svg" version="1.1" viewBox="0 0 1073 797">
  <!-- Generator: Adobe Illustrator 29.6.1, SVG Export Plug-In . SVG Version: 2.1.1 Build 9)  -->
  <defs>
    <style>
      .st0 {
        font-family: Poppins-Regular, Poppins;
        font-size: 19px;
      }

      .st1, .st2 {
        fill: #62d849;
      }

      .st3 {
        fill: #fff;
      }

      .st4 {
        fill: #f9fbfc;
      }

      .st5 {
        fill: #540389;
      }

      .st6 {
        fill: #dbdbdb;
      }

      .st7 {
        fill: #0f4400;
      }

      .st8 {
        fill: #32841e;
      }

      .st2 {
        font-family: Poppins-SemiBold, Poppins;
        font-size: 36px;
        font-weight: 600;
      }

      .st9 {
        fill: #ededed;
      }

      .st10 {
        fill: #33b214;
      }

      .st11 {
        fill: #d1d3d4;
      }
    </style>
  </defs>
  <path class="st8" d="M801.06,276.53c-14.63-12.09-36.3-10.03-48.39,4.61-12.09,14.63-10.03,36.3,4.61,48.39,14.63,12.09,36.3,10.03,48.39-4.61,12.09-14.63,10.03-36.3-4.61-48.39ZM799.56,319.87c-9.3,11.26-25.97,12.85-37.23,3.55-11.26-9.3-12.85-25.97-3.54-37.23,9.3-11.26,25.97-12.85,37.23-3.54,11.26,9.3,12.85,25.97,3.55,37.23Z"/>
  <path class="st1" d="M796.01,282.64c11.26,9.3,12.85,25.97,3.55,37.23-9.3,11.26-25.97,12.85-37.23,3.55-11.26-9.3-12.85-25.97-3.54-37.23,9.3-11.26,25.97-12.85,37.23-3.55Z"/>
  <path class="st5" d="M553.07,440.21c-20.16-16.65-49.99-13.81-66.64,6.35-16.65,20.15-13.81,49.99,6.35,66.64,20.15,16.65,49.99,13.81,66.64-6.35,16.65-20.15,13.81-49.99-6.35-66.64ZM551,499.9c-12.81,15.51-35.76,17.69-51.27,4.88-15.51-12.81-17.69-35.76-4.88-51.27,12.81-15.51,35.76-17.69,51.27-4.88,15.51,12.81,17.69,35.76,4.88,51.27Z"/>
  <path class="st8" d="M546.12,448.63c15.51,12.81,17.69,35.76,4.88,51.27-12.81,15.51-35.76,17.69-51.27,4.88-15.51-12.81-17.69-35.76-4.88-51.27,12.81-15.51,35.76-17.69,51.27-4.88Z"/>
  <path class="st7" d="M444.4,497.23c-18-14.87-44.65-12.33-59.52,5.67s-12.33,44.65,5.67,59.52c18,14.87,44.65,12.33,59.52-5.67,14.87-18,12.33-44.65-5.67-59.52ZM442.56,550.54c-11.44,13.85-31.94,15.8-45.79,4.36-13.85-11.44-15.8-31.94-4.36-45.79,11.44-13.85,31.94-15.8,45.79-4.36,13.85,11.44,15.8,31.94,4.36,45.79Z"/>
  <path class="st1" d="M438.19,504.75c13.85,11.44,15.8,31.94,4.36,45.79-11.44,13.85-31.94,15.8-45.79,4.36-13.85-11.44-15.8-31.94-4.36-45.79,11.44-13.85,31.94-15.8,45.79-4.36Z"/>
  <g>
    <path class="st3" d="M418.12,516.8c-7.18,0-13.03,5.85-13.03,13.03s5.84,13.03,13.03,13.03,13.03-5.84,13.03-13.03-5.84-13.03-13.03-13.03ZM418.12,540.92c-6.12,0-11.1-4.98-11.1-11.1s4.98-11.1,11.1-11.1,11.1,4.98,11.1,11.1-4.98,11.1-11.1,11.1Z"/>
    <path class="st3" d="M418.12,521.92c.35,0,.64-.29.64-.64v-1.28c0-.35-.29-.64-.64-.64s-.64.29-.64.64v1.28c0,.35.29.64.64.64Z"/>
    <path class="st3" d="M418.12,537.59c-.35,0-.64.29-.64.64v1.28c0,.35.29.64.64.64s.64-.29.64-.64v-1.28c0-.35-.29-.64-.64-.64Z"/>
    <path class="st3" d="M409.65,529.11h-1.28c-.35,0-.64.29-.64.64s.29.64.64.64h1.28c.35,0,.64-.29.64-.64s-.29-.64-.64-.64Z"/>
    <path class="st3" d="M427.87,529.11h-1.28c-.35,0-.64.29-.64.64s.29.64.64.64h1.28c.35,0,.64-.29.64-.64s-.29-.64-.64-.64Z"/>
    <path class="st3" d="M418.76,528.41v-4.09c0-.35-.29-.64-.64-.64s-.64.29-.64.64v4.1c-.7.34-1.02,1.17-.69,1.91l-5.4,4.19c-.28.22-.33.62-.11.9.22.28.62.33.9.11l5.63-4.37c1.69.38,2.52-1.99.95-2.75Z"/>
  </g>
  <path class="st10" d="M533.54,280.52c-14.58-12.05-36.16-9.99-48.21,4.59-12.05,14.58-9.99,36.17,4.59,48.21,14.58,12.05,36.17,9.99,48.21-4.59,12.04-14.58,9.99-36.17-4.59-48.21ZM532.05,323.7c-9.27,11.22-25.87,12.8-37.09,3.53-11.22-9.27-12.8-25.87-3.53-37.09,9.27-11.22,25.87-12.8,37.09-3.53,11.22,9.27,12.8,25.87,3.53,37.09Z"/>
  <path class="st1" d="M528.51,286.61c11.22,9.27,12.8,25.87,3.53,37.09-9.27,11.22-25.87,12.8-37.09,3.53-11.22-9.27-12.8-25.87-3.53-37.09,9.27-11.22,25.87-12.8,37.09-3.53Z"/>
  <path class="st8" d="M467.63,351.41c-20.15-16.65-49.99-13.81-66.64,6.35-16.65,20.15-13.81,49.99,6.35,66.64,20.15,16.65,49.99,13.81,66.64-6.35,16.65-20.15,13.81-49.99-6.35-66.64ZM465.56,411.1c-12.81,15.51-35.76,17.69-51.27,4.88-15.51-12.81-17.69-35.76-4.88-51.27,12.81-15.51,35.76-17.69,51.27-4.88,15.51,12.81,17.69,35.76,4.88,51.27Z"/>
  <path class="st7" d="M460.68,359.83c15.51,12.81,17.69,35.76,4.88,51.27-12.81,15.51-35.76,17.69-51.27,4.88-15.51-12.81-17.69-35.76-4.88-51.27,12.81-15.51,35.76-17.69,51.27-4.88Z"/>
  <g>
    <path class="st3" d="M440.69,393.46c-2.68,0-5.28-.96-7.32-2.69-4.76-4.04-5.34-11.2-1.3-15.96,2.16-2.54,5.3-3.99,8.63-3.99,2.68,0,5.28.96,7.33,2.69,2.3,1.96,3.71,4.7,3.96,7.71.25,3.01-.7,5.94-2.66,8.25-2.16,2.54-5.3,3.99-8.63,3.99ZM440.7,373.92c-2.42,0-4.7,1.06-6.27,2.9-2.93,3.45-2.51,8.65.94,11.59,1.48,1.26,3.37,1.96,5.32,1.96,2.42,0,4.71-1.06,6.27-2.9,1.42-1.67,2.11-3.8,1.93-5.99-.18-2.19-1.2-4.18-2.87-5.6-1.48-1.26-3.37-1.96-5.32-1.96Z"/>
    <rect class="st3" x="430.15" y="389.98" width="5.12" height="3.1" transform="translate(-145.83 467.84) rotate(-49.65)"/>
    <rect class="st3" x="422.35" y="394.69" width="11.01" height="5.18" rx="1.55" ry="1.55" transform="translate(-151.94 466.01) rotate(-49.64)"/>
    <path class="st3" d="M442.9,376.52c.27,1.12-1.55.04-3.52.51-1.98.47-3.36,2.33-3.63,1.2-.27-1.13,1.9-2.57,3.09-2.89,1.36-.36,3.79.06,4.06,1.18Z"/>
    <path class="st3" d="M445.19,377.42c-.17.49-.73.31-1.22.14-.48-.17-.71-.26-.54-.74.17-.49.26-.71.74-.54.49.17,1.18.66,1.02,1.15Z"/>
  </g>
  <path class="st1" d="M693.26,272.11c-31.33-25.88-77.72-21.47-103.6,9.87-25.89,31.33-21.47,77.72,9.87,103.6,31.33,25.88,77.72,21.47,103.6-9.87,25.88-31.33,21.47-77.72-9.87-103.6ZM690.05,364.9c-19.92,24.11-55.6,27.51-79.71,7.59-24.11-19.91-27.51-55.6-7.59-79.71,19.91-24.11,55.6-27.51,79.71-7.59,24.11,19.92,27.51,55.6,7.59,79.71Z"/>
  <path class="st8" d="M682.46,285.19c24.11,19.92,27.51,55.6,7.59,79.71-19.92,24.11-55.6,27.51-79.71,7.59-24.11-19.91-27.51-55.6-7.59-79.71,19.91-24.11,55.6-27.51,79.71-7.59Z"/>
  <path class="st8" d="M331.24,519.11c-23.4-19.33-58.03-16.03-77.36,7.37-19.33,23.4-16.03,58.03,7.37,77.36,23.4,19.33,58.03,16.03,77.36-7.37,19.33-23.4,16.03-58.03-7.37-77.36ZM328.83,588.4c-14.87,18-41.52,20.54-59.52,5.67-18-14.87-20.54-41.52-5.67-59.52,14.87-18,41.52-20.54,59.52-5.67,18,14.87,20.54,41.52,5.67,59.52Z"/>
  <path class="st10" d="M323.16,528.88c18,14.87,20.54,41.52,5.67,59.52-14.87,18-41.52,20.54-59.52,5.67-18-14.87-20.54-41.52-5.67-59.52,14.87-18,41.52-20.54,59.52-5.67Z"/>
  <g>
    <path class="st11" d="M234.38,510.37c-12.37,14.97-18.39,33.09-18.38,51.1h22.41c0-12.98,4.33-26.04,13.25-36.83,11.43-13.83,27.94-20.99,44.59-21v-22.41c-23.09.01-46.01,9.94-61.86,29.14Z"/>
    <path class="st11" d="M388.79,564.55c-6.34-5.23-10.87-11.84-13.54-19.03h0s0-.01,0-.01c-.52-1.42-.96-2.86-1.34-4.31l-21.73,5.67c.1.38.2.77.3,1.15,3.2,11.46,9.45,22.17,18.62,30.83,0,0,3.2,2.87,3.38,3.02,12.59,10.4,27.84,15.47,42.99,15.46v-22.46c-10.11,0-20.28-3.38-28.69-10.32Z"/>
    <path class="st9" d="M373.72,540.48h-.05c-3.41-12.6-9.9-24.48-19.38-34.39-2.17-2.26-4.47-4.44-6.94-6.48-14.97-12.37-33.09-18.39-51.1-18.38v22.41c12.98,0,26.04,4.33,36.83,13.25,9.37,7.74,15.67,17.81,18.76,28.68.1.44.23.87.34,1.31l21.73-5.67c-.06-.24-.14-.47-.19-.71Z"/>
    <path class="st11" d="M466.42,430.02c-7.28,8.81-12.13,18.82-14.67,29.23-.91,3.75-1.54,7.55-1.85,11.37-1,12.13,1.02,24.4,5.95,35.62.67,1.09,1.29,2.19,1.86,3.32l19.99-10.07c-.33-.65-.64-1.31-.94-1.97-7.67-17.04-5.58-37.69,7.13-53.07.24-.29,2.02-2.13,4-4.17l-15.67-16.29c-2.46,2.52-5.25,5.39-5.78,6.04Z"/>
    <path class="st9" d="M459.32,513.13c5.88,14.79,3.74,32.24-7.11,45.38-8.9,10.77-21.76,16.35-34.72,16.36v22.46c19.43-.01,38.7-8.36,52.04-24.51,8.3-10.05,13.19-21.78,14.83-33.8,1.73-12.7-.16-25.73-5.55-37.44-.39-.69-.76-1.38-1.11-2.08l-19.99,10.07c.59,1.17,1.13,2.36,1.61,3.57Z"/>
    <path class="st9" d="M570.99,316.31h-.27c2.19-13.85-.54-28.21-7.92-40.38-3.38-5.57-7.72-10.68-13.02-15.06-11.14-9.21-24.63-13.69-38.04-13.68v22.71c8.31,0,16.67,2.77,23.58,8.48,10.47,8.65,15.43,21.83,13.47,34.33-.01.08-.02.16-.04.24l22.21,3.61c.01-.08.02-.17.04-.25Z"/>
    <path class="st11" d="M734.04,265.74c-2.09,2.53-3.91,5.18-5.51,7.92-7.26,12.49-9.43,26.91-6.81,40.49l21.78-4.22c-.03-.17-.07-.33-.1-.5-1.81-10.15.67-20.99,7.75-29.56,7.18-8.69,17.56-13.19,28.02-13.2v-22.19c-16.85,0-33.56,7.25-45.13,21.26Z"/>
    <path class="st9" d="M721.73,314.21c4.21,21.67-1.24,44.98-16.39,63.32-15.11,18.29-36.94,27.75-58.94,27.76v22.48c28.47-.02,56.72-12.26,76.27-35.93,10.57-12.8,17.38-27.46,20.56-42.65.67-3.21,1.18-6.44,1.53-9.68h0c1.04-9.69.65-19.48-1.14-29.02-.04-.19-.07-.38-.11-.56l-21.78,4.22s0,.04,0,.06Z"/>
    <path class="st9" d="M472.24,351.71c18.8,18.02,20.8,47.77,3.94,68.17-.19.22-1.98,2.06-3.98,4.11l15.67,16.29c2.4-2.48,5.09-5.28,5.71-6.03,7.3-8.84,12.16-18.89,14.66-29.34,3.05-12.73,2.59-26.03-1.24-38.45-3.69-12-10.52-23.16-20.36-32.17l-15.26,16.65c.28.26.58.51.85.78Z"/>
    <path class="st11" d="M597.7,387.79c-21.7-17.93-30.95-45.31-26.75-71.22l-22.21-3.61c-2.13,13.18-1.58,26.64,1.58,39.55,4.89,19.94,16.01,38.54,33.06,52.62,18.46,15.25,40.8,22.67,63.01,22.66v-22.48c-17.16,0-34.43-5.73-48.69-17.51Z"/>
    <path class="st11" d="M486.42,334.07v-.13c-14.17-13.26-15.76-35.43-3.23-50.59,7.32-8.86,17.89-13.44,28.54-13.44v-22.71c-17.19,0-34.25,7.4-46.05,21.69-11.48,13.89-15.6,31.43-12.84,47.9,2.07,12.39,8.03,24.17,17.7,33.36.29.25.57.52.85.78l15.26-16.65c-.08-.07-.15-.14-.23-.21h0Z"/>
    <polygon class="st9" points="227.2 611.15 238.4 622.36 238.4 561.47 216 561.47 216 622.36 227.2 611.15"/>
    <path class="st9" d="M227.2,630.12l-14.09,14.09v6.09c0,7.78,6.31,14.09,14.09,14.09h0c7.78,0,14.09-6.31,14.09-14.09v-6.09l-14.09-14.09Z"/>
    <polygon class="st11" points="241.92 630.89 227.2 616.18 212.49 630.89 212.49 638.55 227.2 623.84 241.92 638.55 241.92 630.89"/>
    <path class="st9" d="M894.74,254.76l-10.27-10.27h-105.26s-.03,0-.04,0v22.19h103.65l11.92-11.92Z"/>
    <polygon class="st11" points="895.38 269.48 910.09 254.76 895.38 240.05 887.72 240.05 902.44 254.76 887.72 269.48 895.38 269.48"/>
    <polygon class="st11" points="911.06 269.48 925.78 254.76 911.06 240.05 903.41 240.05 918.12 254.76 903.41 269.48 911.06 269.48"/>
  </g>
  <path class="st3" d="M315.98,554.21c-.11,0-.21.03-.32.03.2-.98.32-2,.32-3.03,0-7.96-6.34-14.41-14.17-14.41-3.65,0-6.98,1.42-9.49,3.74-1.45-.56-3.02-.88-4.67-.88-6.94,0-12.6,5.47-13.08,12.4-4.5,1.01-7.87,5.08-7.87,9.96,0,5.31,3.99,9.67,9.08,10.16v.05s.95,0,.95,0h39.88s0-.03.02-.07c4.58-.35,8.2-4.19,8.2-8.94s-3.96-9.01-8.85-9.01Z"/>
  <path class="st3" d="M532.9,451.76h-22.52c-2.34,0-4.24,1.9-4.25,4.25v41.06c0,2.35,1.9,4.25,4.25,4.25h22.51c2.35,0,4.25-1.9,4.25-4.25v-41.06c0-2.35-1.9-4.25-4.25-4.25ZM524.96,497.25h-6.07c-.8,0-1.44-.65-1.45-1.45s.65-1.44,1.45-1.45h6.07c.8,0,1.44.65,1.44,1.44,0,.8-.65,1.45-1.45,1.45ZM532.51,492.82h-21.32s0-36.34,0-36.34h21.32s0,36.34,0,36.34Z"/>
  <g>
    <path class="st3" d="M512.79,311.11c-2.47,0-4.47,2-4.47,4.47s2,4.47,4.47,4.47,4.47-2,4.47-4.47-2-4.47-4.47-4.47Z"/>
    <path class="st3" d="M512.72,296.93c5.43,0,10.28,2.42,13.58,6.23l2.22-2.22c-3.87-4.37-9.5-7.14-15.79-7.14s-11.85,2.74-15.71,7.06l2.22,2.22c3.29-3.75,8.11-6.14,13.5-6.14Z"/>
    <path class="st3" d="M512.75,302.87c3.79,0,7.17,1.74,9.39,4.47l2.24-2.24c-2.8-3.29-6.97-5.39-11.63-5.39s-8.75,2.06-11.55,5.3l2.23,2.24c2.22-2.68,5.57-4.38,9.32-4.38Z"/>
    <path class="st3" d="M512.75,308.13c2.34,0,4.4,1.17,5.63,2.96l2.39-2.39c-1.87-2.38-4.76-3.92-8.02-3.92s-6.09,1.5-7.95,3.83l2.39,2.39c1.24-1.73,3.27-2.87,5.56-2.87Z"/>
  </g>
  <g>
    <rect class="st4" x="774.88" y="310.23" width="8.35" height="2.48"/>
    <path class="st4" d="M763.43,286.27h31.25c.73,0,1.33.6,1.33,1.33v20.43c0,.73-.6,1.33-1.33,1.33h-31.25c-.73,0-1.33-.6-1.33-1.33v-20.43c0-.73.6-1.33,1.33-1.33Z"/>
    <path class="st6" d="M765.61,288.59h26.89c.63,0,1.14.51,1.14,1.14v16.18c0,.63-.51,1.14-1.14,1.14h-26.89c-.63,0-1.14-.51-1.14-1.14v-16.18c0-.63.51-1.14,1.14-1.14Z"/>
    <rect class="st4" x="762.1" y="313.39" width="33.91" height="6.64"/>
  </g>
  <g>
    <path class="st3" d="M624.44,335.16c0,9.48,7.69,17.16,17.16,17.16,3.8,0,7.3-1.25,10.14-3.34l8.43,7.73c1.72,1.58,4.4,1.47,5.98-.26.75-.81,1.12-1.84,1.12-2.86,0-1.15-.46-2.29-1.37-3.12l-8.76-8.04c1.04-2.21,1.64-4.67,1.64-7.28,0-9.48-7.68-17.16-17.16-17.16s-17.16,7.68-17.16,17.16ZM654.07,335.16c0,6.88-5.58,12.46-12.46,12.46s-12.46-5.58-12.46-12.46,5.58-12.47,12.46-12.47,12.46,5.58,12.46,12.47ZM647.42,335.16c0,3.21-2.6,5.82-5.82,5.82s-5.82-2.6-5.82-5.82,2.61-5.82,5.82-5.82,5.82,2.61,5.82,5.82Z"/>
    <g>
      <path class="st3" d="M656.99,323.05v-16.86h-6.72v11.41c2.63,1.3,4.92,3.17,6.72,5.46Z"/>
      <path class="st3" d="M667.53,348.7c.39.36.74.77,1.03,1.2h.64v-59.42h-6.72v53.57l5.06,4.64Z"/>
      <rect class="st3" x="613.64" y="327.95" width="6.72" height="21.95"/>
      <path class="st3" d="M625.85,346.79v3.11h2.87c-1.06-.93-2.03-1.97-2.87-3.11Z"/>
      <path class="st3" d="M632.57,317.78v-3.8h-6.72v9.55c1.77-2.39,4.07-4.37,6.72-5.75Z"/>
      <path class="st3" d="M641.6,315.57c1.08,0,2.14.09,3.18.26v-16.7h-6.72v16.76c1.15-.21,2.33-.32,3.54-.32Z"/>
    </g>
  </g>
  <text class="st2" transform="translate(728.27 129.72)"><tspan x="0" y="0">25+ </tspan></text>
  <text/>
  <text class="st0" transform="translate(705.19 151.96)"><tspan x="0" y="0">ServiceNow </tspan><tspan x="24.82" y="22.8">Project</tspan></text>
  <text class="st0" transform="translate(279.16 185.96)"><tspan x="0" y="0">Student Trained on ServiceNow</tspan><tspan x="7.08" y="22.8">Classes delivered 2021 &amp; 2022</tspan></text>
  <text class="st2" transform="translate(401.7 162.72)"><tspan x="0" y="0">70+ </tspan></text>
  <text class="st0" transform="translate(133.22 403.96)"><tspan x="0" y="0">ServiceNow intial</tspan><tspan x="4.03" y="22.8">Implementation</tspan></text>
  <text class="st2" transform="translate(186.97 380.72)"><tspan x="0" y="0">50+ </tspan></text>
  <text class="st0" transform="translate(781.61 449.96)"><tspan x="0" y="0">Global 50 </tspan><tspan x="-54.34" y="22.8">customers supported</tspan></text>
  <text class="st2" transform="translate(808.05 423.72)"><tspan x="0" y="0">10+ </tspan></text>
  <text class="st0" transform="translate(610.19 605.96)"><tspan x="0" y="0">ServiceNow </tspan><tspan x="-.75" y="22.8">Certification</tspan></text>
  <text class="st2" transform="translate(642.23 582.72)"><tspan x="0" y="0">20+ </tspan></text>
  <text class="st0" transform="translate(389.19 699.96)"><tspan x="0" y="0">ServiceNow </tspan><tspan x="-23.85" y="22.8">Skilled Resources</tspan></text>
  <text class="st2" transform="translate(419.66 676.72)"><tspan x="0" y="0">40+ </tspan></text>
</svg>