<svg width="60" height="60" viewBox="0 0 60 60" fill="none" xmlns="http://www.w3.org/2000/svg">
<rect width="60" height="60" rx="30" fill="#EFF2F6"/>
<g clip-path="url(#clip0_3385_3640)">
<path d="M17 36V20C17 19.4696 17.2107 18.9609 17.5858 18.5858C17.9609 18.2107 18.4696 18 19 18H41C41.5304 18 42.0391 18.2107 42.4142 18.5858C42.7893 18.9609 43 19.4696 43 20V41C43 41.5304 42.7893 42.0391 42.4142 42.4142C42.0391 42.7893 41.5304 43 41 43H24" stroke="#032D42" stroke-width="2" stroke-linecap="round" stroke-linejoin="round"/>
<path d="M28.8289 28.2398L26.5289 30.6298C26.3578 30.7741 26.2466 30.977 26.217 31.1989C26.1874 31.4207 26.2416 31.6457 26.3689 31.8298L28.3689 33.8898C28.4558 33.956 28.555 34.0041 28.6607 34.0314C28.7665 34.0587 28.8766 34.0646 28.9846 34.0488C29.0927 34.033 29.1965 33.9957 29.29 33.9392C29.3834 33.8827 29.4647 33.8081 29.5289 33.7198L31.8289 31.3298C32.3989 30.7398 32.9489 30.9398 33.0289 31.7698C33.1084 32.5745 33.0079 33.3868 32.7346 34.1478C32.4614 34.9088 32.0222 35.5995 31.4489 36.1698C30.6838 36.8672 29.7286 37.3213 28.7047 37.4744C27.6808 37.6275 26.6346 37.4728 25.6989 37.0298L19.2189 43.7498C19.1552 43.8189 19.0779 43.874 18.9918 43.9117C18.9058 43.9494 18.8128 43.9689 18.7189 43.9689C18.6249 43.9689 18.532 43.9494 18.4459 43.9117C18.3599 43.874 18.2826 43.8189 18.2189 43.7498L16.2189 41.6898C16.0979 41.5513 16.0312 41.3737 16.0312 41.1898C16.0312 41.0059 16.0979 40.8283 16.2189 40.6898L22.9489 33.6898C22.7133 32.7923 22.71 31.8496 22.9392 30.9504C23.1683 30.0512 23.6225 29.2251 24.2589 28.5498C24.7872 27.9871 25.4386 27.5544 26.162 27.2855C26.8855 27.0166 27.6613 26.9188 28.4289 26.9998C29.2089 27.0698 29.3889 27.6598 28.8289 28.2398Z" fill="#62D84E"/>
<path d="M17.0312 23.96H43.0312" stroke="#032D42" stroke-width="2" stroke-linecap="round" stroke-linejoin="round"/>
<path d="M23.0312 16.96V19.96" stroke="#032D42" stroke-width="2" stroke-linecap="round" stroke-linejoin="round"/>
<path d="M37.0312 16.96V19.96" stroke="#032D42" stroke-width="2" stroke-linecap="round" stroke-linejoin="round"/>
</g>
<defs>
<clipPath id="clip0_3385_3640">
<rect width="32" height="32" fill="white" transform="translate(14 14)"/>
</clipPath>
</defs>
</svg>
