<svg xmlns="http://www.w3.org/2000/svg" xmlns:xlink="http://www.w3.org/1999/xlink" width="250" zoomAndPan="magnify" viewBox="0 0 187.5 187.499992" height="250" preserveAspectRatio="xMidYMid meet" version="1.0"><defs><filter x="0%" y="0%" width="100%" height="100%" id="fd79b0561c"><feColorMatrix values="0 0 0 0 1 0 0 0 0 1 0 0 0 0 1 0 0 0 1 0" color-interpolation-filters="sRGB"/></filter><mask id="b23c9f0ba0"><g filter="url(#fd79b0561c)"><rect x="-18.75" width="225" fill="#000000" y="-18.749999" height="224.99999" fill-opacity="0.6"/></g></mask><clipPath id="2b18327119"><path d="M 3 8 L 124 8 L 124 143 L 3 143 Z M 3 8 " clip-rule="nonzero"/></clipPath><clipPath id="83762c06ea"><path d="M 57.925781 -39.695312 L 189.441406 37.6875 L 121.925781 152.441406 L -9.59375 75.0625 Z M 57.925781 -39.695312 " clip-rule="nonzero"/></clipPath><clipPath id="85ec69ae80"><path d="M 58.046875 -25.820312 L 177.003906 44.171875 L 115.460938 148.773438 L -3.5 78.78125 Z M 58.046875 -25.820312 " clip-rule="nonzero"/></clipPath><clipPath id="f24b3881f6"><path d="M 123.273438 21.359375 L 121.898438 129.957031 C 121.839844 134.597656 119.3125 138.859375 115.269531 141.136719 C 111.226562 143.414062 106.273438 143.367188 102.273438 141.015625 L 9.6875 86.539062 C 5.6875 84.1875 3.242188 79.882812 3.269531 75.238281 C 3.296875 70.597656 5.792969 66.320312 9.824219 64.015625 L 104.082031 10.066406 C 108.078125 7.78125 112.988281 7.8125 116.953125 10.144531 C 120.921875 12.476562 123.332031 16.757812 123.273438 21.359375 Z M 123.273438 21.359375 " clip-rule="nonzero"/></clipPath><clipPath id="dcd2e85e1d"><rect x="0" width="187" y="0" height="168"/></clipPath><mask id="0bf4229aab"><g filter="url(#fd79b0561c)"><rect x="-18.75" width="225" fill="#000000" y="-18.749999" height="224.99999" fill-opacity="0.6"/></g></mask><clipPath id="4fb7b50ba8"><path d="M 25 1 L 146 1 L 146 137 L 25 137 Z M 25 1 " clip-rule="nonzero"/></clipPath><clipPath id="078f60433f"><path d="M 79.753906 -46.242188 L 211.335938 31.027344 L 143.917969 145.839844 L 12.332031 68.570312 Z M 79.753906 -46.242188 " clip-rule="nonzero"/></clipPath><clipPath id="df8f0cb9b3"><path d="M 79.886719 -32.367188 L 198.902344 37.523438 L 137.449219 142.175781 L 18.429688 72.285156 Z M 79.886719 -32.367188 " clip-rule="nonzero"/></clipPath><clipPath id="acca4f1073"><path d="M 145.152344 14.753906 L 143.871094 123.355469 C 143.816406 127.996094 141.292969 132.257812 137.25 134.539062 C 133.210938 136.820312 128.257812 136.78125 124.253906 134.429688 L 31.625 80.035156 C 27.621094 77.683594 25.171875 73.378906 25.195312 68.738281 C 25.21875 64.097656 27.710938 59.816406 31.738281 57.507812 L 125.953125 3.480469 C 129.945312 1.191406 134.859375 1.214844 138.824219 3.546875 C 142.792969 5.875 145.207031 10.152344 145.152344 14.753906 Z M 145.152344 14.753906 " clip-rule="nonzero"/></clipPath><clipPath id="a20eb5a51a"><rect x="0" width="149" y="0" height="161"/></clipPath><mask id="38b50dc907"><g filter="url(#fd79b0561c)"><rect x="-18.75" width="225" fill="#000000" y="-18.749999" height="224.99999" fill-opacity="0.6"/></g></mask><clipPath id="5b4b8a662a"><path d="M 25 50 L 145 50 L 145 186 L 25 186 Z M 25 50 " clip-rule="nonzero"/></clipPath><clipPath id="26a71b1e5e"><path d="M 78.988281 3.304688 L 211.152344 79.574219 L 144.605469 194.894531 L 12.4375 118.625 Z M 78.988281 3.304688 " clip-rule="nonzero"/></clipPath><clipPath id="da1b2a681c"><path d="M 79.222656 17.179688 L 198.769531 86.164062 L 138.109375 191.28125 L 18.5625 122.292969 Z M 79.222656 17.179688 " clip-rule="nonzero"/></clipPath><clipPath id="a845496467"><path d="M 144.847656 63.804688 L 144.386719 172.410156 C 144.367188 177.050781 141.878906 181.332031 137.855469 183.644531 C 133.828125 185.957031 128.878906 185.953125 124.859375 183.632812 L 31.816406 129.941406 C 27.796875 127.621094 25.3125 123.335938 25.300781 118.695312 C 25.292969 114.054688 27.75 109.757812 31.761719 107.417969 L 125.5625 52.675781 C 129.539062 50.355469 134.449219 50.34375 138.433594 52.644531 C 142.417969 54.941406 144.867188 59.203125 144.847656 63.804688 Z M 144.847656 63.804688 " clip-rule="nonzero"/></clipPath><clipPath id="c7ae3deadd"><rect x="0" width="186" y="0" height="187"/></clipPath></defs><g mask="url(#b23c9f0ba0)"><g transform="matrix(1, 0, 0, 1, 0, 0)"><g clip-path="url(#dcd2e85e1d)"><g clip-path="url(#2b18327119)"><g clip-path="url(#83762c06ea)"><g clip-path="url(#85ec69ae80)"><g clip-path="url(#f24b3881f6)"><path stroke-linecap="butt" transform="matrix(0.644695, 0.379315, -0.379315, 0.644695, 57.92594, -39.69405)" fill="none" stroke-linejoin="miter" d="M 116.686902 26.046854 L 188.725244 152.110171 C 191.803794 157.497033 191.780863 164.120966 188.666273 169.485914 C 185.551683 174.850863 179.812689 178.154772 173.60949 178.156954 L 29.995937 178.154283 C 23.792737 178.156465 18.056818 174.854184 14.939612 169.484007 C 11.825054 164.118331 11.801385 157.497579 14.883935 152.109069 L 86.917739 26.045202 C 89.973021 20.70303 95.651912 17.410247 101.801362 17.409394 C 107.955313 17.405893 113.634834 20.705002 116.686902 26.046854 Z M 116.686902 26.046854 " stroke="#50d184" stroke-width="8" stroke-opacity="1" stroke-miterlimit="4"/></g></g></g></g></g></g></g><g mask="url(#0bf4229aab)"><g transform="matrix(1, 0, 0, 1, 38, 0)"><g clip-path="url(#a20eb5a51a)"><g clip-path="url(#4fb7b50ba8)"><g clip-path="url(#078f60433f)"><g clip-path="url(#df8f0cb9b3)"><g clip-path="url(#acca4f1073)"><path stroke-linecap="butt" transform="matrix(0.645018, 0.378767, -0.378767, 0.645018, 79.754256, -46.242482)" fill="none" stroke-linejoin="miter" d="M 116.684417 26.046122 L 188.726206 152.111727 C 191.804675 157.498562 191.780612 164.119829 188.664103 169.486629 C 185.552097 174.850785 179.815583 178.158817 173.60788 178.158366 L 30.000369 178.157167 C 23.792667 178.156716 18.055055 174.8522 14.94056 169.48652 C 11.826065 164.12084 11.800881 157.498212 14.880867 152.110466 L 86.91948 26.046947 C 89.972159 20.705517 95.653063 17.405916 101.802512 17.410295 C 107.95382 17.407526 113.632391 20.704319 116.684417 26.046122 Z M 116.684417 26.046122 " stroke="#4faefc" stroke-width="8" stroke-opacity="1" stroke-miterlimit="4"/></g></g></g></g></g></g></g><g mask="url(#38b50dc907)"><g transform="matrix(1, 0, 0, 1, 1, 0)"><g clip-path="url(#c7ae3deadd)"><g clip-path="url(#5b4b8a662a)"><g clip-path="url(#26a71b1e5e)"><g clip-path="url(#da1b2a681c)"><g clip-path="url(#a845496467)"><path stroke-linecap="butt" transform="matrix(0.647871, 0.373865, -0.373865, 0.647871, 78.987246, 3.304347)" fill="none" stroke-linejoin="miter" d="M 116.687437 26.046893 L 188.723663 152.111574 C 191.801904 157.498108 191.78139 164.118127 188.66777 169.484275 C 185.549627 174.853033 179.816207 178.155568 173.611474 178.154669 L 29.998465 178.155322 C 23.793733 178.154424 18.053687 174.8526 14.939261 169.486948 C 11.829359 164.118686 11.803247 157.501455 14.885026 152.111476 L 86.920414 26.046788 C 89.974535 20.702916 95.652284 17.40839 101.803258 17.410164 C 107.951621 17.407415 113.635298 20.705591 116.687437 26.046893 Z M 116.687437 26.046893 " stroke="#4beddb" stroke-width="8" stroke-opacity="1" stroke-miterlimit="4"/></g></g></g></g></g></g></g></svg>