<svg xmlns="http://www.w3.org/2000/svg" xmlns:xlink="http://www.w3.org/1999/xlink" width="250" zoomAndPan="magnify" viewBox="0 0 187.5 187.499992" height="250" preserveAspectRatio="xMidYMid meet" version="1.0"><defs><filter x="0%" y="0%" width="100%" height="100%" id="2cfde043a7"><feColorMatrix values="0 0 0 0 1 0 0 0 0 1 0 0 0 0 1 0 0 0 1 0" color-interpolation-filters="sRGB"/></filter><mask id="cabeaf0be5"><g filter="url(#2cfde043a7)"><rect x="-18.75" width="225" fill="#000000" y="-18.749999" height="224.99999" fill-opacity="0.6"/></g></mask><clipPath id="3e0c93a9c7"><path d="M 15 0 L 92 0 L 92 89 L 15 89 Z M 15 0 " clip-rule="nonzero"/></clipPath><clipPath id="1793354fd5"><path d="M 52.476562 -23.632812 L 131.019531 21.34375 L 91.988281 89.5 L 13.445312 44.527344 Z M 52.476562 -23.632812 " clip-rule="nonzero"/></clipPath><clipPath id="ff1284b7b3"><path d="M 53 -21.707031 L 128.808594 21.703125 L 90.300781 88.953125 L 14.492188 45.542969 Z M 53 -21.707031 " clip-rule="nonzero"/></clipPath><clipPath id="5fe9c3c28f"><path d="M 91.601562 2.515625 L 91.527344 85.910156 C 91.523438 86.6875 91.113281 87.398438 90.441406 87.789062 C 89.773438 88.175781 88.949219 88.175781 88.277344 87.792969 L 16.515625 46.699219 C 15.84375 46.316406 15.425781 45.601562 15.421875 44.828125 C 15.417969 44.054688 15.824219 43.339844 16.492188 42.945312 L 88.378906 0.671875 C 89.042969 0.28125 89.859375 0.277344 90.527344 0.660156 C 91.191406 1.039062 91.601562 1.746094 91.601562 2.515625 Z M 91.601562 2.515625 " clip-rule="nonzero"/></clipPath><clipPath id="98759f2015"><rect x="0" width="162" y="0" height="122"/></clipPath><mask id="07d3591b87"><g filter="url(#2cfde043a7)"><rect x="-18.75" width="225" fill="#000000" y="-18.749999" height="224.99999" fill-opacity="0.6"/></g></mask><clipPath id="986905f78f"><path d="M 15 56 L 92 56 L 92 144 L 15 144 Z M 15 56 " clip-rule="nonzero"/></clipPath><clipPath id="789b2e96df"><path d="M 52.96875 31.867188 L 131.015625 77.695312 L 91.246094 145.421875 L 13.199219 99.59375 Z M 52.96875 31.867188 " clip-rule="nonzero"/></clipPath><clipPath id="3b4afb7634"><path d="M 53.472656 33.796875 L 128.800781 78.03125 L 89.5625 144.855469 L 14.234375 100.621094 Z M 53.472656 33.796875 " clip-rule="nonzero"/></clipPath><clipPath id="96564e9775"><path d="M 91.808594 58.4375 L 90.820312 141.828125 C 90.8125 142.601562 90.390625 143.3125 89.71875 143.691406 C 89.042969 144.074219 88.21875 144.066406 87.550781 143.675781 L 16.242188 101.800781 C 15.574219 101.410156 15.167969 100.691406 15.171875 99.917969 C 15.175781 99.144531 15.589844 98.429688 16.261719 98.046875 L 88.605469 56.558594 C 89.273438 56.175781 90.089844 56.179688 90.753906 56.570312 C 91.414062 56.957031 91.816406 57.671875 91.808594 58.4375 Z M 91.808594 58.4375 " clip-rule="nonzero"/></clipPath><clipPath id="4c9bf4ed2a"><rect x="0" width="162" y="0" height="145"/></clipPath><mask id="86cfb98ed7"><g filter="url(#2cfde043a7)"><rect x="-18.75" width="225" fill="#000000" y="-18.749999" height="224.99999" fill-opacity="0.6"/></g></mask><clipPath id="28d47e334b"><path d="M 13.378906 24.609375 L 90 24.609375 L 90 111.964844 L 13.378906 111.964844 Z M 13.378906 24.609375 " clip-rule="nonzero"/></clipPath><clipPath id="5760bd6277"><path d="M 88.671875 70.144531 L 16.261719 111.519531 C 15.589844 111.902344 14.765625 111.902344 14.097656 111.511719 C 13.425781 111.125 13.015625 110.410156 13.015625 109.636719 L 13.015625 26.941406 C 13.015625 26.167969 13.425781 25.453125 14.097656 25.0625 C 14.765625 24.675781 15.589844 24.671875 16.261719 25.054688 L 88.671875 66.433594 C 89.335938 66.8125 89.75 67.523438 89.75 68.289062 C 89.75 69.054688 89.335938 69.761719 88.671875 70.144531 Z M 88.671875 70.144531 " clip-rule="nonzero"/></clipPath><clipPath id="f9c639301c"><rect x="0" width="115" y="0" height="137"/></clipPath><mask id="5d03ceca07"><g filter="url(#2cfde043a7)"><rect x="-18.75" width="225" fill="#000000" y="-18.749999" height="224.99999" fill-opacity="0.6"/></g></mask><clipPath id="47c560b3e0"><path d="M 70 33 L 147 33 L 147 122 L 70 122 Z M 70 33 " clip-rule="nonzero"/></clipPath><clipPath id="7ac117d4ec"><path d="M 109.523438 145.625 L 30.980469 100.648438 L 70.011719 32.492188 L 148.554688 77.46875 Z M 109.523438 145.625 " clip-rule="nonzero"/></clipPath><clipPath id="53149292d0"><path d="M 109 143.699219 L 33.191406 100.289062 L 71.699219 33.042969 L 147.507812 76.453125 Z M 109 143.699219 " clip-rule="nonzero"/></clipPath><clipPath id="92c04a34ca"><path d="M 70.398438 119.480469 L 70.472656 36.082031 C 70.472656 35.308594 70.886719 34.59375 71.554688 34.207031 C 72.226562 33.816406 73.050781 33.816406 73.722656 34.199219 L 145.484375 75.292969 C 146.15625 75.679688 146.570312 76.390625 146.578125 77.164062 C 146.582031 77.9375 146.171875 78.65625 145.507812 79.046875 L 73.617188 121.324219 C 72.957031 121.710938 72.136719 121.714844 71.472656 121.335938 C 70.808594 120.953125 70.398438 120.246094 70.398438 119.480469 Z M 70.398438 119.480469 " clip-rule="nonzero"/></clipPath><clipPath id="cd5257b9b2"><rect x="0" width="162" y="0" height="122"/></clipPath><mask id="d7c40ff080"><g filter="url(#2cfde043a7)"><rect x="-18.75" width="225" fill="#000000" y="-18.749999" height="224.99999" fill-opacity="0.6"/></g></mask><clipPath id="c4b7be15ed"><path d="M 70 0 L 147 0 L 147 88 L 70 88 Z M 70 0 " clip-rule="nonzero"/></clipPath><clipPath id="5e245babf7"><path d="M 109.03125 111.460938 L 30.984375 65.628906 L 70.753906 -2.097656 L 148.800781 43.734375 Z M 109.03125 111.460938 " clip-rule="nonzero"/></clipPath><clipPath id="f775689c79"><path d="M 108.527344 109.53125 L 33.195312 65.296875 L 72.4375 -1.527344 L 147.765625 42.707031 Z M 108.527344 109.53125 " clip-rule="nonzero"/></clipPath><clipPath id="2c61ae1cdb"><path d="M 70.191406 84.890625 L 71.179688 1.496094 C 71.1875 0.722656 71.605469 0.015625 72.28125 -0.367188 C 72.953125 -0.746094 73.78125 -0.738281 74.445312 -0.347656 L 145.757812 41.527344 C 146.421875 41.917969 146.832031 42.636719 146.828125 43.410156 C 146.824219 44.183594 146.410156 44.894531 145.738281 45.28125 L 73.390625 86.769531 C 72.726562 87.148438 71.90625 87.144531 71.246094 86.757812 C 70.585938 86.367188 70.183594 85.65625 70.191406 84.890625 Z M 70.191406 84.890625 " clip-rule="nonzero"/></clipPath><clipPath id="ef87299950"><rect x="0" width="162" y="0" height="143"/></clipPath><mask id="797afabcad"><g filter="url(#2cfde043a7)"><rect x="-18.75" width="225" fill="#000000" y="-18.749999" height="224.99999" fill-opacity="0.6"/></g></mask><clipPath id="b0fbf9eb53"><path d="M 25 24.609375 L 101.621094 24.609375 L 101.621094 111.964844 L 25 111.964844 Z M 25 24.609375 " clip-rule="nonzero"/></clipPath><clipPath id="668208a026"><path d="M 26.328125 66.433594 L 98.734375 25.054688 C 99.40625 24.671875 100.234375 24.675781 100.902344 25.0625 C 101.570312 25.453125 101.984375 26.167969 101.984375 26.941406 L 101.984375 109.636719 C 101.984375 110.410156 101.570312 111.125 100.902344 111.511719 C 100.234375 111.902344 99.40625 111.902344 98.734375 111.519531 L 26.328125 70.144531 C 25.660156 69.761719 25.25 69.054688 25.25 68.289062 C 25.25 67.523438 25.660156 66.8125 26.328125 66.433594 Z M 26.328125 66.433594 " clip-rule="nonzero"/></clipPath><clipPath id="7c116b7eef"><rect x="0" width="115" y="0" height="137"/></clipPath></defs><g mask="url(#cabeaf0be5)"><g transform="matrix(1, 0, 0, 1, 0, 0)"><g clip-path="url(#98759f2015)"><g clip-path="url(#3e0c93a9c7)"><g clip-path="url(#1793354fd5)"><g clip-path="url(#ff1284b7b3)"><g clip-path="url(#5fe9c3c28f)"><path stroke-linecap="butt" transform="matrix(0.649114, 0.371702, -0.371702, 0.649114, 52.477781, -23.629817)" fill="none" stroke-linejoin="miter" d="M 62.758495 4.341263 L 118.074119 101.140232 C 118.586002 102.044657 118.582461 103.141928 118.062494 104.041457 C 117.544464 104.93386 116.588252 105.481416 115.554465 105.483647 L 5.000611 105.482649 C 3.966824 105.48488 3.007026 104.933229 2.488674 104.038525 C 1.970323 103.143821 1.966737 102.044614 2.479577 101.143148 L 57.794886 4.343164 C 58.305789 3.448824 59.250343 2.901927 60.279598 2.902291 C 61.301726 2.900718 62.24727 3.448496 62.758495 4.341263 Z M 62.758495 4.341263 " stroke="#50d184" stroke-width="16" stroke-opacity="1" stroke-miterlimit="4"/></g></g></g></g></g></g></g><g mask="url(#07d3591b87)"><g transform="matrix(1, 0, 0, 1, 0, 42)"><g clip-path="url(#4c9bf4ed2a)"><g clip-path="url(#986905f78f)"><g clip-path="url(#789b2e96df)"><g clip-path="url(#3b4afb7634)"><g clip-path="url(#96564e9775)"><path stroke-linecap="butt" transform="matrix(0.645018, 0.378767, -0.378767, 0.645018, 52.971654, 31.867477)" fill="none" stroke-linejoin="miter" d="M 62.758896 4.339471 L 118.071648 101.143026 C 118.586228 102.039951 118.581157 103.145127 118.063109 104.03677 C 117.543202 104.935562 116.587736 105.484518 115.55325 105.486384 L 4.999477 105.484993 C 3.96499 105.486859 3.010092 104.933283 2.491009 104.039003 C 1.971927 103.144723 1.965347 102.040332 2.480751 101.144186 L 57.794321 4.341813 C 58.305221 3.44831 59.249036 2.90014 60.279019 2.900917 C 61.301855 2.899836 62.249606 3.451553 62.758896 4.339471 Z M 62.758896 4.339471 " stroke="#4faefc" stroke-width="16" stroke-opacity="1" stroke-miterlimit="4"/></g></g></g></g></g></g></g><g mask="url(#86cfb98ed7)"><g transform="matrix(1, 0, 0, 1, 0, 25)"><g clip-path="url(#f9c639301c)"><g clip-path="url(#28d47e334b)"><g clip-path="url(#5760bd6277)"><path stroke-linecap="butt" transform="matrix(0, 0.748005, -0.748005, 0, 91.9186, 23.20105)" fill="none" stroke-linejoin="miter" d="M 62.75822 4.340511 L 118.071999 101.144846 C 118.583777 102.043068 118.583777 103.144957 118.061555 104.037957 C 117.544555 104.936179 116.588888 105.484513 115.554888 105.484513 L 5.000441 105.484513 C 3.966441 105.484513 3.010775 104.936179 2.488552 104.037957 C 1.971552 103.144957 1.96633 102.043068 2.478108 101.144846 L 57.797109 4.340511 C 58.303665 3.452733 59.254109 2.899177 60.277665 2.899177 C 61.30122 2.899177 62.246442 3.452733 62.75822 4.340511 Z M 62.75822 4.340511 " stroke="#4beddb" stroke-width="16" stroke-opacity="1" stroke-miterlimit="4"/></g></g></g></g></g><g mask="url(#5d03ceca07)"><g transform="matrix(1, 0, 0, 1, 25, 65)"><g clip-path="url(#cd5257b9b2)"><g clip-path="url(#47c560b3e0)"><g clip-path="url(#7ac117d4ec)"><g clip-path="url(#53149292d0)"><g clip-path="url(#92c04a34ca)"><path stroke-linecap="butt" transform="matrix(-0.649114, -0.371702, 0.371702, -0.649114, 109.521195, 145.623217)" fill="none" stroke-linejoin="miter" d="M 62.755518 4.338818 L 118.073737 101.142319 C 118.587557 102.039618 118.582079 103.144015 118.064049 104.036418 C 117.544082 104.935948 116.58787 105.483503 115.554083 105.485734 L 5.000229 105.484736 C 3.963847 105.482436 3.011176 104.932721 2.488292 104.040612 C 1.969941 103.145908 1.968292 102.039575 2.479195 101.145235 L 57.796441 4.338124 C 58.305408 3.450911 59.254493 2.901419 60.276621 2.899846 C 61.301344 2.902805 62.246889 3.450583 62.755518 4.338818 Z M 62.755518 4.338818 " stroke="#50d184" stroke-width="16" stroke-opacity="1" stroke-miterlimit="4"/></g></g></g></g></g></g></g><g mask="url(#d7c40ff080)"><g transform="matrix(1, 0, 0, 1, 25, 0)"><g clip-path="url(#ef87299950)"><g clip-path="url(#c4b7be15ed)"><g clip-path="url(#5e245babf7)"><g clip-path="url(#f775689c79)"><g clip-path="url(#2c61ae1cdb)"><path stroke-linecap="butt" transform="matrix(-0.645018, -0.378767, 0.378767, -0.645018, 109.027322, 111.459533)" fill="none" stroke-linejoin="miter" d="M 62.756961 4.338879 L 118.072358 101.146937 C 118.586937 102.043861 118.583725 103.14189 118.063818 104.040681 C 117.54577 104.932325 116.585801 105.483925 115.555818 105.483148 L 4.997542 105.4844 C 3.967559 105.483622 3.008157 104.932691 2.489074 104.038411 C 1.969992 103.144131 1.966056 102.044243 2.478816 101.143593 L 57.796889 4.338576 C 58.305931 3.452221 59.254249 2.901406 60.277084 2.900325 C 61.302564 2.903747 62.247671 3.450961 62.756961 4.338879 Z M 62.756961 4.338879 " stroke="#4faefc" stroke-width="16" stroke-opacity="1" stroke-miterlimit="4"/></g></g></g></g></g></g></g><g mask="url(#797afabcad)"><g transform="matrix(1, 0, 0, 1, 72, 25)"><g clip-path="url(#7c116b7eef)"><g clip-path="url(#b0fbf9eb53)"><g clip-path="url(#668208a026)"><path stroke-linecap="butt" transform="matrix(0, -0.748005, 0.748005, 0, 23.080377, 113.375757)" fill="none" stroke-linejoin="miter" d="M 62.756457 4.341879 L 118.075458 101.140992 C 118.587236 102.039214 118.582014 103.146325 118.065014 104.039325 C 117.542792 104.932325 116.587125 105.485881 115.553125 105.485881 L 4.998678 105.485881 C 3.964678 105.485881 3.009012 104.932325 2.492012 104.039325 C 1.969789 103.146325 1.969789 102.039214 2.481567 101.140992 L 57.795346 4.341879 C 58.307124 3.448879 59.252346 2.900546 60.275902 2.900546 C 61.299457 2.900546 62.249902 3.448879 62.756457 4.341879 Z M 62.756457 4.341879 " stroke="#4beddb" stroke-width="16" stroke-opacity="1" stroke-miterlimit="4"/></g></g></g></g></g></svg>