<?xml version="1.0" encoding="UTF-8"?><svg xmlns="http://www.w3.org/2000/svg" width="100.925" height="100" viewBox="0 0 100.925 100"><defs><style>.a{fill:#fff;}.b{fill:#e60019;stroke:#e60019;}.b,.c{stroke-width:1.5px;}.c{fill:#2c2e3a;stroke:#2c2e3a;}</style></defs><g transform="translate(-1243.25 -7652)"><rect class="a" width="100" height="100" transform="translate(1244 7652)"/><g transform="translate(1244 7666)"><path class="b" d="M51.142,39.571a3.428,3.428,0,0,1-3.428-3.428V29.285a10.285,10.285,0,1,0-20.571,0v6.857a3.428,3.428,0,0,1-3.428,3.428,1.714,1.714,0,1,0,0,3.428H32.6a5.083,5.083,0,0,0-.316,1.714,5.143,5.143,0,1,0,10.285,0A5.083,5.083,0,0,0,42.255,43h8.887a1.714,1.714,0,1,0,0-3.428Zm-12,5.143A1.714,1.714,0,1,1,37.428,43,1.715,1.715,0,0,1,39.142,44.713Zm-9.491-5.143a6.815,6.815,0,0,0,.92-3.428V29.285a6.857,6.857,0,1,1,13.714,0v6.857a6.815,6.815,0,0,0,.92,3.428Z" transform="translate(46.569 22.141)"/><circle class="b" cx="3.531" cy="3.531" r="3.531" transform="translate(80.902 35.411)"/><path class="c" d="M91.14,7H8.857A6.857,6.857,0,0,0,2,13.857v48a6.857,6.857,0,0,0,6.857,6.857H58.569a1.714,1.714,0,1,0,0-3.428H8.857a3.432,3.432,0,0,1-3.428-3.428v-48a3.432,3.432,0,0,1,3.428-3.428H91.14a3.432,3.432,0,0,1,3.428,3.428V32.713a1.714,1.714,0,1,0,3.428,0V13.857A6.857,6.857,0,0,0,91.14,7Z" transform="translate(-2 -7)"/><path class="c" d="M17,21.428H6.714A1.714,1.714,0,0,1,5,19.714H5A1.714,1.714,0,0,1,6.714,18H17a1.714,1.714,0,0,1,1.714,1.714h0A1.714,1.714,0,0,1,17,21.428Z" transform="translate(5.285 19.713)"/><path class="c" d="M44.427,24.428H6.714A1.714,1.714,0,0,1,5,22.714H5A1.714,1.714,0,0,1,6.714,21H44.427a1.714,1.714,0,0,1,1.714,1.714h0A1.714,1.714,0,0,1,44.427,24.428Z" transform="translate(5.285 26.998)"/><path class="c" d="M23,21.428H12.714A1.714,1.714,0,0,1,11,19.714h0A1.714,1.714,0,0,1,12.714,18H23a1.714,1.714,0,0,1,1.714,1.714h0A1.714,1.714,0,0,1,23,21.428Z" transform="translate(19.856 19.713)"/><path class="c" d="M29,21.428H18.714A1.714,1.714,0,0,1,17,19.714h0A1.714,1.714,0,0,1,18.714,18H29a1.714,1.714,0,0,1,1.714,1.714h0A1.714,1.714,0,0,1,29,21.428Z" transform="translate(34.427 19.713)"/><path class="c" d="M22.142,13.428V27.142H8.428V13.428H22.142m0-3.428H8.428A3.428,3.428,0,0,0,5,13.428V27.142a3.428,3.428,0,0,0,3.428,3.428H22.142a3.428,3.428,0,0,0,3.428-3.428V13.428A3.428,3.428,0,0,0,22.142,10Z" transform="translate(5.285 0.285)"/></g></g></svg>