<?xml version="1.0" encoding="UTF-8"?><svg xmlns="http://www.w3.org/2000/svg" width="100" height="100" viewBox="0 0 100 100"><defs><style>.a{fill:#fff;}.b{fill:#2c2e3a;stroke:#2c2e3a;}.c{fill:#e60019;stroke:#e60019;}</style></defs><g transform="translate(-140 -4692)"><rect class="a" width="100" height="100" transform="translate(140 4692)"/><g transform="translate(-275.81 25.562)"><path class="b" d="M60.24,72.016V23.8a1.672,1.672,0,0,0-1.672-1.672H48.349A1.672,1.672,0,0,0,46.677,23.8V72.016a1.672,1.672,0,0,0,1.672,1.672H58.568A1.672,1.672,0,0,0,60.24,72.016ZM56.9,70.343H50.022V25.476H56.9Z" transform="translate(447.023 4681.107)"/><path class="b" d="M44.927,66.534A1.672,1.672,0,0,0,46.6,64.861V34.445a1.672,1.672,0,0,0-1.672-1.672H34.709a1.672,1.672,0,0,0-1.672,1.672V64.861a1.672,1.672,0,0,0,1.672,1.672ZM36.381,36.117h6.874V63.189H36.381Z" transform="translate(437.851 4688.262)"/><path class="b" d="M21.068,69.885H31.285a1.672,1.672,0,0,0,1.672-1.672V29.46a1.672,1.672,0,0,0-1.672-1.672H21.068A1.672,1.672,0,0,0,19.4,29.46V68.213A1.672,1.672,0,0,0,21.068,69.885ZM22.74,31.132h6.872V66.541H22.74Z" transform="translate(428.679 4684.91)"/><path class="b" d="M17.645,37.745H7.427a1.672,1.672,0,0,0-1.672,1.672v22.1A1.672,1.672,0,0,0,7.427,63.19H17.645a1.672,1.672,0,0,0,1.672-1.672v-22.1A1.672,1.672,0,0,0,17.645,37.745Zm-1.672,22.1H9.1V41.09h6.872Z" transform="translate(419.508 4691.606)"/><path class="c" d="M80.576,7.04a8.054,8.054,0,0,0-8.045,8.044,7.938,7.938,0,0,0,.991,3.785l-10.237,9.1a7.934,7.934,0,0,0-10.7.793l-12.2-7.955a7.937,7.937,0,0,0,.433-2.484,8.044,8.044,0,1,0-16.089,0,7.953,7.953,0,0,0,1.159,4.1l-8.235,7.921A8.229,8.229,0,1,0,19.916,32.8l8.228-7.915A7.951,7.951,0,0,0,38.7,23.706l12.135,7.911a7.948,7.948,0,0,0-.5,2.686,8.044,8.044,0,0,0,16.089,0,7.942,7.942,0,0,0-.987-3.779l10.24-9.1a7.966,7.966,0,0,0,4.893,1.7,8.044,8.044,0,0,0,0-16.088ZM13.043,41.616a4.7,4.7,0,1,1,4.7-4.7A4.7,4.7,0,0,1,13.043,41.616ZM32.768,23.021a4.7,4.7,0,1,1,4.7-4.7A4.7,4.7,0,0,1,32.768,23.021ZM58.386,39a4.7,4.7,0,1,1,4.7-4.7A4.7,4.7,0,0,1,58.386,39Zm22.19-19.219a4.7,4.7,0,1,1,4.7-4.7A4.7,4.7,0,0,1,80.576,19.783Z" transform="translate(419 4670.96)"/></g></g></svg>