<?xml version="1.0" encoding="UTF-8"?><svg xmlns="http://www.w3.org/2000/svg" width="100" height="102" viewBox="0 0 100 102"><defs><style>.a{fill:#fff;}.b{fill:#2c2e3a;}.b,.c{stroke:#fff;stroke-width:2px;}.c{fill:red;}</style></defs><g transform="translate(-692 -6543)"><rect class="a" width="100" height="100" transform="translate(692 6544)"/><g transform="translate(-314.382 1260)"><circle class="b" cx="6" cy="6" r="6" transform="translate(1064.382 5314)"/><path class="b" d="M56.065,28.677A22.581,22.581,0,0,1,78.645,51.258v3.226l11.29,19.355H78.645V96.419H59.29V119h9.677V106.1h9.677a9.677,9.677,0,0,0,9.677-9.677v-12.9h1.613A9.677,9.677,0,0,0,98.29,69L88.323,51.871v-.613A32.258,32.258,0,0,0,56.065,19H50.581A22.863,22.863,0,0,0,48,19.1v9.677c.855,0,1.71-.113,2.581-.113Z" transform="translate(1005.162 5265)"/><path class="c" d="M36.13,70.548h8.065a6.452,6.452,0,1,1,0,12.9H24.84v9.677h12.9v11.29H47.42V92.806a16.129,16.129,0,0,0-3.226-31.935H36.13a6.452,6.452,0,1,1,0-12.9H55.485V38.29H44.194V27H34.517V38.371A16.129,16.129,0,0,0,36.13,70.548Z" transform="translate(988 5269.903)"/></g></g></svg>