<?xml version="1.0" encoding="UTF-8"?><svg xmlns="http://www.w3.org/2000/svg" width="100" height="100" viewBox="0 0 100 100"><defs><style>.a,.d,.e{fill:none;}.b{fill:#2c2e3a;}.c{fill:#e60019;}.d,.e{stroke:#2c2e3a;stroke-width:4px;}.e{stroke-linecap:square;}</style></defs><g transform="translate(-692 -2666)"><rect class="a" width="100" height="100" transform="translate(692 2666)"/><path class="b" d="M80.848,57.228a34.885,34.885,0,0,0,0-21.042,17.874,17.874,0,1,0-23.62-23.62,35.666,35.666,0,0,0-21.042,0,17.874,17.874,0,1,0-23.62,23.62,34.885,34.885,0,0,0,0,21.042,17.874,17.874,0,1,0,23.62,23.62,34.885,34.885,0,0,0,21.042,0,17.874,17.874,0,1,0,23.62-23.62ZM73.531,4.98a14.9,14.9,0,1,1-14.9,14.9,14.9,14.9,0,0,1,14.9-14.9ZM4.98,19.883a14.9,14.9,0,1,1,14.9,14.9,14.9,14.9,0,0,1-14.9-14.9Zm14.9,68.551a14.9,14.9,0,1,1,14.9-14.9,14.9,14.9,0,0,1-14.9,14.9Zm36.362-10.4a32.752,32.752,0,0,1-19.075,0A17.813,17.813,0,0,0,19.883,55.648a18.032,18.032,0,0,0-4.515.6,32.189,32.189,0,0,1,0-19.075,17.816,17.816,0,0,0,21.8-21.787,32.752,32.752,0,0,1,19.075,0A17.813,17.813,0,0,0,73.531,37.766a18.032,18.032,0,0,0,4.515-.6,32.189,32.189,0,0,1,0,19.075,17.816,17.816,0,0,0-21.8,21.787Zm17.287,10.4a14.9,14.9,0,1,1,14.9-14.9,14.9,14.9,0,0,1-14.9,14.9Z" transform="translate(695 2669)"/><path class="c" d="M37.883,20A17.85,17.85,0,0,0,24.814,50.043a1.892,1.892,0,0,0,.149.179,17.828,17.828,0,0,0,25.841,0,1.893,1.893,0,0,0,.149-.179A17.85,17.85,0,0,0,37.883,20ZM25.469,46.109A14.877,14.877,0,0,1,46.78,25.961H33.412a4.484,4.484,0,0,0-4.471,4.471v1.49a2.963,2.963,0,0,0,1.49,2.563V34.9a7.38,7.38,0,0,0,2.98,5.916v1.535h-1.49a5.726,5.726,0,0,0-1.043.075A7.408,7.408,0,0,0,25.469,46.109Zm16.393-.82a5.925,5.925,0,0,1-7.958,0,2.992,2.992,0,0,0,2.489-2.936V42.2a7.526,7.526,0,0,0,2.98,0v.149a2.992,2.992,0,0,0,2.489,2.936Zm-3.979-5.916A4.484,4.484,0,0,1,33.412,34.9h8.941A4.484,4.484,0,0,1,37.883,39.373Zm-5.961-7.451v-1.49a1.49,1.49,0,0,1,1.49-1.49H45.334v1.49a1.49,1.49,0,0,1-1.49,1.49Zm5.961,20.863a14.836,14.836,0,0,1-10.267-4.127,4.4,4.4,0,0,1,2.711-3.011,8.941,8.941,0,0,0,15.111-.015,4.389,4.389,0,0,1,2.712,3.025,14.837,14.837,0,0,1-10.268,4.128ZM50.3,46.109a7.356,7.356,0,0,0-5.365-3.681,6.558,6.558,0,0,0-1.088-.075h-1.49V40.819a7.38,7.38,0,0,0,2.98-5.916v-.268a4.486,4.486,0,0,0,2.98-4.2v-2.98a1.341,1.341,0,0,0-.045-.238,14.855,14.855,0,0,1,2.027,18.9Z" transform="translate(703.824 2677.824)"/><g transform="translate(558.705 573.607)"><path class="d" d="M7064.449,2127.2h12.094" transform="translate(-6860.949 -19.786)"/><path class="d" d="M7064.449,2127.2h12.094" transform="translate(-6860.949 -11.471)"/><path class="d" d="M7064.449,2127.2h12.094" transform="translate(-6860.949 -3.912)"/><path class="e" d="M0,0H8.315" transform="translate(205.012 2107.409) rotate(90)"/><path class="d" d="M0,0H11.533" transform="translate(214.082 2113.74) rotate(90)"/><path class="d" d="M0,0H3.745" transform="translate(209.547 2123.931) rotate(90)"/><path class="d" d="M0,0H3.745" transform="translate(209.547 2103.034) rotate(90)"/></g><g transform="translate(558.705 627.607)"><path class="d" d="M7064.449,2127.2h12.094" transform="translate(-6860.949 -19.786)"/><path class="d" d="M7064.449,2127.2h12.094" transform="translate(-6860.949 -11.471)"/><path class="d" d="M7064.449,2127.2h12.094" transform="translate(-6860.949 -3.912)"/><path class="e" d="M0,0H8.315" transform="translate(205.012 2107.409) rotate(90)"/><path class="d" d="M0,0H11.533" transform="translate(214.082 2113.74) rotate(90)"/><path class="d" d="M0,0H3.745" transform="translate(209.547 2123.931) rotate(90)"/><path class="d" d="M0,0H3.745" transform="translate(209.547 2103.034) rotate(90)"/></g><g transform="translate(504.705 627.607)"><path class="d" d="M7064.449,2127.2h12.094" transform="translate(-6860.949 -19.786)"/><path class="d" d="M7064.449,2127.2h12.094" transform="translate(-6860.949 -11.471)"/><path class="d" d="M7064.449,2127.2h12.094" transform="translate(-6860.949 -3.912)"/><path class="e" d="M0,0H8.315" transform="translate(205.012 2107.409) rotate(90)"/><path class="d" d="M0,0H11.533" transform="translate(214.082 2113.74) rotate(90)"/><path class="d" d="M0,0H3.745" transform="translate(209.547 2123.931) rotate(90)"/><path class="d" d="M0,0H3.745" transform="translate(209.547 2103.034) rotate(90)"/></g><g transform="translate(504.705 573.607)"><path class="d" d="M7064.449,2127.2h12.094" transform="translate(-6860.949 -19.786)"/><path class="d" d="M7064.449,2127.2h12.094" transform="translate(-6860.949 -11.471)"/><path class="d" d="M7064.449,2127.2h12.094" transform="translate(-6860.949 -3.912)"/><path class="e" d="M0,0H8.315" transform="translate(205.012 2107.409) rotate(90)"/><path class="d" d="M0,0H11.533" transform="translate(214.082 2113.74) rotate(90)"/><path class="d" d="M0,0H3.745" transform="translate(209.547 2123.931) rotate(90)"/><path class="d" d="M0,0H3.745" transform="translate(209.547 2103.034) rotate(90)"/></g></g></svg>