<?xml version="1.0" encoding="utf-8"?>
<!-- Generator: Adobe Illustrator 25.4.6, SVG Export Plug-In . SVG Version: 6.00 Build 0)  -->
<svg version="1.1" id="Layer_1" xmlns="http://www.w3.org/2000/svg" xmlns:xlink="http://www.w3.org/1999/xlink" x="0px" y="0px"
	 viewBox="0 0 100 100" style="enable-background:new 0 0 100 100;" xml:space="preserve">
<style type="text/css">
	.st0{fill:#2B2E3B;}
	.st1{fill:#FF0000;}
</style>
<g>
	<path class="st0" d="M50,4.87C25.07,4.87,4.87,25.08,4.87,50S25.07,95.13,50,95.13c24.92,0,45.13-20.21,45.13-45.13
		S74.92,4.87,50,4.87z M31.65,66.51c0,0-3.02-39.63,18.61-54.91c0,0,29.69-0.86,40.94,35.89C91.19,47.5,77.62,73.85,31.65,66.51z"/>
	<path class="st0" d="M51.94,20.73C35.56,32.31,37.84,62.33,37.84,62.33c34.82,5.56,45.1-14.4,45.1-14.4
		C74.43,20.08,51.94,20.73,51.94,20.73z M40.72,59.73c0,0-1.99-26.18,12.29-36.28c0,0,19.62-0.57,27.05,23.71
		C80.06,47.17,71.09,64.58,40.72,59.73z"/>
	<path class="st1" d="M52.32,33.84c-8.43,5.95-5.42,21.12-5.42,21.12c17.92,2.86,21.37-7.13,21.37-7.13
		C63.89,33.5,52.32,33.84,52.32,33.84z"/>
</g>
</svg>
