<?xml version="1.0" encoding="UTF-8"?><svg xmlns="http://www.w3.org/2000/svg" width="100" height="100" viewBox="0 0 100 100"><defs><style>.a,.c,.d{fill:none;}.b{fill:#2c2e3a;}.c,.d{stroke:#e60019;stroke-width:4px;}.d{stroke-linecap:square;}</style></defs><g transform="translate(-1244 -2666)"><g transform="translate(552 1298)"><rect class="a" width="100" height="100" transform="translate(692 1368)"/></g><g transform="translate(-1.472 1294.518)"><g transform="translate(1268.543 1373.077)"><rect class="b" width="3.227" height="3.227" transform="translate(23.083 16.055)"/><rect class="b" width="3.227" height="3.227" transform="translate(28.462 16.055)"/><rect class="b" width="3.227" height="3.227" transform="translate(23.083 22.509)"/><rect class="b" width="3.227" height="3.227" transform="translate(28.462 22.509)"/><rect class="b" width="3.227" height="3.227" transform="translate(23.083 28.964)"/><rect class="b" width="3.227" height="3.227" transform="translate(28.462 28.964)"/><rect class="b" width="3.227" height="3.227" transform="translate(41.371 40.798)"/><rect class="b" width="3.227" height="3.227" transform="translate(41.371 34.343)"/><rect class="b" width="3.227" height="3.227" transform="translate(41.371 27.888)"/><rect class="b" width="3.227" height="3.227" transform="translate(10.173 40.798)"/><rect class="b" width="3.227" height="3.227" transform="translate(10.173 34.343)"/><rect class="b" width="3.227" height="3.227" transform="translate(10.173 27.888)"/><path class="b" d="M22.222,52.833A17.655,17.655,0,0,1,36.988,35.357l-.533-3.178a20.946,20.946,0,0,0,0,41.306l.533-3.178A17.652,17.652,0,0,1,22.222,52.833Z" transform="translate(-12.556 16.438)"/><path class="b" d="M48.6,52.832A17.655,17.655,0,0,1,33.834,70.308l.533,3.178a20.946,20.946,0,0,0,0-41.306l-.533,3.178A17.652,17.652,0,0,1,48.6,52.832Z" transform="translate(-3.493 16.439)"/><path class="b" d="M40.775,2V5.222H34.331v6.444H31.109V22.942H18.222V58.383h.013a27.386,27.386,0,1,0,48.3,0h.013V22.942H53.663V11.666H50.441V5.222H44V2ZM21.444,26.164h9.666V46.343a27.519,27.519,0,0,0-9.666,7.317Zm32.219,0h9.666v27.5a27.519,27.519,0,0,0-9.666-7.317ZM66.55,71.271A24.164,24.164,0,1,1,42.386,47.107,24.192,24.192,0,0,1,66.55,71.271Zm-25.775-27.3v-3.3H44v3.3c-.536-.032-1.066-.082-1.611-.082S41.312,43.935,40.775,43.967Zm9.666-29.079V45.1a27.088,27.088,0,0,0-3.222-.759v-6.9H37.553v6.9a27.4,27.4,0,0,0-3.222.759V14.888ZM47.219,8.444v3.222H37.553V8.444Z" transform="translate(-15 -2)"/></g><g transform="translate(1289.695 1428.55)"><path class="c" d="M7064.449,2127.2h13.011" transform="translate(-7064.448 -2122.489)"/><path class="c" d="M7064.449,2127.2h13.011" transform="translate(-7064.449 -2113.544)"/><path class="c" d="M7064.449,2127.2h13.011" transform="translate(-7064.449 -2105.412)"/><path class="d" d="M0,0H8.945" transform="translate(1.627 4.707) rotate(90)"/><path class="c" d="M0,0H12.406" transform="translate(11.384 11.517) rotate(90)"/><path class="c" d="M0,0H4.028" transform="translate(6.506 22.48) rotate(90)"/><path class="c" d="M0,0H4.028" transform="translate(6.506 0) rotate(90)"/></g></g></g></svg>