<?xml version="1.0" encoding="UTF-8"?><svg xmlns="http://www.w3.org/2000/svg" width="100" height="100" viewBox="0 0 100 100"><defs><style>.a{fill:#fff;}.b{fill:#e60019;stroke:#e60019;}.c{fill:#2c2e3a;stroke:#2c2e3a;}</style></defs><g transform="translate(-692 -5800)"><rect class="a" width="100" height="100" transform="translate(692 5800)"/><g transform="translate(691.5 5799.6)"><path class="b" d="M50,35.7a14.3,14.3,0,0,0-5.5,27.5A14.587,14.587,0,0,0,50,64.3a15.507,15.507,0,0,0,5.6-1.1A14.325,14.325,0,0,0,50,35.7Zm-3.5,25-1.2-7.3,4.9-.5,4.7.5-1.2,7.3A11.1,11.1,0,0,1,46.5,60.7ZM50,47.3a2.2,2.2,0,1,1,2.2-2.2A2.22,2.22,0,0,1,50,47.3Zm7,11.6,1.1-6.6a1.383,1.383,0,0,0-.3-1.2,2.075,2.075,0,0,0-1-.6L51.6,50a5.283,5.283,0,0,0,3.7-5,5.228,5.228,0,0,0-5.2-5.2A5.3,5.3,0,0,0,44.9,45a5.16,5.16,0,0,0,3.8,5l-5.2.5a1.326,1.326,0,0,0-1,.6,1.247,1.247,0,0,0-.3,1.2L43.3,59a11.133,11.133,0,0,1-4.4-9A11.353,11.353,0,0,1,50.2,38.7,11.321,11.321,0,0,1,57,58.9Z"/><path class="c" d="M77.6,51.5h4.6a7.2,7.2,0,1,0,0-3H77.5v-18h4.6a7.273,7.273,0,0,0,7,5.7,7.2,7.2,0,1,0-7-8.7H76A1.538,1.538,0,0,0,74.5,29V48.5H70V23.6A10.243,10.243,0,0,0,59.8,13.4H40A10.243,10.243,0,0,0,29.8,23.6V48.5H25.3V28.9a1.538,1.538,0,0,0-1.5-1.5H17.7a7.273,7.273,0,0,0-7-5.7,7.2,7.2,0,1,0,7,8.7h4.6V48.5H17.7a7.2,7.2,0,1,0,0,3h4.7v18H17.8a7.273,7.273,0,0,0-7-5.7,7.2,7.2,0,1,0,7,8.7h6.1A1.538,1.538,0,0,0,25.4,71V51.5h4.5V76.3A10.243,10.243,0,0,0,40.1,86.5h20A10.243,10.243,0,0,0,70.3,76.3V51.5h4.5V71.1a1.538,1.538,0,0,0,1.5,1.5h6.1a7.273,7.273,0,0,0,7,5.7,7.2,7.2,0,1,0-7-8.7H77.8V51.5Zm11.7-5.7A4.2,4.2,0,1,1,85.1,50,4.225,4.225,0,0,1,89.3,45.8Zm0-21A4.2,4.2,0,1,1,85.1,29,4.225,4.225,0,0,1,89.3,24.8ZM10.7,33.1a4.2,4.2,0,1,1,4.2-4.2A4.225,4.225,0,0,1,10.7,33.1Zm0,21.1A4.2,4.2,0,1,1,14.9,50,4.225,4.225,0,0,1,10.7,54.2Zm0,21A4.2,4.2,0,1,1,14.9,71,4.225,4.225,0,0,1,10.7,75.2Zm56.4,1.2a7.234,7.234,0,0,1-7.2,7.2H40a7.234,7.234,0,0,1-7.2-7.2V23.6A7.234,7.234,0,0,1,40,16.4H60a7.234,7.234,0,0,1,7.2,7.2V76.4Zm22.2-9.5a4.2,4.2,0,1,1-4.2,4.2A4.225,4.225,0,0,1,89.3,66.9Z"/><path class="c" d="M43.1,23.5H56.9a1.5,1.5,0,0,0,0-3H43.1a1.5,1.5,0,0,0,0,3Z"/><path class="c" d="M56.9,76.5H43.1a1.5,1.5,0,0,0,0,3H56.9a1.5,1.5,0,0,0,0-3Z"/></g></g></svg>