<?xml version="1.0" encoding="UTF-8"?><svg xmlns="http://www.w3.org/2000/svg" width="100" height="100" viewBox="0 0 100 100"><defs><style>.a{fill:#fff;}.b,.c{fill:#2c2e3a;}.c{stroke:#2c2e3a;}.d,.e{fill:none;stroke:#e60019;stroke-width:4px;}.e{stroke-linecap:square;}</style></defs><g transform="translate(-140 -3220)"><rect class="a" width="100" height="100" transform="translate(140 3220)"/><rect class="b" width="8" height="4" transform="translate(169 3235)"/><path class="c" d="M80.828,24.176H47.352V7.438A6.445,6.445,0,0,0,40.914,1H7.438A6.445,6.445,0,0,0,1,7.438V74.39a6.445,6.445,0,0,0,6.438,6.438H40.914a6.445,6.445,0,0,0,6.438-6.438V57.652H80.828Zm-38.627,0H11.3V57.652H42.2Zm-28.326,30.9V26.751H37.184a16.693,16.693,0,0,0,0,28.326ZM42.2,24.176V57.652h2.575v10.3H3.575V11.3H15.918l2.575,2.575H29.859L32.434,11.3H44.777V24.176ZM31.9,40.914A14.163,14.163,0,1,1,46.064,55.077,14.18,14.18,0,0,1,31.9,40.914ZM7.438,3.575H40.914a3.867,3.867,0,0,1,3.863,3.863V8.725H31.368L28.793,11.3H19.559L16.984,8.725H3.575V7.438A3.867,3.867,0,0,1,7.438,3.575ZM40.914,78.253H7.438A3.867,3.867,0,0,1,3.575,74.39V70.528h41.2V74.39A3.867,3.867,0,0,1,40.914,78.253ZM78.253,55.077H54.944a16.693,16.693,0,0,0,0-28.326H78.253Z" transform="translate(149.086 3229.086)"/><path class="b" d="M13,28.15h2.575V25.575H18.15V23H13Z" transform="translate(152.536 3235.412)"/><path class="b" d="M57.575,28.15H60.15V23H55v2.575h2.575Z" transform="translate(164.613 3235.412)"/><path class="b" d="M60.15,37H57.575v2.575H55V42.15h5.15Z" transform="translate(164.613 3239.438)"/><path class="b" d="M15.575,37H13v5.15h5.15V39.575H15.575Z" transform="translate(152.536 3239.438)"/><rect class="b" width="8" height="4.5" transform="translate(169 3301)"/><rect class="b" width="8" height="4.5" transform="translate(180 3301)"/><rect class="b" width="8" height="4.5" transform="translate(158 3301)"/><g transform="translate(-14.295 1154.607)"><path class="d" d="M7064.449,2127.2h12.094" transform="translate(-6860.949 -19.786)"/><path class="d" d="M7064.449,2127.2h12.094" transform="translate(-6860.949 -11.471)"/><path class="d" d="M7064.449,2127.2h12.094" transform="translate(-6860.949 -3.912)"/><path class="e" d="M0,0H8.315" transform="translate(205.012 2107.409) rotate(90)"/><path class="d" d="M0,0H11.533" transform="translate(214.082 2113.74) rotate(90)"/><path class="d" d="M0,0H3.745" transform="translate(209.547 2123.931) rotate(90)"/><path class="d" d="M0,0H3.745" transform="translate(209.547 2103.034) rotate(90)"/></g></g></svg>