<?xml version="1.0" encoding="UTF-8"?><svg xmlns="http://www.w3.org/2000/svg" width="100" height="100" viewBox="0 0 100 100"><defs><style>.a{fill:#fff;}.b,.c{fill:#2c2e3a;}.b{stroke:#2c2e3a;}.d{fill:#e60019;}</style></defs><g transform="translate(-140 -4882)"><rect class="a" width="100" height="100" transform="translate(140 4882)"/><g transform="translate(0.355 1298.355)"><path class="b" d="M83.714,43.907V34.636A4.649,4.649,0,0,0,79.078,30H12.636A4.649,4.649,0,0,0,8,34.636V74.81a4.649,4.649,0,0,0,4.636,4.636H79.078a4.649,4.649,0,0,0,4.636-4.636V65.539a7.726,7.726,0,0,0,7.726-7.726V51.632A7.726,7.726,0,0,0,83.714,43.907Zm-3.09,30.9a1.545,1.545,0,0,1-1.545,1.545H12.636A1.545,1.545,0,0,1,11.09,74.81V34.636a1.545,1.545,0,0,1,1.545-1.545H79.078a1.545,1.545,0,0,1,1.545,1.545v9.271H71.352a7.726,7.726,0,0,0-7.726,7.726v6.181a7.726,7.726,0,0,0,7.726,7.726h9.271Zm7.726-17a4.649,4.649,0,0,1-4.636,4.636H71.352a4.649,4.649,0,0,1-4.636-4.636V51.632A4.649,4.649,0,0,1,71.352,47H83.714a4.649,4.649,0,0,1,4.636,4.636Z" transform="translate(144.916 3600.91)"/><path class="c" d="M52.636,43a4.636,4.636,0,1,0,4.636,4.636A4.636,4.636,0,0,0,52.636,43Zm0,6.181a1.545,1.545,0,1,1,1.545-1.545A1.545,1.545,0,0,1,52.636,49.181Z" transform="translate(166.723 3607.997)"/><path class="b" d="M36.907,7A13.907,13.907,0,1,0,50.813,20.907,13.907,13.907,0,0,0,36.907,7Zm0,24.723A10.816,10.816,0,1,1,47.723,20.907,10.816,10.816,0,0,1,36.907,31.723Z" transform="translate(153.094 3588.371)"/><path class="d" d="M35.726,17.726v-3.09a1.545,1.545,0,0,1,1.545,1.545h3.09a4.649,4.649,0,0,0-4.636-4.636V10h-3.09v1.545a4.636,4.636,0,1,0,0,9.271v3.09a1.545,1.545,0,0,1-1.545-1.545H28A4.649,4.649,0,0,0,32.636,27v1.545h3.09V27a4.636,4.636,0,0,0,0-9.271Zm-3.09,0a1.545,1.545,0,0,1,0-3.09Zm3.09,6.181v-3.09a1.545,1.545,0,0,1,0,3.09Z" transform="translate(155.819 3590.006)"/><path class="b" d="M15.907,2A13.907,13.907,0,1,0,29.813,15.907,13.907,13.907,0,0,0,15.907,2Zm0,24.723A10.816,10.816,0,1,1,26.723,15.907,10.816,10.816,0,0,1,15.907,26.723Z" transform="translate(141.645 3585.645)"/><path class="d" d="M14.726,23.542V22a4.636,4.636,0,1,0,0-9.271V9.636a1.545,1.545,0,0,1,1.545,1.545h3.09a4.636,4.636,0,0,0-4.636-4.636V5h-3.09V6.545a4.636,4.636,0,0,0,0,9.271v3.09a1.545,1.545,0,0,1-1.545-1.545H7A4.636,4.636,0,0,0,11.636,22v1.545ZM10.09,11.181a1.545,1.545,0,0,1,1.545-1.545v3.09A1.545,1.545,0,0,1,10.09,11.181Zm4.636,4.636a1.545,1.545,0,0,1,0,3.09Z" transform="translate(144.371 3587.28)"/><path class="b" d="M57.907,2A13.907,13.907,0,1,0,71.813,15.907,13.907,13.907,0,0,0,57.907,2Zm0,24.723A10.816,10.816,0,1,1,68.723,15.907,10.816,10.816,0,0,1,57.907,26.723Z" transform="translate(164.542 3585.645)"/><path class="d" d="M56.726,12.726V9.636a1.545,1.545,0,0,1,1.545,1.545h3.09a4.649,4.649,0,0,0-4.636-4.636V5h-3.09V6.545a4.636,4.636,0,0,0,0,9.271v3.09a1.545,1.545,0,0,1-1.545-1.545H49A4.649,4.649,0,0,0,53.636,22v1.545h3.09V22a4.636,4.636,0,1,0,0-9.271Zm-3.09,0a1.545,1.545,0,0,1,0-3.09Zm3.09,6.181v-3.09a1.545,1.545,0,0,1,0,3.09Z" transform="translate(167.268 3587.28)"/><rect class="b" width="3" height="3" transform="translate(153 3619)"/><rect class="b" width="3" height="3" transform="translate(153 3625)"/><rect class="b" width="3" height="3" transform="translate(159 3619)"/><rect class="b" width="3" height="3" transform="translate(224 3619)"/><rect class="b" width="3" height="3" transform="translate(224 3625)"/><rect class="b" width="3" height="3" transform="translate(218 3619)"/><rect class="b" width="4" height="3" transform="translate(188 3626)"/><rect class="b" width="3" height="34" transform="translate(161 3639)"/></g></g></svg>