<?xml version="1.0" encoding="UTF-8"?><svg xmlns="http://www.w3.org/2000/svg" width="100" height="100" viewBox="0 0 100 100"><defs><style>.a{fill:#fff;}.b{fill:#2c2e3a;}.c{fill:#e60019;}</style></defs><g transform="translate(-1244 -3220)"><rect class="a" width="100" height="100" transform="translate(1244 3220)"/><g transform="translate(1250 3225)"><g transform="translate(11.866 37.575)"><path class="b" d="M92.978,269.4H90.962L91,217.978a1.978,1.978,0,0,1,3.955,0L95,269.4Z" transform="translate(-91 -216)"/></g><g transform="translate(73.172 37.575)"><path class="b" d="M402.978,269.4A1.978,1.978,0,0,1,401,267.418V217.978a1.978,1.978,0,0,1,3.955,0v49.441A1.978,1.978,0,0,1,402.978,269.4Z" transform="translate(-401 -216)"/></g><g transform="translate(79.105 59.329)"><path class="b" d="M432.978,333.91A1.978,1.978,0,0,1,431,331.933v-3.955a1.978,1.978,0,0,1,3.955,0v3.955A1.978,1.978,0,0,1,432.978,333.91Z" transform="translate(-431 -326)"/></g><g transform="translate(5.933 59.329)"><path class="b" d="M62.978,333.91A1.978,1.978,0,0,1,61,331.933v-3.955a1.978,1.978,0,1,1,3.955,0v3.955A1.978,1.978,0,0,1,62.978,333.91Z" transform="translate(-61 -326)"/></g><g transform="translate(0 31.642)"><g transform="translate(0 5.933)"><path class="b" d="M109.739,269.4H50.326v-3.955h59.414a6.306,6.306,0,0,0,6.3-6.3V230.7h3.955v28.439A10.266,10.266,0,0,1,109.739,269.4Zm-65.346,0H41.254A10.266,10.266,0,0,1,31,259.142V226.254A10.266,10.266,0,0,1,41.254,216H62.642a1.978,1.978,0,0,1,1.978,1.978V235.41a1.978,1.978,0,1,1-3.955,0V219.955H41.254a6.306,6.306,0,0,0-6.3,6.3v32.888a6.306,6.306,0,0,0,6.3,6.3h3.139V269.4Zm38.025-9.888H68.575A1.978,1.978,0,0,1,66.6,257.53V239.366a1.978,1.978,0,0,1,3.955,0v16.187h9.888V235.776a1.978,1.978,0,0,1,1.978-1.978h3.955V217.978A1.978,1.978,0,0,1,88.351,216h21.388a10.191,10.191,0,0,1,8.119,3.99,8.9,8.9,0,0,0-1.82,1.1c-.865.667-.319.326-1.31,1.316a6.262,6.262,0,0,0-4.989-2.453H90.329v15.821a1.978,1.978,0,0,1-1.978,1.978H84.4V257.53A1.978,1.978,0,0,1,82.418,259.508Z" transform="translate(-31 -216)"/></g><g transform="translate(29.664)"><path class="b" d="M202.754,235.441H188.91a1.978,1.978,0,0,1-1.978-1.978V213.687h-3.955A1.978,1.978,0,0,1,181,211.709V192.576a6.551,6.551,0,0,1,3.036-5.542,1.978,1.978,0,1,1,2.132,3.332,2.613,2.613,0,0,0-1.212,2.21v17.156h3.955a1.978,1.978,0,0,1,1.978,1.978v19.776h9.888V211.709a1.978,1.978,0,0,1,1.978-1.978h3.955V192.576a2.623,2.623,0,0,0-2.62-2.62h-9.238a1.978,1.978,0,0,1,0-3.955h9.238a6.583,6.583,0,0,1,6.576,6.576v19.134a1.978,1.978,0,0,1-1.978,1.978h-3.955v19.776A1.978,1.978,0,0,1,202.754,235.441Z" transform="translate(-181 -186)"/></g></g><g transform="translate(35.597 11.866)"><path class="c" d="M219.9,103.8a8.9,8.9,0,1,1,8.9-8.9A8.909,8.909,0,0,1,219.9,103.8Zm0-13.843a4.944,4.944,0,1,0,4.944,4.944A4.95,4.95,0,0,0,219.9,89.955Z" transform="translate(-211 -86)"/></g><g transform="translate(29.664 5.933)"><path class="c" d="M208.818,70.832h-2.109a10.877,10.877,0,1,0-21.754,0H181a14.832,14.832,0,1,1,29.664,0Z" transform="translate(-181 -56)"/></g><g transform="translate(23.732)"><path class="c" d="M190.494,46.765h-1.919a16.81,16.81,0,1,0-33.62,0H151a20.765,20.765,0,1,1,41.53,0Z" transform="translate(-151 -26)"/></g></g></g></svg>