<?xml version="1.0" encoding="UTF-8"?><svg xmlns="http://www.w3.org/2000/svg" width="100" height="100" viewBox="0 0 100 100"><defs><style>.a{fill:#fff;}.b{fill:#2c2e3a;}.c{fill:#e60019;}</style></defs><g transform="translate(-692 -3215)"><rect class="a" width="100" height="100" transform="translate(692 3215)"/><g transform="translate(147.5 1324)"><path class="b" d="M17,23.012a1.5,1.5,0,0,0,1.5-1.5V9.5A4.507,4.507,0,0,1,23,5h6.818a1.5,1.5,0,0,0,0-3H23a7.513,7.513,0,0,0-7.5,7.5V21.511A1.5,1.5,0,0,0,17,23.012Z" transform="translate(554.509 1894)"/><path class="b" d="M45.142,47.993a1.5,1.5,0,0,0-1.5-1.5H22.5V43.522a1.5,1.5,0,1,0-3,0v4.47a1.5,1.5,0,0,0,1.5,1.5h22.64A1.5,1.5,0,0,0,45.142,47.993Z" transform="translate(556.512 1914.044)"/><path class="b" d="M31.012,42.012H11.5V24H30.98a1.5,1.5,0,0,0,0-3H10a1.5,1.5,0,0,0-1.5,1.5V43.512a1.5,1.5,0,0,0,1.5,1.5H31.012a1.5,1.5,0,1,0,0-3Z" transform="translate(551.003 1903.516)"/><path class="b" d="M82.21,46.071,72.037,35.9V9.5a7.513,7.513,0,0,0-7.5-7.5H43.521a1.5,1.5,0,1,0,0,3H64.533a4.507,4.507,0,0,1,4.5,4.5V52.278a1.5,1.5,0,0,0,3,0V40.142l8.051,8.051a13.422,13.422,0,0,1,3.956,9.551v31.3H54.027v-11.8a7.717,7.717,0,0,1,7.708-7.709A1.5,1.5,0,0,0,62.8,66.975L50.168,54.347A5.253,5.253,0,1,1,57.6,46.918L74.722,64.042a1.5,1.5,0,1,0,2.122-2.122l-10.81-10.81V9.5a1.5,1.5,0,0,0-1.5-1.5h-7.5a1.5,1.5,0,0,0-1.5,1.5,1.5,1.5,0,0,1-1.5,1.5H39.019a1.5,1.5,0,0,1-1.5-1.5,1.5,1.5,0,0,0-1.5-1.5h-7.5a1.5,1.5,0,0,0-1.5,1.5V24.512H9a4.507,4.507,0,0,0-4.5,4.5V56.03a4.507,4.507,0,0,0,4.5,4.5H21.009V74.039a7.513,7.513,0,0,0,7.5,7.5H51.025v9a1.5,1.5,0,0,0,1.5,1.5H85.544a1.5,1.5,0,0,0,1.5-1.5v-32.8A16.4,16.4,0,0,0,82.21,46.071ZM46.523,78.542H28.513a4.507,4.507,0,0,1-4.5-4.5V60.532H45.629a1.5,1.5,0,0,0,0-3H9a1.5,1.5,0,0,1-1.5-1.5V29.015a1.5,1.5,0,0,1,1.5-1.5H57.029V41.021a1.5,1.5,0,1,0,3,0V21.511a1.5,1.5,0,1,0-3,0v3H30.014V11h4.759a4.512,4.512,0,0,0,4.246,3H54.027a4.512,4.512,0,0,0,4.246-3h4.759v37.1L59.72,44.8A8.255,8.255,0,1,0,48.046,56.469L58.584,67.008a10.73,10.73,0,0,0-7.558,10.238v1.3Z" transform="translate(549 1894)"/><path class="c" d="M29.5,23a9,9,0,1,0,9,9A9,9,0,0,0,29.5,23Zm0,15.008a6,6,0,1,1,6-6,6,6,0,0,1-6,6Z" transform="translate(557.013 1904.517)"/><path class="b" d="M38.5,51.5A4.5,4.5,0,1,0,34,56a4.5,4.5,0,0,0,4.5-4.5ZM34,53a1.5,1.5,0,1,1,1.5-1.5A1.5,1.5,0,0,1,34,53Z" transform="translate(561.521 1916.537)"/></g></g></svg>