<?xml version="1.0" encoding="UTF-8"?><svg xmlns="http://www.w3.org/2000/svg" width="100" height="100" viewBox="0 0 100 100"><defs><style>.a{fill:#fff;}.b{fill:#2c2e3a;}.c{fill:#e60019;}</style></defs><g transform="translate(-692 -5436)"><rect class="a" width="100" height="100" transform="translate(692 5436)"/><g transform="translate(697 5441)"><path class="b" d="M195.651,308.006a12.8,12.8,0,1,0,12.8,12.8A12.815,12.815,0,0,0,195.651,308.006Zm0,20.352a7.551,7.551,0,1,1,7.551-7.551A7.559,7.559,0,0,1,195.651,328.358Z" transform="translate(-150.853 -254.108)"/><path class="b" d="M110.891,366.157h5.25v5.25h-5.25Z" transform="translate(-91.486 -302.083)"/><path class="b" d="M371.109,366.157h5.25v5.25h-5.25Z" transform="translate(-306.168 -302.083)"/><path class="b" d="M63.259,130.314v10.5H42.173v10.5H0v45.793H89.6V130.314ZM47.423,146.063H63.259v5.25H47.423Zm-36.451,10.5a8.788,8.788,0,0,1-5.722,5.722v-5.722ZM5.25,186.134a8.788,8.788,0,0,1,5.722,5.722H5.25Zm11.128,5.722A14.041,14.041,0,0,0,5.25,180.728V167.69a14.041,14.041,0,0,0,11.128-11.128H73.218A14.041,14.041,0,0,0,84.346,167.69v13.038a14.041,14.041,0,0,0-11.128,11.128Zm62.247,0a8.788,8.788,0,0,1,5.722-5.722v5.722Zm5.722-29.571a8.788,8.788,0,0,1-5.722-5.722h5.722Zm0-10.972H68.509v-5.25H84.346Zm-15.837-10.5v-5.25H84.346v5.25Z" transform="translate(0 -107.51)"/><path class="c" d="M26.923,17.641H10.143V8.568a3.319,3.319,0,0,1,6.637,0v2.7h5.25v-2.7a8.568,8.568,0,0,0-17.137,0v9.073H0V37.961H26.923Zm-5.25,15.071H5.25V22.89H21.673Z" transform="translate(0)"/></g></g></svg>