<?xml version="1.0" encoding="UTF-8"?><svg xmlns="http://www.w3.org/2000/svg" width="101.853" height="100" viewBox="0 0 101.853 100"><defs><style>.a{fill:#fff;}.b{fill:#e60019;stroke:#e60019;}.b,.c{stroke-width:1.5px;}.c{fill:#2c2e3a;stroke:#2c2e3a;}</style></defs><g transform="translate(-691.25 -3774)"><g transform="translate(0 1298)"><rect class="a" width="100" height="100" transform="translate(692 2476)"/><g transform="translate(-176 3.889)"><g transform="translate(927.798 2510.826)"><path class="b" d="M50.087,36.83a7.394,7.394,0,0,1-2.668-.628l-5.179,5.179V79.206a1.57,1.57,0,1,1-3.139,0V40.753a1.425,1.425,0,0,1,.471-1.1L45.221,34a4.97,4.97,0,0,1-.628-2.511,5.493,5.493,0,1,1,10.987,0A5.427,5.427,0,0,1,50.087,36.83Z" transform="translate(-39.1 -26)"/></g><g transform="translate(880.713 2524.01)"><path class="b" d="M25.894,39.893V74.422a1.573,1.573,0,0,1-1.57,1.57,1.483,1.483,0,0,1-1.57-1.57V41.463H19.773a5.561,5.561,0,0,1-5.179,3.924,5.493,5.493,0,0,1,0-10.987,5.412,5.412,0,0,1,5.179,3.924h4.552A1.688,1.688,0,0,1,25.894,39.893Z" transform="translate(-9.1 -34.4)"/></g><g transform="translate(939.099 2524.01)"><path class="b" d="M52.735,41.463h-3.3v32.96a1.57,1.57,0,1,1-3.139,0V39.893a1.688,1.688,0,0,1,1.569-1.57h4.865a5.457,5.457,0,1,1,5.179,7.063A5.412,5.412,0,0,1,52.735,41.463Z" transform="translate(-46.3 -34.4)"/></g><g transform="translate(868 2478)"><path class="c" d="M85.439,70.4H79.946a1.573,1.573,0,0,1-1.569-1.57,1.688,1.688,0,0,1,1.569-1.57h5.493c16.637,0,17.422-25.112.628-25.9a1.544,1.544,0,0,1-1.256-2.354c7.22-13.969-10.673-27.937-22.6-17.265h0a14.691,14.691,0,0,0-3.3,4.395,1.579,1.579,0,1,1-2.825-1.413,13.563,13.563,0,0,1,3.3-4.552C48.87-2.111,12.771,9.032,17.951,34.772h0a19.785,19.785,0,0,0,2.511,6.592,1.588,1.588,0,0,1-.628,2.2,1.623,1.623,0,0,1-2.2-.628,26.4,26.4,0,0,1-2.511-6.121,15.363,15.363,0,0,0,4.238,30.134h2.982a1.573,1.573,0,0,1,1.57,1.57,1.483,1.483,0,0,1-1.57,1.57H19.363C9.318,70.4,1,61.924,1,51.723A18.55,18.55,0,0,1,14.5,33.83C10.417,6.05,49.341-6.192,61.583,18.135,75.395,8.09,94.229,22.844,88.264,38.382,107.412,42.149,104.744,70.4,85.439,70.4Z" transform="translate(-1 -5.085)"/></g><g transform="translate(892.327 2510.826)"><path class="b" d="M32.352,39.655a1.425,1.425,0,0,1,.471,1.1V79.206a1.57,1.57,0,1,1-3.139,0V41.381L24.5,36.2a4.743,4.743,0,0,1-2.511.785,5.493,5.493,0,1,1,0-10.987,5.448,5.448,0,0,1,4.865,8Z" transform="translate(-16.5 -26)"/></g><g transform="translate(912.731 2502.978)"><path class="b" d="M40.487,26.493a5.412,5.412,0,0,1-3.924,5.179V82.054a1.57,1.57,0,0,1-3.139,0V31.673a5.457,5.457,0,1,1,7.063-5.179Z" transform="translate(-29.5 -21)"/></g></g></g></g></svg>