<?xml version="1.0" encoding="UTF-8"?><svg xmlns="http://www.w3.org/2000/svg" width="100" height="100" viewBox="0 0 100 100"><defs><style>.a{fill:#fff;}.b{fill:#2c2e3a;}.c{fill:#e60019;}</style></defs><g transform="translate(-1244 -4138)"><rect class="a" width="100" height="100" transform="translate(1244 4138)"/><path class="b" d="M151.717,426.394a1.649,1.649,0,0,1-1.162-.481,1.619,1.619,0,0,1-.2-.25,1.686,1.686,0,0,1-.152-.283,1.743,1.743,0,0,1-.094-.307,1.642,1.642,0,0,1,2.24-1.839,1.774,1.774,0,0,1,.284.151,1.716,1.716,0,0,1,.25.2,1.635,1.635,0,0,1,.449,1.484,1.742,1.742,0,0,1-.094.307,1.688,1.688,0,0,1-.151.283,1.659,1.659,0,0,1-.2.25,1.61,1.61,0,0,1-.534.356,1.651,1.651,0,0,1-.307.094A1.6,1.6,0,0,1,151.717,426.394Zm0,0" transform="translate(1126.587 3792.419)"/><path class="b" d="M94.826,329.727a6.759,6.759,0,0,0-9.161-2.5l-12.126,5.888a7.242,7.242,0,0,0-6.681-4.465H53.692a12.336,12.336,0,0,0-10.026-5.2c-.14,0-.28,0-.418.007A11.658,11.658,0,0,0,32.5,331.938h-.6v-1a1.643,1.643,0,0,0-1.643-1.643H20.51a1.643,1.643,0,0,0-1.643,1.643V350.88a1.643,1.643,0,0,0,1.643,1.643h9.75A1.644,1.644,0,0,0,31.9,350.88v-1.209c6.29,1.191,25.7,4.762,32.281,4.762,3.549,0,9.255-2.585,17.443-7.9,5.87-3.812,10.866-7.678,10.915-7.716a1.649,1.649,0,0,0,.155-.137C95.586,335.792,96.382,332.446,94.826,329.727Zm-66.209,19.51H22.154V332.585h6.463Zm61.828-12.953c-5.429,4.2-20.471,14.863-26.259,14.863-6.441,0-26.861-3.793-32.281-4.822v-11.1h1.888a1.643,1.643,0,0,0,1.6-1.283l.131-.582a8.389,8.389,0,0,1,7.834-6.618c.1,0,.2-.005.307-.005a9.028,9.028,0,0,1,7.723,4.4,1.641,1.641,0,0,0,1.412.8H66.858a3.944,3.944,0,0,1,0,7.888H48.207a1.643,1.643,0,0,0,0,3.287H66.858a7.24,7.24,0,0,0,7.2-6.6l13.087-6.354c.033-.016.066-.034.1-.052a3.466,3.466,0,0,1,4.728,1.252C93.06,333.257,91.324,335.386,90.445,336.284Zm0,0" transform="translate(1236.233 3875.702)"/><path class="b" d="M20.4,40.809a20.476,20.476,0,0,1-3.735-.342,1.642,1.642,0,0,1-1.291-1.2l-.368-1.426a18.1,18.1,0,0,1-3.08-1.271l-1.171.75a1.643,1.643,0,0,1-1.81-.024A20.39,20.39,0,0,1,3.518,31.86a1.643,1.643,0,0,1-.024-1.81l.75-1.171a18.1,18.1,0,0,1-1.27-3.08L1.547,25.43a1.644,1.644,0,0,1-1.2-1.291,20.568,20.568,0,0,1,0-7.472,1.644,1.644,0,0,1,1.2-1.291l1.426-.368a18.106,18.106,0,0,1,1.27-3.081l-.75-1.17a1.643,1.643,0,0,1,.024-1.81A20.4,20.4,0,0,1,8.949,3.516a1.644,1.644,0,0,1,1.81-.024l1.171.75a18.1,18.1,0,0,1,3.08-1.271l.368-1.426a1.642,1.642,0,0,1,1.291-1.2,20.64,20.64,0,0,1,7.471,0,1.642,1.642,0,0,1,1.291,1.2L25.8,2.971a18.05,18.05,0,0,1,3.08,1.271l1.17-.75a1.643,1.643,0,0,1,1.81.024,20.385,20.385,0,0,1,5.432,5.432,1.643,1.643,0,0,1,.024,1.81l-.75,1.17a18.121,18.121,0,0,1,1.27,3.08l1.426.368a1.644,1.644,0,0,1,1.2,1.291,20.567,20.567,0,0,1,0,7.472,1.644,1.644,0,0,1-1.2,1.291l-1.426.368a18.131,18.131,0,0,1-1.271,3.081l.75,1.17a1.643,1.643,0,0,1-.024,1.81,20.4,20.4,0,0,1-5.432,5.432,1.643,1.643,0,0,1-1.81.024l-1.17-.75a18.072,18.072,0,0,1-3.08,1.271l-.368,1.426a1.642,1.642,0,0,1-1.291,1.2A20.422,20.422,0,0,1,20.4,40.809ZM18.29,37.392a17.406,17.406,0,0,0,4.231,0l.334-1.295a1.642,1.642,0,0,1,1.193-1.183,14.829,14.829,0,0,0,4.043-1.674,1.644,1.644,0,0,1,1.732.026l1.058.678a17.118,17.118,0,0,0,3.064-3.064l-.678-1.058a1.643,1.643,0,0,1-.026-1.732,14.848,14.848,0,0,0,1.673-4.043A1.644,1.644,0,0,1,36.1,22.853l1.295-.334a17.315,17.315,0,0,0,0-4.23L36.1,17.955a1.645,1.645,0,0,1-1.184-1.193,14.848,14.848,0,0,0-1.673-4.043,1.644,1.644,0,0,1,.026-1.732l.678-1.057a17.076,17.076,0,0,0-3.064-3.064l-1.058.678a1.644,1.644,0,0,1-1.732.025,14.848,14.848,0,0,0-4.043-1.673A1.643,1.643,0,0,1,22.855,4.71l-.334-1.3a17.406,17.406,0,0,0-4.231,0l-.334,1.3a1.644,1.644,0,0,1-1.193,1.183,14.856,14.856,0,0,0-4.043,1.673,1.643,1.643,0,0,1-1.732-.025L9.929,6.864A17.055,17.055,0,0,0,6.864,9.928l.678,1.057a1.644,1.644,0,0,1,.026,1.732,14.812,14.812,0,0,0-1.673,4.043,1.645,1.645,0,0,1-1.184,1.194l-1.3.334a17.4,17.4,0,0,0,0,4.23l1.3.334a1.644,1.644,0,0,1,1.184,1.193A14.808,14.808,0,0,0,7.568,28.09a1.643,1.643,0,0,1-.026,1.732L6.864,30.88a17.055,17.055,0,0,0,3.064,3.064l1.058-.678a1.643,1.643,0,0,1,1.732-.025,14.856,14.856,0,0,0,4.043,1.673A1.643,1.643,0,0,1,17.955,36.1ZM38.852,23.839h0Zm0,0" transform="translate(1252 4146)"/><path class="b" d="M63.824,75.687A11.867,11.867,0,1,1,75.691,63.82,11.88,11.88,0,0,1,63.824,75.687Zm0-20.447A8.58,8.58,0,1,0,72.4,63.82,8.59,8.59,0,0,0,63.824,55.24Zm0,0" transform="translate(1208.581 4102.584)"/><path class="c" d="M261.453,113.086a22.215,22.215,0,0,1-4.047-.37,1.643,1.643,0,0,1-1.291-1.2l-.422-1.635a19.66,19.66,0,0,1-3.491-1.44l-1.35.865a1.642,1.642,0,0,1-1.81-.024,22.1,22.1,0,0,1-5.885-5.884,1.643,1.643,0,0,1-.024-1.81l.865-1.35a19.546,19.546,0,0,1-1.44-3.491l-1.636-.422a1.644,1.644,0,0,1-1.2-1.291,22.3,22.3,0,0,1,0-8.094,1.644,1.644,0,0,1,1.2-1.291l1.636-.422A19.539,19.539,0,0,1,244,81.73l-.865-1.35a1.644,1.644,0,0,1,.024-1.81,22.093,22.093,0,0,1,5.885-5.884,1.642,1.642,0,0,1,1.81-.024l1.35.865a19.611,19.611,0,0,1,3.491-1.44l.422-1.636a1.642,1.642,0,0,1,1.291-1.2,22.392,22.392,0,0,1,8.094,0,1.641,1.641,0,0,1,1.291,1.2l.423,1.636a19.605,19.605,0,0,1,3.49,1.44l1.35-.865a1.643,1.643,0,0,1,1.81.024,22.09,22.09,0,0,1,5.884,5.884,1.643,1.643,0,0,1,.024,1.81l-.865,1.35a19.632,19.632,0,0,1,1.44,3.49l1.636.422a1.642,1.642,0,0,1,1.2,1.291,22.26,22.26,0,0,1,0,8.094,1.643,1.643,0,0,1-1.2,1.291l-1.636.422a19.658,19.658,0,0,1-1.44,3.491l.865,1.35a1.643,1.643,0,0,1-.024,1.81,22.09,22.09,0,0,1-5.884,5.884,1.643,1.643,0,0,1-1.81.024l-1.35-.865a19.634,19.634,0,0,1-3.49,1.44l-.423,1.635a1.642,1.642,0,0,1-1.291,1.2A22.216,22.216,0,0,1,261.453,113.086Zm-2.426-3.441a19.116,19.116,0,0,0,4.851,0l.39-1.51a1.644,1.644,0,0,1,1.193-1.184,16.333,16.333,0,0,0,4.45-1.842,1.643,1.643,0,0,1,1.732.025l1.242.8a18.806,18.806,0,0,0,3.516-3.516l-.8-1.242a1.643,1.643,0,0,1-.025-1.732,16.334,16.334,0,0,0,1.842-4.45,1.643,1.643,0,0,1,1.184-1.193l1.51-.39a19.1,19.1,0,0,0,0-4.851l-1.51-.39a1.643,1.643,0,0,1-1.184-1.193,16.322,16.322,0,0,0-1.842-4.45,1.643,1.643,0,0,1,.025-1.732l.8-1.242a18.767,18.767,0,0,0-3.516-3.516l-1.242.8a1.644,1.644,0,0,1-1.732.026,16.315,16.315,0,0,0-4.45-1.842,1.642,1.642,0,0,1-1.193-1.184l-.39-1.51a19.116,19.116,0,0,0-4.851,0l-.39,1.51a1.644,1.644,0,0,1-1.193,1.184,16.327,16.327,0,0,0-4.451,1.842,1.643,1.643,0,0,1-1.732-.026l-1.241-.8a18.767,18.767,0,0,0-3.516,3.516l.8,1.242a1.643,1.643,0,0,1,.026,1.732,16.344,16.344,0,0,0-1.842,4.45,1.641,1.641,0,0,1-1.183,1.193l-1.51.39a19.092,19.092,0,0,0,0,4.851l1.51.39a1.642,1.642,0,0,1,1.183,1.193,16.335,16.335,0,0,0,1.842,4.45,1.643,1.643,0,0,1-.026,1.732l-.8,1.242a18.767,18.767,0,0,0,3.516,3.516l1.241-.8a1.643,1.643,0,0,1,1.732-.025,16.347,16.347,0,0,0,4.451,1.842,1.642,1.642,0,0,1,1.193,1.183Zm22.545-14.918h0Zm0,0" transform="translate(1051.983 4088.441)"/><path class="c" d="M306.838,149.535a13.182,13.182,0,1,1,13.181-13.182A13.2,13.2,0,0,1,306.838,149.535Zm0-23.077a9.895,9.895,0,1,0,9.895,9.895A9.906,9.906,0,0,0,306.838,126.458Zm0,0" transform="translate(1006.599 4043.068)"/><path class="c" d="M353.356,173.777c-1.972-.065-3.582-1.084-3.582-2.136,0-.558.493-1.38,1.118-1.38.69,0,1.249.969,2.465,1.183v-2.663c-1.512-.575-3.286-1.282-3.286-3.385,0-2.087,1.545-3.089,3.286-3.336v-.46c0-.23.263-.444.625-.444.312,0,.624.214.624.444v.411c1.019.033,2.942.3,2.942,1.43,0,.444-.3,1.348-1.019,1.348-.542,0-.854-.526-1.923-.608v2.4c1.5.558,3.238,1.331,3.238,3.55a3.493,3.493,0,0,1-3.238,3.582v.476c0,.23-.312.444-.624.444-.362,0-.625-.214-.625-.444Zm.165-7.592V164.23c-.74.148-1.052.526-1.052.92C352.469,165.626,352.9,165.922,353.521,166.185Zm.92,3.041v2.2c.559-.132,1-.444,1-1.035C355.443,169.85,355.033,169.5,354.441,169.226Zm0,0" transform="translate(959.703 4011.326)"/></g></svg>