<?xml version="1.0" encoding="UTF-8"?><svg xmlns="http://www.w3.org/2000/svg" width="100" height="100" viewBox="0 0 100 100"><defs><style>.a{fill:#fff;}.b{fill:none;stroke:#e60019;stroke-width:4px;}.c{fill:#2c2e3a;stroke:#2c2e3a;stroke-width:1.5px;}</style></defs><g transform="translate(-692 -4692)"><rect class="a" width="100" height="100" transform="translate(692 4692)"/><g transform="translate(428.561 2217.269)"><g transform="translate(101.627 428.95)"><path class="b" d="M7064.449,2127.2h16" transform="translate(-6860.949 -18.695)"/><path class="b" d="M7064.449,2127.2h16" transform="translate(-6860.949 -7.695)"/><path class="b" d="M7064.449,2127.2h16" transform="translate(-6860.949 2.305)"/><path class="b" d="M7064.448,2127.2h14.194" transform="translate(2332.695 -4957.459) rotate(90)"/><path class="b" d="M7064.448,2127.2h12.417" transform="translate(2344.695 -4945.792) rotate(90)"/><path class="b" d="M7064.448,2127.2h4.955" transform="translate(2338.695 -4935.414) rotate(90)"/><path class="b" d="M7064.448,2127.2h4.955" transform="translate(2338.695 -4960.414) rotate(90)"/></g><path class="c" d="M71.218,85.235V43.765H66.957V32.455H62.039c2.623-6.393.983-11.31-.983-14.424h0a18.49,18.49,0,0,0-8.36-6.884C42.861,6.884,41.55,1.475,41.55,1.475a17.625,17.625,0,0,0-1.639-3.744,22.172,22.172,0,0,0-1.639,3.58S36.96,6.72,27.125,10.982a18.49,18.49,0,0,0-8.36,6.884,15.173,15.173,0,0,0-.983,14.424H12.865V43.6H8.6l-.16,44.843c1.772,0,14.514.007,62.779.044ZM21.552,19.67A15.738,15.738,0,0,1,28.437,14.1c6.393-2.787,9.835-6.229,11.474-8.687,1.639,2.459,4.917,5.737,11.474,8.687a14.857,14.857,0,0,1,6.884,5.573h0c2.459,3.77,2.459,8.032.164,12.621H21.388C19.094,27.7,19.094,23.44,21.552,19.67ZM16.143,35.733H63.514v8.032H16.143Zm-4.262,11.31H67.776V85.235H11.881Z" transform="translate(274 2482)"/></g></g></svg>