<?xml version="1.0" encoding="UTF-8"?><svg xmlns="http://www.w3.org/2000/svg" width="100" height="100" viewBox="0 0 100 100"><defs><style>.a{fill:#fff;}.b{fill:#e60019;}.c{fill:#2c2e3a;stroke:#2c2e3a;}</style></defs><g transform="translate(-140 -4328)"><g transform="translate(0 1298)"><rect class="a" width="100" height="100" transform="translate(140 3030)"/><g transform="translate(-347 63)"><path class="b" d="M53.794,47h-5.4a1.159,1.159,0,0,1-1.158-1.158v-.4a1.16,1.16,0,0,1,1.158-1.159h8.425v-2.5H52.649V37.95h-2.5v3.833H48.39a3.662,3.662,0,0,0-3.658,3.659v.4A3.662,3.662,0,0,0,48.39,49.5h5.4a1.159,1.159,0,0,1,1.157,1.158v.4a1.159,1.159,0,0,1-1.157,1.159H45.367v2.5h4.782V58.55h2.5V54.719h1.145a3.662,3.662,0,0,0,3.657-3.659v-.4A3.662,3.662,0,0,0,53.794,47Z" transform="translate(487 2969)"/><path class="b" d="M25.132,68.226H20.884a.644.644,0,0,1-.643-.643v-.315a.644.644,0,0,1,.643-.643h6.623v-2.5H24.5V61.379H22v2.746H20.885a3.147,3.147,0,0,0-3.143,3.143v.315a3.147,3.147,0,0,0,3.143,3.143h4.248a.645.645,0,0,1,.643.644v.314a.645.645,0,0,1-.643.645H18.509v2.5H22v2.743h2.5V74.829h.632a3.147,3.147,0,0,0,3.143-3.145V71.37A3.147,3.147,0,0,0,25.132,68.226Z" transform="translate(487 2969)"/><path class="c" d="M23.008,55.364A14.112,14.112,0,1,0,37.12,69.475,14.127,14.127,0,0,0,23.008,55.364Zm0,25.725A11.612,11.612,0,1,1,34.62,69.476,11.626,11.626,0,0,1,23.008,81.089Z" transform="translate(487 2969)"/><path class="b" d="M76.633,76.036H72.385a.644.644,0,0,1-.643-.643v-.315a.644.644,0,0,1,.643-.643h6.623v-2.5H76V69.189H73.5v2.746H72.385a3.147,3.147,0,0,0-3.143,3.143v.315a3.147,3.147,0,0,0,3.143,3.143h4.248a.645.645,0,0,1,.643.644v.314a.645.645,0,0,1-.643.645H70.008v2.5H73.5v2.743H76V82.639h.633a3.148,3.148,0,0,0,3.143-3.145V79.18A3.148,3.148,0,0,0,76.633,76.036Z" transform="translate(487 2969)"/><path class="c" d="M74.508,63.175A14.112,14.112,0,1,0,88.621,77.286,14.127,14.127,0,0,0,74.508,63.175Zm0,25.724A11.612,11.612,0,1,1,86.121,77.286,11.626,11.626,0,0,1,74.508,88.9Z" transform="translate(487 2969)"/><path class="c" d="M91.214,47.358a3.8,3.8,0,0,0-5.826,0c-.486.477-.678.642-1.16.642s-.673-.165-1.158-.642a3.8,3.8,0,0,0-5.82,0c-.484.476-.676.641-1.156.641s-.672-.165-1.156-.641a3.8,3.8,0,0,0-5.821,0,5.241,5.241,0,0,1-.438.393A17.6,17.6,0,0,0,33.558,46.71,3.535,3.535,0,0,0,31.384,46a3.889,3.889,0,0,0-2.909,1.359c-.484.476-.676.641-1.155.641s-.671-.165-1.155-.641a3.794,3.794,0,0,0-5.819,0c-.483.476-.675.641-1.155.641s-.671-.165-1.155-.641a3.793,3.793,0,0,0-5.818,0c-.483.476-.675.641-1.154.641s-.671-.165-1.155-.641A3.889,3.889,0,0,0,7,46v2.5c.48,0,.671.165,1.155.641a3.792,3.792,0,0,0,5.817,0c.484-.476.675-.641,1.155-.641s.671.165,1.155.641a3.793,3.793,0,0,0,5.818,0c.484-.476.675-.641,1.155-.641s.671.165,1.155.641a3.793,3.793,0,0,0,5.818,0c.484-.477.675-.641,1.155-.641s.671.165,1.155.641a5.727,5.727,0,0,0,1.028.837,17.6,17.6,0,0,0,34.984.476,4.053,4.053,0,0,0,2.319-1.312c.485-.477.677-.642,1.158-.642s.672.165,1.155.641a3.8,3.8,0,0,0,5.82,0c.484-.477.676-.641,1.156-.641s.672.165,1.156.641a3.8,3.8,0,0,0,5.823,0c.485-.477.678-.642,1.161-.642s.676.165,1.161.642A3.9,3.9,0,0,0,92.372,50.5V48C91.892,48,91.7,47.835,91.214,47.358Zm-40.122,16A15.112,15.112,0,1,1,66.2,48.25,15.129,15.129,0,0,1,51.092,63.362Z" transform="translate(487 2969)"/><path class="c" d="M13.5,27.875H25.482V42.75h2.5V25.375H11v17.25h2.5Z" transform="translate(487 2969)"/><path class="c" d="M34.006,20H45.988v9.25h2.5V17.5H31.506V40.25h2.5Z" transform="translate(487 2969)"/><path class="c" d="M54.512,13.5H66.494V36.25h2.5V11H52.012V29.25h2.5Z" transform="translate(487 2969)"/><path class="c" d="M75.018,8.5H87V44.25h2.5V6H72.518V44.25h2.5Z" transform="translate(487 2969)"/></g></g></g></svg>