<?xml version="1.0" encoding="UTF-8"?><svg xmlns="http://www.w3.org/2000/svg" width="100" height="100" viewBox="0 0 100 100"><defs><style>.a{fill:#fff;}.b{fill:#2c2e3a;stroke:#2c2e3a;}.c{fill:#e60019;stroke:#e60019;}</style></defs><g transform="translate(-1244 -3584)"><rect class="a" width="100" height="100" transform="translate(1244 3584)"/><g transform="translate(1248.381 3585.352)"><path class="b" d="M38.712,12.759,44.539,14.9a1.553,1.553,0,1,0,1.07-2.916L39.782,9.842a1.554,1.554,0,0,0-1.07,2.917Z" transform="translate(17.195 3.928)"/><path class="b" d="M11.57,71.558a9.128,9.128,0,0,0,.887.466,7.75,7.75,0,0,0,4.649,9.845L49.189,93.637a7.767,7.767,0,0,0,9.966-4.618l2.9-7.911a2,2,0,0,0,.332-.019l6.175-.69a6.223,6.223,0,0,0,5.483-6.867A6.159,6.159,0,0,0,72.8,70.478a6.147,6.147,0,0,0,3.588-9.786,6.145,6.145,0,0,0,3.593-9.786A6.2,6.2,0,0,0,77.966,38.7l-.367.042,2.951-8.062h0l2.139-5.833a7.767,7.767,0,0,0-4.617-9.966L45.99,3.122A7.778,7.778,0,0,0,36.024,7.74l-2.139,5.833h0l-1.025,2.8c-3.358-1.449-5.747-1.76-7.611-1.01-2.285.916-3.122,3.2-3.862,5.215L7.251,59.116A10.355,10.355,0,0,0,6.8,64.621a10.5,10.5,0,0,0,4.767,6.937Zm44.668,16.4a4.66,4.66,0,0,1-5.979,2.771L18.176,78.957a4.66,4.66,0,0,1-2.771-5.98h0a9.67,9.67,0,0,0,4.088-.255,17.121,17.121,0,0,0,9.225-6.439l26.889,9.862h.026a6.145,6.145,0,0,0,2.187,3.63,6.279,6.279,0,0,0,1.156.713Zm-28.4-48.876,8.425-22.968L77.1,31.087l-2.951,8.06-2.356.264a6.2,6.2,0,0,0-4.256,9.918,6.156,6.156,0,0,0-3.584,9.786,6.153,6.153,0,0,0-3.594,9.778,6.145,6.145,0,0,0-3.515,2.159,6.221,6.221,0,0,0-1.007,1.873l-25.5-9.362c.222-.466.443-.932.621-1.428l1.6-4.374a17.012,17.012,0,0,0-4.724-18.685ZM70.3,76.168a3.09,3.09,0,0,1-2.083,1.148l-6.175.691a3.107,3.107,0,1,1-.691-6.175l4.631-.519h0l1.544-.172a3,3,0,0,1,.353-.02A3.107,3.107,0,0,1,70.3,76.168Zm1.511-8.634-4.631.519h0l-1.542.174a3.107,3.107,0,1,1-.693-6.176l4.632-.519h0l1.553-.172a2.842,2.842,0,0,1,.343-.019,3.107,3.107,0,0,1,.345,6.193Zm5.676-10.929A3.091,3.091,0,0,1,75.4,57.755l-4.629.519h0l-1.544.172a3.107,3.107,0,1,1-.691-6.175l4.631-.519h0l1.544-.174a3.309,3.309,0,0,1,.348-.019,3.107,3.107,0,0,1,2.426,5.045Zm.82-14.807a2.974,2.974,0,0,1,.357-.02,3.107,3.107,0,0,1,.34,6.195l-4.631.519h0l-1.542.172a3.107,3.107,0,1,1-.693-6.175ZM38.941,8.809a4.66,4.66,0,0,1,5.98-2.77L77,17.807a4.66,4.66,0,0,1,2.77,5.98l-1.6,4.374L37.337,13.184ZM10.162,60.189,24.3,21.641c.685-1.864,1.168-3.026,2.1-3.4a2.65,2.65,0,0,1,1.005-.163,11.63,11.63,0,0,1,4.387,1.212l-.743,2.019-6.5,17.724a1.553,1.553,0,0,0,.511,1.766,13.923,13.923,0,0,1,4.593,15.894l-1.6,4.376a14.027,14.027,0,0,1-9.385,8.657,6.794,6.794,0,0,1-5.454-.808,7.382,7.382,0,0,1-3.355-4.876,7.232,7.232,0,0,1,.311-3.852Z" transform="translate(0 0)"/><path class="b" d="M29.373,48.152A4.66,4.66,0,1,0,32,50.569a4.66,4.66,0,0,0-2.624-2.417Zm-.148,4.91a1.553,1.553,0,1,1-.048-1.187,1.535,1.535,0,0,1,.048,1.187Z" transform="translate(9.124 25.022)"/><path class="c" d="M33.739,32.124a1.553,1.553,0,1,0,.923,1.993A1.553,1.553,0,0,0,33.739,32.124Z" transform="translate(13.851 16.258)"/><path class="c" d="M29.59,24.637A15.534,15.534,0,0,1,50.209,32.2a1.554,1.554,0,0,0,2.819-1.306A18.64,18.64,0,0,0,28.283,21.82a1.553,1.553,0,1,0,1.306,2.818Z" transform="translate(11.472 9.651)"/><path class="c" d="M39.416,24.851a12.343,12.343,0,0,0-9.376.34,1.553,1.553,0,0,0,1.278,2.832,9.3,9.3,0,0,1,12.306,4.66,1.554,1.554,0,1,0,2.833-1.277,12.32,12.32,0,0,0-7.041-6.555Z" transform="translate(12.454 11.864)"/><path class="c" d="M36.374,28.47a6.167,6.167,0,0,0-4.752.2,1.553,1.553,0,0,0,1.306,2.818A3.107,3.107,0,0,1,37.054,33a1.553,1.553,0,0,0,2.818-1.306,6.173,6.173,0,0,0-3.5-3.223Z" transform="translate(13.355 14.077)"/></g></g></svg>