<?xml version="1.0" encoding="UTF-8"?><svg xmlns="http://www.w3.org/2000/svg" width="100" height="100" viewBox="0 0 100 100"><defs><style>.a{fill:#fff;}.b{fill:#2c2e3a;stroke:#2c2e3a;}.c{fill:#e60019;}</style></defs><g transform="translate(-140 -4138)"><rect class="a" width="100" height="100" transform="translate(140 4138)"/><g transform="translate(61.334 4146)"><g transform="translate(103.666)"><path class="b" d="M153.666,8.055A8.064,8.064,0,0,0,145.611,0h-33.89a8.064,8.064,0,0,0-8.055,8.055V75.971a8.064,8.064,0,0,0,8.055,8.055h33.89a8.064,8.064,0,0,0,8.055-8.055V8.055ZM106.948,69.21V14.816l43.435.007V69.21H106.948Zm0-61.155a4.778,4.778,0,0,1,4.773-4.773h33.89a4.778,4.778,0,0,1,4.773,4.773v3.478H106.948Zm38.663,72.689h-33.89a4.778,4.778,0,0,1-4.773-4.773V72.493l43.435.007v3.471a4.778,4.778,0,0,1-4.773,4.773Z" transform="translate(-103.666)"/><path class="b" d="M233.977,35.139H227.3a1.641,1.641,0,0,0,0,3.282h6.676a1.641,1.641,0,1,0,0-3.282Z" transform="translate(-205.639 -29.372)"/><path class="b" d="M240.809,455.379h-3.338a1.641,1.641,0,1,0,0,3.282h3.338a1.641,1.641,0,1,0,0-3.282Z" transform="translate(-214.14 -380.645)"/><path class="c" d="M220.566,179.1a1.641,1.641,0,0,0-2.551,2.066,7.061,7.061,0,0,0,4.076,2.328v.037a1.641,1.641,0,0,0,3.28.084,5.319,5.319,0,0,0,4.826-4.471,6,6,0,0,0-4.265-6.249l-.559-.2v-4.2a1.823,1.823,0,0,1,.81.581,1.641,1.641,0,0,0,2.682-1.892,5.466,5.466,0,0,0-3.492-2.085v-.133a1.641,1.641,0,1,0-3.282,0v.25q-.261.062-.528.142a5.068,5.068,0,0,0-3.47,4.445,4.726,4.726,0,0,0,2.895,4.71c.249.117.627.274,1.1.461V180.1A3.383,3.383,0,0,1,220.566,179.1Zm6.375-.369a1.894,1.894,0,0,1-1.567,1.536v-4.049A2.6,2.6,0,0,1,226.941,178.73Zm-5.574-8.683a1.875,1.875,0,0,1,.725-1.331v2.67A1.389,1.389,0,0,1,221.367,170.047Z" transform="translate(-198.944 -136.523)"/><path class="b" d="M223.636,372.621H211.907a1.641,1.641,0,1,0,0,3.282h11.729a1.641,1.641,0,0,0,0-3.282Z" transform="translate(-192.772 -311.469)"/></g></g></g></svg>