<?xml version="1.0" encoding="UTF-8"?><svg xmlns="http://www.w3.org/2000/svg" width="100" height="100" viewBox="0 0 100 100"><defs><style>.a{fill:#fff;}.b{fill:#2c2e3a;stroke:#2c2e3a;}.c{fill:#e60019;stroke:#e60019;}</style></defs><g transform="translate(-692 -3584)"><rect class="a" width="100" height="100" transform="translate(692 3584)"/><g transform="translate(698 3590)"><rect class="b" width="46" height="3" transform="translate(7.375 48.375)"/><path class="b" d="M85.051,61.015A1.849,1.849,0,0,1,83.2,62.864H5.547A1.849,1.849,0,0,1,3.7,61.015V5.547A1.849,1.849,0,0,1,5.547,3.7H44.375V0H5.547A5.547,5.547,0,0,0,0,5.547V61.015a5.547,5.547,0,0,0,5.547,5.547H29.583V77.655h-3.7A1.849,1.849,0,0,0,24.036,79.5v5.547h-3.7v3.7H68.411v-3.7h-3.7V79.5a1.849,1.849,0,0,0-1.849-1.849h-3.7V66.562H83.2a5.547,5.547,0,0,0,5.547-5.547V44.375h-3.7ZM61.015,85.051H27.734v-3.7H61.015Zm-5.547-7.4H33.281V66.562H55.468Z"/><path class="b" d="M5,6.849V40.13H8.7V8.7H34.583V5H6.849A1.849,1.849,0,0,0,5,6.849Z" transform="translate(4.245 4.245)"/><path class="b" d="M46.036,48.072A24.036,24.036,0,1,0,22,24.036,24.036,24.036,0,0,0,46.036,48.072Zm0-44.375A20.338,20.338,0,1,1,25.7,24.036,20.338,20.338,0,0,1,46.036,3.7Z" transform="translate(18.677 0)"/><path class="c" d="M34.7,28.187h1.849v3.7h3.7v-3.7h1.849a3.7,3.7,0,0,0,3.7-3.7v-3.7a3.7,3.7,0,0,0-3.7-3.7H34.7V13.4h7.4v1.849h3.7V13.4a3.7,3.7,0,0,0-3.7-3.7H40.245V6h-3.7V9.7H34.7A3.7,3.7,0,0,0,31,13.4v3.7a3.7,3.7,0,0,0,3.7,3.7h7.4v3.7H34.7V22.64H31v1.849A3.7,3.7,0,0,0,34.7,28.187Z" transform="translate(26.317 5.094)"/><path class="b" d="M10,27.245a1.849,1.849,0,0,0,1.849,1.849H32.187V25.4H13.7V21.7H28.489V18H11.849A1.849,1.849,0,0,0,10,19.849Z" transform="translate(8.489 15.281)"/><rect class="b" width="4" height="3" transform="translate(18.375 26.375)"/><rect class="b" width="3" height="3" transform="translate(26.375 26.375)"/><rect class="b" width="17" height="4" transform="translate(18.375 18.375)"/></g></g></svg>