<?xml version="1.0" encoding="UTF-8"?><svg xmlns="http://www.w3.org/2000/svg" width="100" height="100" viewBox="0 0 100 100"><defs><style>.a{fill:#fff;}.b{fill:#2c2e3a;stroke:#2c2e3a;}.b,.c{stroke-width:1.5px;}.c{fill:#e60019;stroke:#e60019;}</style></defs><g transform="translate(-1244 -6544)"><rect class="a" width="100" height="100" transform="translate(1244 6544)"/><g transform="translate(-405.174 1391.826)"><path class="b" d="M3.132,44.531l19.359,2.516L23,45.54a3.571,3.571,0,0,1,.4-.791L3.441,42.156a1.211,1.211,0,0,1-1.045-1.2V3.609a1.2,1.2,0,0,1,.413-.918,1.17,1.17,0,0,1,.779-.3,1.19,1.19,0,0,1,.157.01L37.119,6.742v4.116c.461-.033.924-.054,1.386-.054.337,0,.673.011,1.009.029V6.742L72.888,2.4a1.166,1.166,0,0,1,.936.286,1.2,1.2,0,0,1,.413.918V40.951a1.211,1.211,0,0,1-1.045,1.2L53.234,44.749a3.57,3.57,0,0,1,.4.791l.513,1.506L73.5,44.531a3.612,3.612,0,0,0,3.131-3.579V3.609A3.616,3.616,0,0,0,75.4.892,3.579,3.579,0,0,0,72.58.03L38.316,4.482,4.053.03A3.6,3.6,0,0,0,0,3.609V40.951A3.612,3.612,0,0,0,3.131,44.53Z" transform="translate(1661 5164)"/><path class="b" d="M9.045,23.414l17.908,2.313a20.458,20.458,0,0,1,2.313-2.116L9.351,21.039a1.2,1.2,0,1,0-.306,2.375Z" transform="translate(1657.79 5155.561)"/><path class="b" d="M9.045,43.414l12.71,1.641c.026-.275.045-.548.085-.828.075-.519.172-1.032.289-1.538L9.351,41.039a1.2,1.2,0,0,0-.306,2.375Z" transform="translate(1657.79 5147.534)"/><path class="b" d="M9.047,63.415,24.959,65.47a28.42,28.42,0,0,1-1.369-2.592L10.343,61.165l-.994-.126a1.2,1.2,0,1,0-.3,2.375Z" transform="translate(1657.79 5139.508)"/><path class="b" d="M107.654,61.039,94.013,62.8A27.486,27.486,0,0,1,92.6,65.4l15.359-1.983a1.2,1.2,0,0,0-.306-2.375Z" transform="translate(1623.838 5139.508)"/><path class="b" d="M110.813,42.073a1.2,1.2,0,0,0-1.341-1.034l-12.34,1.594a18.745,18.745,0,0,1,.417,2.361l12.23-1.579A1.2,1.2,0,0,0,110.813,42.073Z" transform="translate(1622.021 5147.534)"/><path class="b" d="M105.965,22.073a1.2,1.2,0,0,0-1.341-1.034L85.052,23.567c.152.118.3.234.453.357a20.618,20.618,0,0,1,1.879,1.756l17.546-2.266A1.2,1.2,0,0,0,105.965,22.073Z" transform="translate(1626.868 5155.561)"/><path class="b" d="M103.538,93.257l4.316,13.867a1.2,1.2,0,1,0,2.286-.712l-4.483-14.4a1.2,1.2,0,0,0-.744-.773c-.136-.054-.677-.282-1.5-.628-2.845-1.2-8.764-3.688-13.211-5.438-1.472-.576-2.564-1.011-3.141-1.244l-1.991-5.849a10.2,10.2,0,0,0-1.44,3.2l1.339,3.933a1.2,1.2,0,0,0,.462.606,39.591,39.591,0,0,0,3.9,1.582c4.418,1.739,10.32,4.222,13.157,5.416Z" transform="translate(1627.438 5132.667)"/><path class="b" d="M25.225,84.894l1.6-4.688a13.848,13.848,0,0,0-1.529-2.918c-.006.014-.016.025-.021.04L23.132,83.61c-.578.233-1.67.668-3.144,1.244C15.544,86.6,9.625,89.094,6.78,90.291c-.821.346-1.363.574-1.5.628a1.2,1.2,0,0,0-.744.773L.055,106.1a1.2,1.2,0,0,0,2.286.712L6.657,92.94,7.709,92.5c2.836-1.194,8.738-3.677,13.154-5.415a39.625,39.625,0,0,0,3.9-1.583A1.2,1.2,0,0,0,25.225,84.894Z" transform="translate(1661 5132.983)"/><path class="c" d="M58.322,64.675a3.089,3.089,0,0,0,2.124-.9,3.187,3.187,0,0,0,.911-2.284,19.325,19.325,0,0,1,.256-2.769c.351-2.37,1.919-4.6,3.437-6.752l.134-.191c2.481-3.532,5.294-7.535,5.065-13.039A17.276,17.276,0,0,0,63.825,26.19,17.717,17.717,0,0,0,34.972,36.959c-.867,6.014,2.075,10.806,4.9,14.827l.129.183c1.517,2.154,3.086,4.382,3.443,6.79a19.181,19.181,0,0,1,.25,2.732,3.189,3.189,0,0,0,.915,2.287,3.084,3.084,0,0,0,2.182.9H58.3ZM46.8,62.281a.691.691,0,0,1-.493-.191.8.8,0,0,1-.217-.583,21.573,21.573,0,0,0-.279-3.117c-.437-2.952-2.173-5.416-3.852-7.8l-.129-.182C39.27,46.765,36.6,42.447,37.342,37.3A15.342,15.342,0,0,1,50.257,24.62a14.462,14.462,0,0,1,2.222-.171,15.536,15.536,0,0,1,9.827,3.592,14.883,14.883,0,0,1,5.551,10.8c.195,4.692-2.259,8.185-4.636,11.567l-.129.184c-1.679,2.383-3.414,4.848-3.846,7.767a21.24,21.24,0,0,0-.284,3.149.8.8,0,0,1-.218.583.7.7,0,0,1-.476.191Z" transform="translate(1647.028 5155.145)"/><path class="c" d="M65.974,98.2a1.2,1.2,0,0,0-1.2-1.2H55.2a1.2,1.2,0,1,0,0,2.395h9.579a1.2,1.2,0,0,0,1.2-1.2Z" transform="translate(1639.33 5125.073)"/><path class="c" d="M57.7,105a1.2,1.2,0,0,0,0,2.395h6.586a1.2,1.2,0,0,0,0-2.395Z" transform="translate(1638.326 5121.863)"/><path class="c" d="M55.974,31A11.987,11.987,0,0,0,44,42.974a1.2,1.2,0,0,0,2.395,0,9.59,9.59,0,0,1,9.579-9.579,1.2,1.2,0,0,0,0-2.395Z" transform="translate(1643.343 5151.56)"/></g></g></svg>