<?xml version="1.0" encoding="UTF-8"?><svg xmlns="http://www.w3.org/2000/svg" width="100" height="100" viewBox="0 0 100 100"><defs><style>.a{fill:#fff;}.b{fill:#e60019;stroke:#e60019;}.b,.c{stroke-width:0.5px;}.c{fill:#2c2e3a;stroke:#2c2e3a;}</style></defs><g transform="translate(-1244 -4328)"><rect class="a" width="100" height="100" transform="translate(1244 4328)"/><g transform="translate(1246.524 4330.437)"><path class="b" d="M32.553,61.246h3.035V58.211h1.518a3.044,3.044,0,0,0,3.035-3.035v-6.07H31.035V46.07H40.14V43.035H35.588V40H32.553v3.035H31.035A3.044,3.044,0,0,0,28,46.07v6.07h9.105v3.035H28v3.035h4.553Z" transform="translate(13.492 19.641)"/><path class="c" d="M91.571,83.922H89.75L88.536,76.03a1.478,1.478,0,0,0-1.518-1.214V59.641a1.634,1.634,0,0,0,1.518-1.214l1.518-9.105V37.333l2.732-4.1a1.493,1.493,0,0,0-.455-2.125h0L48.169,2.278a1.644,1.644,0,0,0-1.669,0L2.643,31.111a1.493,1.493,0,0,0-.455,2.125h0l2.883,4.1V49.322l1.518,9.105a1.634,1.634,0,0,0,1.518,1.214V74.816A1.634,1.634,0,0,0,6.588,76.03L5.374,83.922H3.553a1.434,1.434,0,0,0-1.518,1.518v6.07a1.434,1.434,0,0,0,1.518,1.518H91.571a1.434,1.434,0,0,0,1.518-1.518v-6.07A1.434,1.434,0,0,0,91.571,83.922Zm-21.246,0V55.088a1.434,1.434,0,0,0-1.518-1.518H26.316A1.434,1.434,0,0,0,24.8,55.088V83.922H19.943L18.729,76.03a1.478,1.478,0,0,0-1.518-1.214V59.641a1.634,1.634,0,0,0,1.518-1.214l1.366-7.891H75.181l1.366,7.891a1.478,1.478,0,0,0,1.518,1.214V74.816a1.634,1.634,0,0,0-1.518,1.214l-1.366,7.891Zm-3.035,0H27.834V56.606H67.29ZM9.32,56.606l-1.062-6.07h8.5l-1.062,6.07Zm76.484,0H79.279l-1.062-6.07h8.5ZM8.106,47.5V38.4H87.018V47.5ZM83.224,35.36H11.9L47.562,12.9Zm-4.1,42.491h6.525l1.062,6.07h-8.5Zm4.856-3.035H80.948V59.641h3.035ZM47.41,5.313,89.446,32.78,88.08,34.9,48.321,9.865a1.638,1.638,0,0,0-1.669,0L7.043,34.753,5.678,32.629ZM11.141,59.641h3.035V74.816H11.141ZM9.32,77.851h6.525l1.062,6.07h-8.5Zm80.733,12.14H5.071V86.957H90.053Z" transform="translate(0)"/><path class="c" d="M34.07,26.14A6.07,6.07,0,1,0,28,20.07,6.088,6.088,0,0,0,34.07,26.14Zm0-9.105a3.035,3.035,0,1,1-3.035,3.035A3.044,3.044,0,0,1,34.07,17.035Z" transform="translate(13.492 6.185)"/><rect class="c" width="3.035" height="3.035" transform="translate(46.044 41.43)"/><rect class="c" width="3.035" height="3.035" transform="translate(39.974 41.43)"/><rect class="c" width="3.035" height="3.035" transform="translate(33.904 41.43)"/><rect class="c" width="3.035" height="3.035" transform="translate(27.834 41.43)"/><rect class="c" width="3.035" height="3.035" transform="translate(52.115 41.43)"/><rect class="c" width="3.035" height="3.035" transform="translate(58.185 41.43)"/><rect class="c" width="3.035" height="3.035" transform="translate(64.255 41.43)"/><path class="b" d="M24.035,43.035h4.553V40H21v7.588h3.035Z" transform="translate(9.869 19.641)"/><path class="b" d="M42.553,47.588h3.035V40H38v3.035h4.553Z" transform="translate(18.667 19.641)"/><path class="b" d="M45.588,49H42.553v4.553H38v3.035h7.588Z" transform="translate(18.667 24.299)"/><path class="b" d="M28.588,53.553H24.035V49H21v7.588h7.588Z" transform="translate(9.869 24.299)"/></g></g></svg>