<?xml version="1.0" encoding="UTF-8"?><svg xmlns="http://www.w3.org/2000/svg" width="100" height="100" viewBox="0 0 100 100"><defs><style>.a{fill:#fff;}.b{fill:#2c2e3a;stroke:#2c2e3a;}.b,.c{stroke-width:1.5px;}.c{fill:#e60019;stroke:#e60019;}</style></defs><g transform="translate(-1244 -3774)"><g transform="translate(0 1322)"><rect class="a" width="100" height="100" transform="translate(1244 2452)"/><g transform="translate(-213.551 31.449)"><g transform="translate(1464 2427)"><path class="b" d="M38.564,36.011a5.4,5.4,0,0,0-1.819.335v-.335a5.457,5.457,0,0,0-5.457-5.457,5.4,5.4,0,0,0-1.819.335V28.734a5.457,5.457,0,0,0-5.457-5.457,5.4,5.4,0,0,0-1.819.335V21.457a5.457,5.457,0,1,0-10.915,0v7.277a1.819,1.819,0,1,0,3.638,0V21.457a1.819,1.819,0,1,1,3.638,0V36.011a1.819,1.819,0,0,0,3.638,0V28.734a1.819,1.819,0,1,1,3.638,0V43.287a1.819,1.819,0,1,0,3.638,0V36.011a1.819,1.819,0,1,1,3.638,0V48.745a1.819,1.819,0,1,0,3.638,0V41.468a1.819,1.819,0,1,1,3.638,0V50.2c-.666,1.6-3.777,8.839-6.744,11.806a1.819,1.819,0,0,0-.533,1.292v3.638H16.734V63.3a1.819,1.819,0,0,0-1.006-1.637A21.269,21.269,0,0,1,7.638,55.5V37.83a1.819,1.819,0,0,1,3.638,0v7.277a1.819,1.819,0,1,0,3.638,0V37.83A5.457,5.457,0,0,0,4,37.83V56.021a1.819,1.819,0,0,0,.191.813c.206.409,2.123,3.946,8.9,7.571v2.53H11.277a3.638,3.638,0,0,0-3.638,3.638v1.819a1.819,1.819,0,1,0,3.638,0V70.574H36.745v1.819a1.819,1.819,0,1,0,3.638,0V70.574a3.638,3.638,0,0,0-3.638-3.638V64.025c3.656-4.113,7-12.41,7.147-12.778a1.841,1.841,0,0,0,.129-.684v-9.1A5.457,5.457,0,0,0,38.564,36.011Z" transform="translate(3.277 13.106)"/><path class="b" d="M23.649,3.638a1.819,1.819,0,0,0,0-3.638H9.1A9.107,9.107,0,0,0,0,9.1V47.3a1.819,1.819,0,1,0,3.638,0V9.1A5.457,5.457,0,0,1,9.1,3.638Z"/><path class="b" d="M70.759,0H36.2A27.336,27.336,0,0,0,9.137,23.738a1.819,1.819,0,1,0,3.606.469A23.693,23.693,0,0,1,36.2,3.638H70.759A5.457,5.457,0,0,1,76.216,9.1V45.479a5.457,5.457,0,0,1-5.457,5.457H45.291a1.819,1.819,0,0,0,0,3.638H70.759a9.107,9.107,0,0,0,9.1-9.1V9.1A9.107,9.107,0,0,0,70.759,0Z" transform="translate(7.464)"/><path class="c" d="M33,43.683a1.819,1.819,0,0,0,2.572.1,27.287,27.287,0,0,0,1.1-38.93,1.82,1.82,0,1,0-2.623,2.525A23.649,23.649,0,0,1,33.1,41.12,1.819,1.819,0,0,0,33,43.683Z" transform="translate(26.64 3.517)"/><path class="c" d="M37.191,29.649V26.011a5.457,5.457,0,0,0-5.457-5.457H24.457a1.819,1.819,0,0,1-1.819-1.819V15.1a1.819,1.819,0,0,1,1.819-1.819h7.277A1.819,1.819,0,0,1,33.553,15.1v1.819a1.819,1.819,0,0,0,3.638,0V15.1a5.457,5.457,0,0,0-5.457-5.457H29.915V7.819a1.819,1.819,0,1,0-3.638,0V9.638H24.457A5.457,5.457,0,0,0,19,15.1v3.638a5.457,5.457,0,0,0,5.457,5.457h7.277a1.819,1.819,0,0,1,1.819,1.819v3.638a1.819,1.819,0,0,1-1.819,1.819H24.457a1.819,1.819,0,0,1-1.819-1.819V27.83a1.819,1.819,0,1,0-3.638,0v1.819a5.457,5.457,0,0,0,5.457,5.457h1.819v1.819a1.819,1.819,0,1,0,3.638,0V35.106h1.819A5.457,5.457,0,0,0,37.191,29.649Z" transform="translate(15.564 4.915)"/><path class="c" d="M5.819,14a1.819,1.819,0,1,0,0,3.638H7.638a1.819,1.819,0,0,0,0-3.638Z" transform="translate(3.277 11.468)"/><path class="c" d="M44.638,17.638a1.819,1.819,0,0,0,0-3.638H42.819a1.819,1.819,0,1,0,0,3.638Z" transform="translate(33.585 11.468)"/></g></g></g></g></svg>