<?xml version="1.0" encoding="UTF-8"?><svg xmlns="http://www.w3.org/2000/svg" width="100" height="100" viewBox="0 0 100 100"><defs><style>.a{fill:#fff;}.b{fill:#2c2e3a;stroke:#2c2e3a;}.c{fill:#e60019;stroke:#e60019;}</style></defs><g transform="translate(-692 -4328)"><g transform="translate(0 1298)"><rect class="a" width="100" height="100" transform="translate(692 3030)"/><g transform="translate(-288.288 20.712)"><g transform="translate(988 3017)"><rect class="b" width="8" height="3" transform="translate(19.288 76.288)"/><path class="b" d="M85.577,48.745V18.734a4.1,4.1,0,0,0-4.092-4.092h-34.1V7.821A6.828,6.828,0,0,0,40.56,1H7.821A6.828,6.828,0,0,0,1,7.821V78.756a6.828,6.828,0,0,0,6.821,6.821H40.56a6.828,6.828,0,0,0,6.821-6.821V52.837H58.436a17.734,17.734,0,1,0,18.814,0h4.234A4.1,4.1,0,0,0,85.577,48.745ZM36.468,22.826H82.848v5.457H36.468Zm46.381-4.092V20.1H36.468V18.734a1.365,1.365,0,0,1,1.364-1.364H81.484A1.365,1.365,0,0,1,82.848,18.734ZM7.821,3.728H40.56a4.1,4.1,0,0,1,4.092,4.092V9.185H3.728V7.821A4.1,4.1,0,0,1,7.821,3.728ZM40.56,82.848H7.821a4.1,4.1,0,0,1-4.092-4.092V74.664H44.652v4.092A4.1,4.1,0,0,1,40.56,82.848Zm4.092-10.913H3.728V11.913H44.652v2.728H37.832a4.1,4.1,0,0,0-4.092,4.092V48.745a4.1,4.1,0,0,0,4.092,4.092h6.821Zm38.2-4.092A15.006,15.006,0,1,1,67.843,52.837,15.023,15.023,0,0,1,82.848,67.843ZM37.832,50.109a1.365,1.365,0,0,1-1.364-1.364V31.011H82.848V48.745a1.365,1.365,0,0,1-1.364,1.364Z" transform="translate(-1 -1)"/><path class="c" d="M57.913,27a5.381,5.381,0,0,0-2.728.756A5.381,5.381,0,0,0,52.457,27a5.457,5.457,0,0,0,0,10.913,5.381,5.381,0,0,0,2.728-.756,5.381,5.381,0,0,0,2.728.756,5.457,5.457,0,1,0,0-10.913Zm-4.765,8.092a2.625,2.625,0,0,1-.692.093,2.728,2.728,0,0,1,0-5.457,2.625,2.625,0,0,1,.692.093,5.367,5.367,0,0,0,0,5.271Zm4.765.093a2.728,2.728,0,1,1,2.728-2.728A2.719,2.719,0,0,1,57.913,35.185Z" transform="translate(15.75 8.468)"/><rect class="c" width="3" height="3" transform="translate(38.288 38.288)"/><rect class="c" width="3" height="3" transform="translate(46.288 38.288)"/><rect class="c" width="3" height="3" transform="translate(54.288 38.288)"/><rect class="c" width="19" height="3" transform="translate(38.288 43.288)"/><path class="c" d="M51.457,60.1a2.731,2.731,0,0,1-2.728-2.728H46a5.449,5.449,0,0,0,4.092,5.263v2.922h2.728V62.633a5.445,5.445,0,0,0-1.364-10.719,2.728,2.728,0,1,1,2.728-2.728h2.728a5.449,5.449,0,0,0-4.092-5.263V41H50.092v2.922a5.445,5.445,0,0,0,1.364,10.719,2.728,2.728,0,0,1,0,5.457Z" transform="translate(15.386 13.566)"/><path class="b" d="M20.457,28a5.457,5.457,0,1,0,5.457,5.457A5.462,5.462,0,0,0,20.457,28Zm0,8.185a2.728,2.728,0,1,1,2.728-2.728A2.731,2.731,0,0,1,20.457,36.185Z" transform="translate(4.098 8.832)"/><path class="b" d="M13.728,34.913a8.193,8.193,0,0,1,8.185-8.185V24a10.913,10.913,0,0,0,0,21.826V43.1A8.193,8.193,0,0,1,13.728,34.913Z" transform="translate(2.641 7.375)"/><path class="b" d="M9.728,36.37A13.657,13.657,0,0,1,23.37,22.728V20a16.37,16.37,0,0,0,0,32.739V50.011A13.657,13.657,0,0,1,9.728,36.37Z" transform="translate(1.185 5.919)"/><rect class="c" width="3" height="3" transform="translate(76.288 65.288)"/><rect class="c" width="3" height="3" transform="translate(54.288 65.288)"/></g></g></g></g></svg>