<?xml version="1.0" encoding="UTF-8"?><svg xmlns="http://www.w3.org/2000/svg" width="100" height="100" viewBox="0 0 100 100"><defs><style>.a{fill:#fff;}.b{fill:#2c2e3a;}.b,.c{fill-rule:evenodd;}.c{fill:#e60019;}</style></defs><g transform="translate(-140 -3774)"><rect class="a" width="100" height="100" transform="translate(140 3774)"/><g transform="translate(146.232 3783.144)"><path class="b" d="M1.632,2.646c0,1.942-.044,2.724-.044,6.036V79.131c2.689,0,2.731.042,6.044.042h72.5c3.312,0,2.5-.042,6.044-.042V2.682c-4.921,0-2.731-.036-6.044-.036Zm6,4.03h72.5c1.151,0,.593.006,2.014.006V55.007H5.616c0,1.3,0,1.708,0,4.03H82.142V74.131c0,1.151-.014-.136-.014,1.014H7.632c-1.151,0,.052-.014-2.016-.014V6.682C7.12,6.682,6.481,6.676,7.632,6.676ZM31.8,61.051a6.08,6.08,0,0,0-5.688,4.03H15.682a2.014,2.014,0,1,0,0,4.02H26.108a6.039,6.039,0,1,0,5.69-8.05Zm40.391,4.026q-.059,0-.118,0H41.861a2.014,2.014,0,1,0,0,4.02H72.071a2.014,2.014,0,1,0,.118-4.024Zm-40.391,0a2.01,2.01,0,1,1-2.014,2.014A1.984,1.984,0,0,1,31.8,65.081Z" transform="translate(0 0)"/></g><path class="c" d="M48.933,14.726v4.028h6.2l-9.24,9.24-4.134-3.919c-.619.619-.437.44-1.2,1.207L26.46,37.367a6.155,6.155,0,0,0-.706.68v8.9h4.03V39.822L41.757,29.555l4.207,4.038c.85-.85.567-.546,1.353-1.332L57.977,21.6v5.2c1.487,0,.9.015,2.015.015s.877-.015,2.015-.015V14.726ZM57.977,28.8V46.936h4.03V28.8Zm-8.058,4.028V46.95h4.03V32.826Zm-8.058,2.045V46.95h4.03V34.872Zm-8.05,4v8.08h4.03V38.87Z" transform="translate(146.232 3783.144)"/></g></svg>