<?xml version="1.0" encoding="utf-8"?>
<!-- Generator: Adobe Illustrator 25.4.6, SVG Export Plug-In . SVG Version: 6.00 Build 0)  -->
<svg version="1.1" id="Layer_1" xmlns="http://www.w3.org/2000/svg" xmlns:xlink="http://www.w3.org/1999/xlink" x="0px" y="0px"
	 viewBox="0 0 100 100" style="enable-background:new 0 0 100 100;" xml:space="preserve">
<style type="text/css">
	.st0{fill:#2B2E3B;}
	.st1{fill:#FF0000;}
</style>
<g id="wire_transfer_2_">
	<g>
		<g>
			<path class="st0" d="M72.51,96.33c-13.14,0-23.83-10.68-23.83-23.82c0-13.14,10.69-23.83,23.83-23.83
				c13.14,0,23.83,10.69,23.83,23.83C96.34,85.65,85.64,96.33,72.51,96.33z M72.51,51.57c-11.55,0-20.94,9.39-20.94,20.94
				c0,11.55,9.39,20.94,20.94,20.94c11.55,0,20.94-9.39,20.94-20.94C93.45,60.96,84.05,51.57,72.51,51.57z"/>
		</g>
		<g>
			<path class="st1" d="M71.25,83.08c-1.24-0.11-2.37-0.41-3.39-0.91c-1.02-0.5-1.9-1.13-2.64-1.9l0.82-1.26
				c0.07-0.12,0.17-0.2,0.31-0.28c0.13-0.07,0.27-0.11,0.42-0.11c0.19,0,0.41,0.1,0.66,0.3c0.25,0.19,0.55,0.41,0.91,0.67
				c0.36,0.24,0.79,0.49,1.28,0.72c0.5,0.24,1.1,0.4,1.8,0.48l0.57-8.17c-0.72-0.22-1.42-0.47-2.12-0.73
				c-0.69-0.28-1.31-0.62-1.86-1.07c-0.55-0.43-0.99-0.99-1.32-1.65c-0.34-0.66-0.5-1.49-0.5-2.49c0-0.75,0.14-1.48,0.43-2.2
				c0.29-0.72,0.72-1.36,1.28-1.91c0.56-0.55,1.25-1.01,2.07-1.37c0.82-0.35,1.77-0.52,2.83-0.52l0.15-2.25
				c0.02-0.19,0.1-0.37,0.23-0.52c0.13-0.15,0.31-0.23,0.54-0.23h1.01l-0.21,3.05c1.08,0.13,2,0.41,2.78,0.82
				c0.78,0.42,1.48,0.93,2.1,1.53l-0.66,1.01c-0.21,0.31-0.44,0.46-0.71,0.46c-0.14,0-0.32-0.06-0.53-0.19
				c-0.21-0.13-0.47-0.28-0.77-0.45c-0.29-0.16-0.64-0.34-1.03-0.51c-0.39-0.16-0.84-0.29-1.34-0.36l-0.51,7.45
				c0.74,0.23,1.47,0.48,2.19,0.74c0.72,0.27,1.36,0.62,1.94,1.04c0.57,0.42,1.04,0.95,1.4,1.58c0.35,0.63,0.53,1.42,0.53,2.37
				c0,0.92-0.16,1.79-0.46,2.61c-0.31,0.81-0.76,1.53-1.35,2.15c-0.59,0.62-1.31,1.12-2.17,1.51c-0.86,0.39-1.83,0.58-2.93,0.58
				l-0.19,2.75c-0.02,0.2-0.1,0.37-0.23,0.51c-0.14,0.15-0.32,0.23-0.54,0.23h-1.02L71.25,83.08z M68.76,66.43
				c0,0.49,0.09,0.91,0.26,1.28c0.17,0.37,0.41,0.68,0.72,0.96c0.31,0.27,0.67,0.51,1.08,0.72c0.41,0.2,0.86,0.39,1.34,0.55
				l0.47-6.94c-0.67,0.06-1.25,0.2-1.73,0.4c-0.49,0.21-0.89,0.46-1.2,0.77c-0.31,0.31-0.54,0.66-0.7,1.04
				C68.83,65.6,68.76,66,68.76,66.43z M77.3,76.65c0-0.52-0.09-0.96-0.28-1.33c-0.19-0.37-0.45-0.68-0.78-0.96
				c-0.33-0.26-0.71-0.5-1.15-0.69c-0.44-0.2-0.91-0.38-1.42-0.54l-0.53,7.66c0.67-0.06,1.26-0.21,1.78-0.43
				c0.52-0.23,0.95-0.52,1.31-0.89c0.35-0.37,0.62-0.78,0.8-1.26C77.2,77.75,77.3,77.21,77.3,76.65z"/>
		</g>
	</g>
	<path class="st0" d="M44.7,66.43c-0.63,0.17-1.27,0.33-1.91,0.45c-0.07,0.01-0.14,0.02-0.21,0.03c1.12-0.92,2.14-1.94,3.12-3
		c1.45-4.5,4.01-8.5,7.35-11.71c1.68-4.26,2.66-8.88,2.82-13.76h11.52c-0.1,2.29-0.54,4.49-1.13,6.62c1.05-0.24,2.11-0.43,3.19-0.55
		c0.57-2.42,0.89-4.94,0.89-7.51c0-7.5-2.54-14.42-6.77-20.01c-0.03-0.04-0.04-0.11-0.08-0.17c-0.13-0.17-0.28-0.31-0.41-0.47
		c-0.4-0.51-0.83-0.99-1.26-1.47c-0.38-0.43-0.75-0.88-1.16-1.29c-0.13-0.13-0.28-0.26-0.42-0.39c-1.35-1.33-2.8-2.52-4.33-3.6
		c-0.07-0.04-0.13-0.1-0.19-0.14c-0.76-0.51-1.55-0.99-2.35-1.44c-0.18-0.11-0.36-0.22-0.55-0.31c-0.77-0.42-1.55-0.81-2.35-1.16
		c-0.25-0.11-0.5-0.22-0.75-0.32c-0.78-0.33-1.56-0.63-2.36-0.89c-0.31-0.1-0.63-0.19-0.94-0.28c-0.78-0.23-1.55-0.46-2.34-0.62
		c-0.37-0.08-0.76-0.13-1.14-0.2c-1.43-0.25-2.88-0.42-4.36-0.49c-0.43-0.02-0.86-0.07-1.29-0.07c-0.01,0-0.01,0-0.01,0h0
		c-0.1,0-0.18-0.02-0.27-0.02c-0.09,0-0.18,0.02-0.27,0.02c0,0,0,0,0,0h-0.01c-0.4,0-0.8,0.05-1.2,0.06
		C34,3.82,32.51,3.98,31.04,4.25c-0.37,0.06-0.74,0.11-1.11,0.19c-0.8,0.17-1.58,0.4-2.36,0.63c-0.3,0.09-0.62,0.17-0.92,0.26
		c-0.81,0.27-1.6,0.57-2.38,0.9c-0.24,0.1-0.49,0.2-0.73,0.31c-0.8,0.36-1.59,0.75-2.37,1.17c-0.18,0.1-0.35,0.19-0.53,0.29
		c-0.81,0.47-1.6,0.93-2.37,1.46c-0.05,0.04-0.11,0.08-0.17,0.13c-1.54,1.07-3,2.28-4.36,3.61c-0.13,0.14-0.28,0.25-0.41,0.39
		c-0.41,0.41-0.78,0.86-1.16,1.29c-0.43,0.48-0.86,0.96-1.26,1.47c-0.13,0.16-0.28,0.3-0.4,0.47c-0.04,0.05-0.04,0.12-0.08,0.17
		C6.2,22.58,3.66,29.5,3.66,37.01c0,7.49,2.54,14.41,6.76,20c0.03,0.05,0.04,0.13,0.08,0.18c0.14,0.18,0.29,0.33,0.43,0.51
		c0.37,0.46,0.77,0.9,1.17,1.36c0.41,0.47,0.81,0.94,1.25,1.38c0.04,0.04,0.08,0.08,0.12,0.11c1.46,1.47,3.04,2.77,4.71,3.92
		c0.03,0.03,0.06,0.04,0.09,0.06c0.78,0.53,1.58,1.02,2.39,1.48c0.17,0.1,0.33,0.2,0.5,0.29c0.78,0.43,1.58,0.81,2.39,1.18
		c0.24,0.1,0.47,0.2,0.71,0.3c0.79,0.33,1.59,0.64,2.4,0.9c0.3,0.1,0.6,0.18,0.9,0.27c0.79,0.23,1.57,0.45,2.38,0.62
		c0.36,0.09,0.72,0.13,1.08,0.19c1.53,0.28,3.09,0.45,4.68,0.51c0.34,0.02,0.68,0.06,1.03,0.06h0.01c0,0,0,0,0.01,0
		c0.09,0,0.17,0.01,0.26,0.01c0.08,0,0.18-0.01,0.26-0.01h0h0.01c0.38,0,0.75-0.05,1.13-0.06c1.55-0.06,3.07-0.23,4.56-0.51
		c0.37-0.07,0.74-0.12,1.1-0.2c0.16-0.02,0.3-0.08,0.45-0.11c0.12-1.05,0.3-2.09,0.53-3.1C44.93,66.36,44.81,66.4,44.7,66.43z
		 M14.88,16.17c0.31-0.34,0.63-0.67,0.96-0.99c0.42-0.41,0.85-0.81,1.29-1.19c0.21-0.19,0.43-0.36,0.66-0.54
		c2.46-2.02,5.23-3.65,8.23-4.82c0.16-0.06,0.32-0.13,0.47-0.19c0.66-0.25,1.33-0.46,2.01-0.66c0.26-0.07,0.53-0.14,0.79-0.22
		c0.64-0.16,1.28-0.32,1.92-0.44c0.07-0.02,0.14-0.02,0.21-0.04c-3.7,3.07-6.67,6.9-8.9,11.2c-3.07-0.36-5.88-0.83-8.31-1.41
		C14.44,16.64,14.66,16.41,14.88,16.17z M12.24,19.35c2.58,0.7,5.62,1.27,8.99,1.69c-1.86,4.45-2.92,9.36-3.09,14.52H6.62
		C6.9,29.55,8.93,23.97,12.24,19.35z M12.24,54.66c-3.31-4.62-5.34-10.2-5.62-16.22h11.52c0.17,5.17,1.23,10.07,3.1,14.52
		C17.86,53.4,14.82,53.97,12.24,54.66z M31.22,66.88c-0.65-0.13-1.28-0.28-1.92-0.45c-0.27-0.06-0.53-0.13-0.79-0.21
		c-0.68-0.2-1.36-0.42-2.02-0.67c-0.15-0.05-0.3-0.12-0.45-0.17c-3.03-1.18-5.82-2.83-8.3-4.86c-0.19-0.16-0.4-0.32-0.58-0.48
		c-0.47-0.4-0.91-0.82-1.35-1.25c-0.3-0.29-0.6-0.6-0.89-0.91c-0.24-0.24-0.47-0.51-0.7-0.76c2.42-0.59,5.24-1.06,8.3-1.42
		c2.23,4.32,5.21,8.14,8.9,11.2C31.37,66.9,31.29,66.89,31.22,66.88z M35.56,66.32c-4.11-2.85-7.49-6.55-9.94-10.92
		c3.13-0.27,6.47-0.43,9.94-0.47V66.32z M35.56,52.04c-3.95,0.04-7.75,0.24-11.29,0.57c-1.93-4.3-3.05-9.09-3.23-14.17h14.52V52.04z
		 M35.56,35.56H21.04c0.18-5.08,1.3-9.87,3.23-14.17c3.54,0.34,7.34,0.54,11.29,0.59V35.56z M35.56,19.08
		c-3.46-0.03-6.81-0.19-9.94-0.46c2.45-4.38,5.83-8.09,9.94-10.93V19.08z M61.76,19.35c3.31,4.62,5.34,10.2,5.62,16.21H55.87
		c-0.17-5.16-1.23-10.06-3.09-14.52C56.14,20.62,59.18,20.05,61.76,19.35z M42.78,7.13c0.65,0.13,1.28,0.28,1.91,0.44
		c0.27,0.07,0.54,0.14,0.8,0.22c0.68,0.2,1.35,0.42,2.01,0.66c0.16,0.05,0.33,0.13,0.48,0.19c3,1.17,5.77,2.81,8.23,4.82
		c0.22,0.18,0.44,0.35,0.66,0.54c0.44,0.38,0.87,0.78,1.28,1.19c0.33,0.32,0.65,0.65,0.97,0.99c0.22,0.23,0.44,0.47,0.66,0.71
		c-2.42,0.58-5.24,1.05-8.31,1.41c-2.22-4.3-5.2-8.13-8.89-11.2C42.64,7.11,42.72,7.11,42.78,7.13z M38.44,7.68
		c4.11,2.84,7.49,6.55,9.94,10.93c-3.13,0.27-6.47,0.43-9.94,0.46V7.68z M38.44,21.97c3.95-0.04,7.75-0.25,11.29-0.59
		c1.93,4.31,3.05,9.09,3.24,14.17H38.44V21.97z M38.44,38.44h14.52c-0.18,5.08-1.3,9.87-3.24,14.18c-3.54-0.35-7.34-0.54-11.29-0.59
		V38.44z M38.44,54.93c3.46,0.04,6.81,0.2,9.94,0.47c-2.44,4.37-5.82,8.08-9.94,10.92V54.93z"/>
	<g>
		<path class="st0" d="M78.33,15.76l9.33-1.76c0.79-0.15,1.3-0.91,1.15-1.69c-0.15-0.78-0.92-1.29-1.69-1.15l-13.56,2.57
			c-0.45,0.08-0.83,0.37-1.03,0.77c-0.2,0.41-0.19,0.89,0.01,1.3l6.28,12.29c0.26,0.5,0.76,0.79,1.28,0.79
			c0.23,0,0.45-0.05,0.66-0.15c0.71-0.36,0.99-1.23,0.63-1.95l-4.25-8.31c10.45,4.4,16.54,12.96,16.29,23.28
			c-0.02,0.8,0.61,1.46,1.41,1.48c0.01,0,0.02,0,0.04,0c0.78,0,1.42-0.63,1.44-1.41C96.61,30.23,89.91,20.63,78.33,15.76z"/>
		<path class="st0" d="M25.86,76.72c-0.65-0.47-1.55-0.33-2.02,0.32c-0.47,0.64-0.33,1.55,0.32,2.02l7.55,5.48
			C20.4,85.36,11.1,80.48,6.65,71.17c-0.34-0.72-1.2-1.03-1.92-0.69c-0.72,0.34-1.03,1.21-0.68,1.93
			C9.04,82.87,19.4,88.34,31.97,87.42l-7.62,5.86c-0.63,0.48-0.75,1.39-0.26,2.03c0.34,0.44,0.91,0.63,1.42,0.53
			c0.21-0.04,0.42-0.13,0.6-0.27l10.93-8.43c0.36-0.27,0.57-0.7,0.56-1.15c-0.01-0.45-0.23-0.89-0.59-1.15L25.86,76.72z"/>
	</g>
</g>
</svg>
