<?xml version="1.0" encoding="UTF-8"?><svg xmlns="http://www.w3.org/2000/svg" width="100" height="100" viewBox="0 0 100 100"><defs><style>.a{fill:#fff;}.b{fill:#2c2e3a;}.c{fill:#e60019;}</style></defs><g transform="translate(-1244 -5990)"><rect class="a" width="100" height="100" transform="translate(1244 5990)"/><g transform="translate(-439.515 1410.347)"><path class="b" d="M84.191,97.273H22.515v6.073h82.97V97.273H84.191Z" transform="translate(1670 4571)"/><path class="b" d="M43.5,44.229h61.8V38.3L64.867,14.976a1.4,1.4,0,0,1-.131-.085,1.258,1.258,0,0,0-1.472,0c-.042.03-.086.059-.131.085L22.7,38.3v5.928H43.5Z" transform="translate(1670 4571)"/><rect class="c" width="14.162" height="7.091" transform="translate(1726.765 4617.523)"/><rect class="c" width="7.745" height="31.215" transform="translate(1729.973 4626.144)"/><rect class="b" width="7.746" height="31.215" transform="translate(1758.167 4626.144)"/><rect class="c" width="14.162" height="7.092" transform="translate(1726.765 4658.888)"/><rect class="b" width="14.162" height="7.092" transform="translate(1754.959 4658.888)"/><rect class="b" width="14.162" height="7.092" transform="translate(1698.571 4658.888)"/><rect class="b" width="7.746" height="31.215" transform="translate(1701.779 4626.144)"/><rect class="b" width="14.162" height="7.091" transform="translate(1754.959 4617.523)"/><rect class="b" width="14.162" height="7.091" transform="translate(1698.571 4617.523)"/></g></g></svg>