<?xml version="1.0" encoding="UTF-8"?><svg xmlns="http://www.w3.org/2000/svg" width="100" height="100" viewBox="0 0 100 100"><defs><style>.a{fill:#fff;}.b{fill:#2c2e3a;stroke:#2c2e3a;}.b,.c{stroke-width:2px;}.c{fill:#e60019;stroke:#e60019;}</style></defs><g transform="translate(-140 -7652)"><rect class="a" width="100" height="100" transform="translate(140 7652)"/><rect class="a" width="100" height="100" transform="translate(140 7652)"/><rect class="a" width="100" height="100" transform="translate(140 7652)"/><path class="b" d="M55.594,60.738C68.842,64.781,78.522,77.6,78.522,92.779H75.337c0-16.7-12.868-30.183-28.667-30.183S18,76.077,18,92.779H14.818c0-15.184,9.68-28,22.928-32.041C42.5,59.146,50.4,60.482,55.594,60.738Zm28.957-5.787-2.844-2.844,2.252-2.252,6.757,6.757-6.757,6.757-2.252-2.252,2.98-2.98H72.152V54.952Zm-82.474-5.1H18V65.781H2.078Zm3.185,3.185V62.6h9.556V53.041ZM13.226,1.964,24.487,13.226,13.226,24.487,1.964,13.226Zm0,4.5L6.469,13.226l6.757,6.757,6.757-6.757Zm68.481,14.72a9.556,9.556,0,1,1,9.556-9.556A9.556,9.556,0,0,1,81.707,21.189Zm0-3.185a6.37,6.37,0,1,0-6.37-6.37A6.37,6.37,0,0,0,81.707,18Z" transform="translate(143.535 7654.536)"/><path class="c" d="M63.225,49.855H30.116a19.117,19.117,0,0,0,33.109,0Zm3.64-.092a22.381,22.381,0,0,1-11.27,10.975,26.019,26.019,0,0,1-17.848,0,22.381,22.381,0,0,1-11.27-10.975,6.372,6.372,0,0,1-5.288-6.279V33.929a6.37,6.37,0,0,1,6.37-6.37h.811a22.3,22.3,0,0,1,36.6,0h.811a6.37,6.37,0,0,1,6.37,6.37v9.556a6.372,6.372,0,0,1-5.287,6.279Zm-34.439-22.2h28.49a19.229,19.229,0,0,0-14.19-6.37H46.67A19.063,19.063,0,0,0,32.425,27.559Zm-4.866,3.185a3.185,3.185,0,0,0-3.185,3.185v9.556a3.185,3.185,0,0,0,3.185,3.185H65.781a3.185,3.185,0,0,0,3.185-3.185V33.929a3.185,3.185,0,0,0-3.185-3.185Zm3.185,6.37v6.37H27.559V33.929H65.781v3.185Z" transform="translate(143.403 7654.884)"/></g></svg>