<?xml version="1.0" encoding="UTF-8"?><svg xmlns="http://www.w3.org/2000/svg" width="100" height="100" viewBox="0 0 100 100"><defs><style>.a{fill:#fff;}.b{fill:#2c2e3a;stroke:#2c2e3a;}.b,.c{stroke-width:1.8px;}.c{fill:#e60019;stroke:#e60019;}</style></defs><g transform="translate(-140 -1922)"><rect class="a" width="100" height="100" transform="translate(140 1922)"/><g transform="translate(-1 1)"><g transform="translate(145 1927)"><g transform="translate(0 0)"><g transform="translate(26.391 20.552)"><path class="b" d="M68.68,59.707h-2.8V30.513A11.961,11.961,0,0,0,53.967,18.6H32.013A11.961,11.961,0,0,0,20.1,30.513v14.48H17.3V30.513A14.652,14.652,0,0,1,32.013,15.8H53.967A14.652,14.652,0,0,1,68.68,30.513Z" transform="translate(-17.3 -15.8)"/></g><g transform="translate(40.17 13.312)"><path class="b" d="M47.255,22.742H23.2V12.7H47.255ZM26,19.94h18.45V15.5H26Z" transform="translate(-23.2 -12.7)"/></g><g transform="translate(35.265)"><path class="b" d="M49.592,23.115H26.238L21.1,7H54.73Zm-21.253-2.8H47.491l3.5-10.51H25.07Z" transform="translate(-21.1 -7)"/></g><g transform="translate(0 45.074)"><g transform="translate(16.582 3.27)"><path class="b" d="M65.414,53.857H38.79v-2.8H62.611V42.647H45.329L33.185,30.5H13.1V27.7H34.353L46.5,39.844H65.414Z" transform="translate(-13.1 -27.7)"/></g><g transform="translate(16.582 12.611)"><path class="b" d="M70.318,60.66H26.412L19.639,54.12H13.1v-2.8h7.707l6.773,6.539H69.151L84.565,42.443,77.792,35.67,65.18,48.282l-2.1-1.868L77.792,31.7,88.535,42.443Z" transform="translate(-13.1 -31.7)"/></g><path class="b" d="M23.983,69.739H6V26.3H23.983ZM8.8,66.937H21.18V29.1H8.8Z" transform="translate(-6 -26.3)"/><g transform="translate(8.408 33.397)"><rect class="b" width="2.803" height="3.503"/></g></g><g transform="translate(55.817 21.253)"><path class="b" d="M32.7,28.945H29.9V21.238h5.605V16.1h2.8v7.941H32.7Z" transform="translate(-29.9 -16.1)"/></g></g></g><g transform="translate(188.673 1964.87)"><path class="c" d="M33.108,24.5a8.408,8.408,0,1,0,8.408,8.408A8.373,8.373,0,0,0,33.108,24.5Zm0,14.246a5.839,5.839,0,1,1,5.839-5.839A5.782,5.782,0,0,1,33.108,38.746Z" transform="translate(-24.7 -24.5)"/></g></g></g></svg>