<?xml version="1.0" encoding="UTF-8"?><svg xmlns="http://www.w3.org/2000/svg" width="100" height="100" viewBox="0 0 100 100"><defs><style>.a{fill:#fff;}.b{fill:#2c2e3a;stroke:#2c2e3a;}.c{fill:#e60019;stroke:#e60019;}</style></defs><g transform="translate(-140 -6544)"><rect class="a" width="100" height="100" transform="translate(140 6544)"/><g transform="translate(-163 1326)"><path class="b" d="M45,42.3v5.209a1.3,1.3,0,0,0,1.3,1.3H64.533a1.3,1.3,0,0,0,1.3-1.3V42.3a1.3,1.3,0,0,0-1.3-1.3H46.3A1.3,1.3,0,0,0,45,42.3Zm2.6,1.3H63.231v2.6H47.6Z" transform="translate(323.298 5238.392)"/><path class="b" d="M38.254,49.116a1.3,1.3,0,0,0,2.6,0V41.3a1.3,1.3,0,0,0-1.3-1.3H8.3A1.3,1.3,0,0,0,7,41.3v7.813a1.3,1.3,0,0,0,2.6,0V42.6H38.254Z" transform="translate(313.116 5238.089)"/><path class="b" d="M34.742,43a1.3,1.3,0,0,0-1.3,1.3v23.44H12.6V44.3a1.3,1.3,0,0,0-2.6,0V69.045a1.3,1.3,0,0,0,1.3,1.3h23.44a1.3,1.3,0,0,0,1.3-1.3V44.3a1.3,1.3,0,0,0-1.3-1.3Z" transform="translate(314.022 5238.996)"/><path class="b" d="M20.907,54.813A3.907,3.907,0,1,0,17,50.907a3.907,3.907,0,0,0,3.907,3.907Zm0-5.209a1.3,1.3,0,1,1-1.3,1.3A1.3,1.3,0,0,1,20.907,49.6Z" transform="translate(316.138 5240.205)"/><path class="b" d="M15.3,43A1.3,1.3,0,0,0,14,44.3V61.231a1.3,1.3,0,0,0,1.3,1.3,1.3,1.3,0,0,1,1.3,1.3,1.3,1.3,0,0,0,1.3,1.3H25.72a1.3,1.3,0,0,0,1.3-1.3,1.3,1.3,0,0,1,1.3-1.3,1.3,1.3,0,0,0,1.3-1.3V44.3a1.3,1.3,0,0,0-2.6,0V60.152a3.926,3.926,0,0,0-2.381,2.382H18.986A3.926,3.926,0,0,0,16.6,60.152V44.3A1.3,1.3,0,0,0,15.3,43Z" transform="translate(315.231 5238.996)"/><path class="b" d="M79.436,0H3.907A3.911,3.911,0,0,0,0,3.907v59.9a3.911,3.911,0,0,0,3.907,3.907h6.511a1.3,1.3,0,1,0,0-2.6H3.907a1.3,1.3,0,0,1-1.3-1.3V3.907a1.3,1.3,0,0,1,1.3-1.3H79.436a1.3,1.3,0,0,1,1.3,1.3v59.9a1.3,1.3,0,0,1-1.3,1.3H41.671a1.3,1.3,0,0,0,0,2.6H79.436a3.911,3.911,0,0,0,3.907-3.907V3.907A3.911,3.911,0,0,0,79.436,0Z" transform="translate(311 5226)"/><path class="b" d="M62.787,6H13.3A1.3,1.3,0,0,0,12,7.3V38.556a1.3,1.3,0,0,0,1.3,1.3H62.787a1.3,1.3,0,0,0,1.3-1.3V7.3a1.3,1.3,0,0,0-1.3-1.3Zm-1.3,31.254H14.6V8.6h46.88Z" transform="translate(314.627 5227.813)"/><path class="b" d="M5.3,13.813h5.209a1.3,1.3,0,0,0,1.3-1.3V7.3a1.3,1.3,0,0,0-1.3-1.3H5.3A1.3,1.3,0,0,0,4,7.3v5.209a1.3,1.3,0,0,0,1.3,1.3ZM6.6,8.6h2.6v2.6H6.6Z" transform="translate(312.209 5227.813)"/><path class="b" d="M4,22.511a1.3,1.3,0,0,0,1.3,1.3h5.209a1.3,1.3,0,0,0,1.3-1.3V17.3a1.3,1.3,0,0,0-1.3-1.3H5.3A1.3,1.3,0,0,0,4,17.3ZM6.6,18.6h2.6v2.6H6.6Z" transform="translate(312.209 5230.835)"/><path class="b" d="M10.511,33.813a1.3,1.3,0,0,0,1.3-1.3V27.3a1.3,1.3,0,0,0-1.3-1.3H5.3A1.3,1.3,0,0,0,4,27.3v5.209a1.3,1.3,0,0,0,1.3,1.3ZM6.6,28.6h2.6v2.6H6.6Z" transform="translate(312.209 5233.858)"/><path class="b" d="M60.511,6H55.3A1.3,1.3,0,0,0,54,7.3v5.209a1.3,1.3,0,0,0,1.3,1.3h5.209a1.3,1.3,0,0,0,1.3-1.3V7.3a1.3,1.3,0,0,0-1.3-1.3Zm-1.3,5.209H56.6V8.6h2.6Z" transform="translate(327.32 5227.813)"/><path class="b" d="M54,22.511a1.3,1.3,0,0,0,1.3,1.3h5.209a1.3,1.3,0,0,0,1.3-1.3V17.3a1.3,1.3,0,0,0-1.3-1.3H55.3A1.3,1.3,0,0,0,54,17.3ZM56.6,18.6h2.6v2.6H56.6Z" transform="translate(327.32 5230.836)"/><path class="b" d="M54,32.511a1.3,1.3,0,0,0,1.3,1.3h5.209a1.3,1.3,0,0,0,1.3-1.3V27.3a1.3,1.3,0,0,0-1.3-1.3H55.3A1.3,1.3,0,0,0,54,27.3ZM56.6,28.6h2.6v2.6H56.6Z" transform="translate(327.32 5233.858)"/><path class="c" d="M31.907,17.209h5.209a1.3,1.3,0,0,0,0-2.6h-2.6V13.3a1.3,1.3,0,1,0-2.6,0v1.3a3.907,3.907,0,0,0,0,7.813h2.6a1.3,1.3,0,0,1,0,2.6H29.3a1.3,1.3,0,1,0,0,2.6h2.6v1.3a1.3,1.3,0,1,0,2.6,0v-1.3a3.907,3.907,0,0,0,0-7.813h-2.6a1.3,1.3,0,0,1,0-2.6Z" transform="translate(319.462 5229.627)"/><path class="c" d="M49.649,22.325A14.325,14.325,0,1,0,35.325,36.649,14.325,14.325,0,0,0,49.649,22.325ZM35.325,34.045a11.72,11.72,0,1,1,11.72-11.72A11.72,11.72,0,0,1,35.325,34.045Z" transform="translate(317.347 5228.418)"/></g></g></svg>